if (_typeface_js && _typeface_js.loadFace) _typeface_js.loadFace({"glyphs":{"0":{"ha":825,"x_min":13,"x_max":811,"o":"m 13 367 q 60 623 13 510 q 208 836 108 736 q 283 897 242 869 q 371 936 325 925 q 396 938 376 938 q 421 939 415 939 q 449 938 431 939 q 471 936 468 938 q 493 933 476 936 q 528 925 510 929 q 561 916 546 921 q 582 908 576 911 q 608 892 599 904 q 623 865 617 879 q 634 834 629 850 q 650 808 639 818 q 710 738 681 774 q 761 665 739 703 q 797 584 783 626 q 811 492 811 542 q 796 376 811 429 q 754 274 781 322 q 692 182 728 226 q 615 94 656 138 q 483 -7 557 31 q 321 -44 408 -44 q 210 -20 260 -44 q 124 45 161 4 q 60 138 86 86 q 19 246 33 190 q 15 276 17 261 q 13 306 13 290 l 13 367 m 103 344 q 133 206 103 265 q 221 94 163 147 q 269 63 240 76 q 326 50 299 50 q 433 76 378 50 q 539 144 489 103 q 628 234 589 185 q 689 329 668 283 q 708 406 704 365 q 711 486 711 447 q 688 592 711 533 q 627 701 665 650 q 539 785 589 751 q 435 819 489 819 q 377 803 413 819 q 305 763 342 786 q 237 716 268 740 q 192 675 206 692 q 120 517 138 604 q 103 344 103 429 z "},"1":{"ha":207,"x_min":14,"x_max":193,"o":"m 14 858 q 20 891 14 875 q 49 907 26 907 q 81 894 71 907 q 97 863 92 882 q 103 838 99 854 q 112 802 107 821 q 121 769 117 783 q 126 750 125 754 q 128 733 126 746 q 132 717 131 719 q 137 667 133 703 q 143 591 140 631 q 149 515 146 551 q 154 465 153 479 q 173 333 171 399 q 182 201 175 268 q 183 188 182 199 q 187 163 185 176 q 191 137 189 149 q 193 124 193 125 l 193 75 l 193 28 q 174 -1 189 11 q 143 -12 160 -12 q 113 -1 125 -12 q 97 28 100 10 q 95 48 97 33 q 91 78 93 63 q 88 106 89 93 q 86 124 86 119 q 68 367 78 246 q 47 610 58 488 q 28 734 42 672 q 14 858 14 796 z "},"2":{"ha":769,"x_min":13,"x_max":756,"o":"m 454 118 q 433 113 443 118 q 415 100 422 107 q 363 50 388 75 q 310 6 338 25 q 252 -26 283 -14 q 181 -39 221 -39 q 82 -4 122 -39 q 42 89 42 31 q 50 138 42 111 q 74 186 58 164 q 110 223 89 208 q 158 238 132 238 l 354 238 q 365 246 363 243 q 420 338 408 286 q 432 449 432 390 l 432 474 q 428 497 432 478 q 421 525 424 517 q 410 561 417 538 q 396 608 403 585 q 383 651 389 632 q 376 675 378 671 q 335 753 363 715 q 272 822 308 792 q 193 869 236 851 q 106 888 150 888 q 78 884 92 888 q 50 881 65 881 q 24 888 36 881 q 13 911 13 896 q 23 942 13 929 q 48 965 33 956 q 80 978 63 974 q 113 982 97 982 q 293 928 217 982 q 420 791 369 874 q 496 611 471 708 q 521 426 521 514 q 519 375 521 401 q 510 324 517 349 q 507 312 510 321 q 501 292 504 303 q 496 273 499 282 q 493 263 493 264 l 493 254 q 513 227 493 242 q 561 195 532 213 q 624 156 590 178 q 688 105 658 133 q 736 40 717 76 q 756 -40 756 4 q 745 -67 756 -56 q 719 -78 735 -78 q 690 -67 703 -78 q 668 -40 678 -56 q 650 -9 658 -25 q 633 17 642 7 q 598 51 619 33 q 551 83 576 68 q 501 108 526 99 q 454 118 475 118 m 136 93 q 151 64 136 78 q 181 50 165 50 q 242 71 214 50 q 293 113 269 92 l 293 118 q 272 146 293 140 q 235 151 251 151 q 206 149 222 151 q 173 139 189 146 q 147 121 157 132 q 136 93 136 110 z "},"3":{"ha":831,"x_min":14,"x_max":817,"o":"m 147 129 q 148 142 147 135 q 158 150 149 150 l 197 150 q 210 139 200 150 q 232 114 219 128 q 257 88 244 100 q 276 72 269 75 q 292 67 279 71 q 310 61 306 63 l 368 61 q 521 78 451 61 q 661 133 590 94 q 691 154 676 143 q 706 185 706 165 q 687 221 706 201 q 643 258 668 240 q 593 290 618 276 q 554 307 568 303 l 326 390 q 293 404 310 396 q 263 425 276 413 q 240 453 249 438 q 231 488 231 468 q 251 533 231 513 q 301 572 271 554 q 365 606 331 590 q 430 636 400 622 q 480 665 460 650 q 500 693 500 679 q 486 722 500 710 q 453 740 472 733 q 415 750 435 747 q 382 753 394 753 l 175 753 q 124 738 149 753 q 72 724 100 724 q 57 724 69 724 q 42 725 44 725 q 20 742 26 733 q 14 767 14 750 q 24 796 14 783 q 50 817 35 808 q 83 830 65 825 q 114 836 100 835 q 139 840 122 838 q 172 843 156 842 q 203 846 189 844 q 221 847 217 847 l 233 847 q 259 848 244 847 q 289 849 274 849 l 313 849 l 331 849 q 358 848 343 849 q 385 847 372 847 l 404 847 q 469 836 431 844 q 543 812 508 828 q 603 771 578 796 q 628 708 628 746 q 610 651 628 678 q 565 608 592 624 l 404 513 q 393 503 401 511 q 382 490 385 494 l 382 488 q 388 473 382 481 q 399 463 393 465 q 406 460 400 463 q 415 457 413 458 q 431 454 418 457 q 460 447 444 451 q 488 440 475 443 q 504 435 501 436 q 595 399 542 424 q 698 341 649 375 q 782 263 747 307 q 817 168 817 218 q 794 102 817 129 q 740 56 772 75 q 672 23 708 36 q 610 0 636 10 q 498 -31 551 -22 q 382 -39 444 -39 q 319 -37 346 -39 q 271 -28 293 -36 q 227 -5 249 -21 q 181 39 206 11 q 147 129 147 78 z "},"4":{"ha":725,"x_min":14,"x_max":711,"o":"m 432 401 q 415 425 428 414 q 388 436 401 436 q 279 422 335 436 q 167 407 224 407 q 111 413 139 407 q 62 433 83 419 q 27 468 40 446 q 14 524 14 490 q 26 612 14 568 q 47 697 38 656 q 56 756 54 725 q 58 814 57 788 q 103 849 68 849 q 133 835 124 849 q 147 801 143 821 q 149 760 150 782 q 149 725 149 739 q 148 716 149 722 q 147 708 147 710 l 114 547 q 125 524 111 536 q 147 508 139 511 q 161 508 151 508 q 181 507 171 507 l 201 507 l 215 507 q 271 508 240 507 q 330 517 301 510 q 383 538 358 524 q 421 581 407 553 q 425 653 424 624 q 426 719 426 682 q 424 767 426 743 q 421 815 421 790 q 422 842 421 828 q 427 869 422 857 q 442 890 432 882 q 469 899 451 899 q 502 892 483 899 q 521 865 521 885 l 532 592 q 544 575 542 578 q 550 566 546 572 q 560 552 554 560 q 570 538 565 544 q 578 531 575 532 q 578 522 578 528 q 579 514 579 515 q 573 490 579 500 q 558 469 567 479 q 544 448 550 458 q 538 425 538 438 l 538 418 q 539 391 538 407 q 541 359 540 375 q 543 331 542 343 q 544 318 544 319 q 560 210 551 268 q 589 100 569 151 q 619 78 597 78 q 634 83 628 78 q 647 92 640 88 q 660 102 653 97 q 675 107 667 107 q 701 96 690 107 q 711 69 711 85 q 702 26 711 47 q 678 -12 693 4 q 644 -40 664 -29 q 603 -50 625 -50 q 548 -33 571 -50 q 509 10 525 -15 q 484 66 493 36 q 471 122 475 96 q 463 178 468 139 q 451 263 457 218 q 439 347 444 307 q 432 401 433 386 z "},"5":{"ha":797,"x_min":14,"x_max":783,"o":"m 53 149 q 72 191 53 175 q 117 207 92 207 l 136 207 q 160 174 151 196 q 175 139 168 151 q 195 124 182 128 q 221 117 208 119 q 261 110 232 115 q 324 100 290 106 q 386 90 357 94 q 426 83 415 85 l 446 83 q 508 90 467 83 q 591 109 550 96 q 663 144 632 122 q 694 194 694 165 q 678 247 694 219 q 640 299 663 274 q 592 344 618 324 q 549 374 567 364 l 404 446 q 364 463 385 456 q 321 469 343 469 q 277 462 297 469 q 238 446 257 454 q 198 430 218 438 q 156 422 178 422 q 143 423 153 422 q 131 424 133 424 q 113 440 122 431 q 103 463 104 450 q 96 578 101 521 q 75 692 90 636 q 72 703 75 694 q 65 723 69 713 q 58 743 61 733 q 53 758 54 753 q 29 799 44 782 q 14 842 14 817 q 38 884 14 868 q 92 909 61 900 q 155 922 124 918 q 203 925 186 925 q 331 933 265 929 q 460 938 397 938 l 482 938 q 504 936 500 938 q 532 920 519 931 q 544 892 544 910 q 538 872 544 882 q 523 853 532 861 q 503 839 514 844 q 482 833 492 833 l 210 833 q 172 818 190 833 q 153 783 153 803 l 153 775 q 165 726 160 747 q 175 685 171 706 q 182 642 179 664 q 186 592 185 619 q 201 567 189 579 q 226 551 214 554 q 270 563 250 563 q 315 564 290 564 q 462 533 381 564 q 615 449 543 501 q 735 329 686 397 q 783 188 783 261 q 765 106 783 138 q 715 56 746 75 q 645 26 685 38 q 565 6 606 15 q 540 -3 550 0 q 522 -8 531 -6 q 510 -11 513 -11 l 332 -11 q 315 -8 331 -11 q 277 1 299 -4 q 233 13 256 7 q 197 22 211 18 q 153 39 178 28 q 106 67 128 50 q 68 103 83 83 q 53 149 53 124 z "},"6":{"ha":608,"x_min":14,"x_max":594,"o":"m 14 290 l 14 301 q 18 349 15 318 q 24 410 21 379 q 28 467 26 442 q 31 497 31 492 q 36 546 32 514 q 45 610 40 578 q 53 665 50 642 q 58 692 57 689 l 136 960 q 164 1013 144 988 q 215 1039 183 1039 l 232 1039 q 268 995 260 1014 q 276 940 276 976 q 267 897 276 910 q 244 875 257 883 q 219 858 232 867 q 199 826 206 849 q 144 630 168 735 q 119 428 119 525 q 123 409 119 417 q 139 401 126 401 q 168 408 154 401 q 195 426 182 415 q 222 447 208 436 q 249 464 235 457 q 313 478 279 476 q 378 481 346 481 q 447 475 417 481 q 506 442 476 469 q 540 410 524 425 q 568 380 556 396 q 588 345 581 364 q 594 303 594 326 q 584 225 594 263 q 544 157 574 188 q 484 92 515 125 q 417 31 453 58 q 340 -15 381 3 q 254 -33 300 -33 q 129 -10 176 -33 q 56 56 82 14 q 22 158 31 99 q 14 290 14 218 m 153 224 q 165 173 153 196 q 198 134 178 150 q 244 109 218 118 q 296 100 269 100 q 369 116 332 100 q 435 158 406 132 q 482 218 464 183 q 500 290 500 253 q 487 335 500 315 q 453 369 474 356 q 409 390 433 382 q 363 397 385 397 q 305 388 331 397 q 256 363 279 378 q 213 326 233 347 q 171 285 192 306 q 157 256 161 268 q 153 224 153 243 z "},"7":{"ha":681,"x_min":14,"x_max":667,"o":"m 232 22 q 231 38 232 25 q 231 53 231 50 q 240 113 231 83 q 262 169 249 142 q 290 224 275 197 q 315 279 304 251 q 327 312 318 288 q 349 369 336 336 q 376 440 363 403 q 403 511 390 478 q 426 569 417 544 q 438 603 435 594 q 447 625 439 607 q 465 664 456 643 q 483 703 475 685 q 493 725 492 721 q 508 762 499 736 q 517 804 517 788 q 506 826 517 815 q 483 838 494 838 q 401 831 442 838 q 319 825 361 825 l 238 825 q 181 833 218 826 q 106 852 143 839 q 42 886 69 865 q 14 936 14 907 q 20 965 14 953 q 47 976 26 976 q 79 969 65 976 q 108 954 93 961 q 175 934 142 942 q 244 926 208 926 q 387 932 317 926 q 528 949 457 938 q 541 951 531 949 q 564 957 551 954 q 587 963 576 960 q 600 965 597 965 l 613 965 q 653 954 640 965 q 667 915 667 943 l 667 893 q 626 792 642 843 q 589 692 610 742 q 578 667 586 686 q 558 624 569 649 q 535 572 547 600 q 513 519 524 544 q 493 476 501 494 q 482 451 485 457 q 471 419 479 444 q 452 365 463 394 q 433 310 442 336 q 421 279 424 285 q 406 247 418 272 q 379 192 393 221 q 353 138 365 163 q 338 106 340 113 q 326 77 332 94 q 314 44 321 60 q 296 17 307 28 q 268 6 285 6 q 247 8 256 6 q 232 22 239 11 z "},"8":{"ha":786,"x_min":14,"x_max":772,"o":"m 14 122 q 33 234 14 179 q 83 339 51 289 q 153 433 114 389 q 232 514 192 478 q 252 529 242 522 q 272 544 263 536 q 289 561 282 551 q 299 586 296 571 q 272 637 285 610 q 258 693 258 664 q 274 776 258 736 q 313 853 289 817 q 365 924 336 890 q 421 988 393 957 q 436 1009 431 997 q 448 1031 442 1021 q 463 1047 454 1040 q 488 1054 471 1054 q 549 1035 513 1054 q 622 990 586 1017 q 689 937 658 964 q 733 893 719 910 q 748 860 746 878 q 750 824 750 842 q 734 744 750 779 q 689 675 718 710 q 681 665 688 672 q 665 650 674 658 q 648 634 656 642 q 639 625 640 626 q 624 604 633 618 q 615 583 615 590 q 623 566 615 576 q 633 553 631 556 q 678 499 654 526 q 724 441 703 471 q 758 378 744 411 q 772 310 772 346 q 765 241 772 274 q 733 179 757 208 q 635 78 690 129 q 518 -13 581 28 q 388 -80 456 -54 q 249 -106 319 -106 q 78 -47 143 -106 q 14 122 14 13 m 108 132 q 147 22 108 61 q 257 -17 186 -17 q 350 -1 304 -17 q 439 41 396 15 q 521 97 482 67 q 594 157 560 128 q 622 181 606 167 q 653 214 639 196 q 678 251 668 232 q 689 290 689 271 q 678 351 689 324 q 648 399 667 378 q 605 437 629 419 q 554 469 581 454 q 540 483 546 474 q 528 503 533 492 q 518 524 524 514 q 504 542 513 535 l 482 542 q 410 524 450 542 q 331 481 371 507 q 259 424 292 454 q 210 368 226 393 q 174 313 192 340 q 141 256 156 285 q 117 196 126 226 q 108 132 108 165 m 354 706 q 362 667 354 679 q 393 636 369 654 l 407 636 q 483 648 438 636 q 568 683 528 660 q 638 737 608 706 q 667 808 667 768 q 644 851 667 831 q 591 885 621 871 q 532 907 561 899 q 490 915 503 915 q 446 891 469 915 q 402 833 422 867 q 368 763 382 799 q 354 706 354 728 z "},"9":{"ha":597,"x_min":14,"x_max":583,"o":"m 271 25 q 280 147 271 85 q 303 271 289 210 q 336 392 318 332 q 371 508 354 453 q 372 514 371 510 q 372 519 372 518 q 365 539 372 531 q 346 547 357 547 q 308 542 326 547 q 268 536 289 536 q 181 545 226 536 q 99 576 136 554 q 38 632 61 597 q 14 718 14 667 q 49 817 14 772 q 136 896 85 863 q 245 948 188 929 q 349 967 303 967 q 428 956 386 967 q 504 925 469 946 q 561 872 539 904 q 583 797 583 840 q 575 749 583 771 q 554 708 567 728 q 528 669 542 689 q 506 625 515 649 q 500 610 504 622 q 494 592 496 597 q 483 553 492 583 q 466 486 475 522 q 449 419 457 450 q 438 379 440 388 q 406 275 424 328 q 388 168 388 222 q 394 124 388 144 q 400 81 400 104 q 395 45 400 65 q 381 7 390 25 q 356 -23 371 -11 q 324 -35 342 -35 q 284 -17 297 -35 q 271 25 271 1 m 108 724 q 125 674 108 693 q 167 644 142 656 q 220 629 192 633 q 272 625 249 625 q 318 633 293 625 q 366 654 343 640 q 407 687 389 668 q 432 726 425 706 q 436 743 433 731 q 442 770 439 756 q 447 797 444 785 q 450 815 449 810 l 450 824 q 440 853 450 842 q 417 869 431 864 q 386 876 403 875 q 357 878 369 878 q 285 866 328 878 q 203 833 243 854 q 136 784 164 813 q 108 724 108 756 z "}," ":{"ha":556,"x_min":0,"x_max":0,"o":""},"!":{"ha":496,"x_min":14,"x_max":482,"o":"m 14 117 l 14 150 q 25 208 14 176 q 56 267 36 240 q 101 311 75 293 q 157 329 128 329 q 220 310 190 329 q 260 256 250 292 l 260 222 q 247 162 260 193 q 214 105 235 131 q 165 62 193 79 q 106 44 136 44 q 49 66 72 44 q 14 117 26 88 m 75 540 l 75 604 q 74 656 75 628 q 81 707 74 683 q 97 760 85 722 q 122 839 108 797 q 148 917 136 881 q 164 969 160 954 q 196 1049 176 1007 q 243 1125 215 1090 q 307 1182 271 1160 q 389 1204 343 1204 q 431 1190 414 1204 q 460 1156 449 1176 q 476 1110 471 1135 q 482 1065 482 1086 l 482 1047 l 454 847 q 447 823 454 842 q 438 797 440 804 q 425 769 433 788 q 408 730 417 750 q 391 694 399 710 q 382 674 383 678 q 366 647 378 665 q 341 606 354 628 q 316 566 328 585 q 299 540 304 547 q 237 481 271 511 q 158 451 203 451 q 101 480 121 451 q 75 540 82 508 z "},"\"":{"ha":424,"x_min":14,"x_max":410,"o":"m 14 851 q 15 892 14 868 q 23 940 17 917 q 42 981 29 964 q 81 997 56 997 q 123 977 107 997 q 147 930 139 957 q 158 874 156 903 q 164 829 161 846 q 175 796 168 811 q 182 763 182 781 q 158 718 182 735 q 110 701 133 701 q 63 717 82 701 q 33 754 44 732 q 18 803 22 776 q 14 851 14 829 m 247 876 q 249 913 247 889 q 255 960 250 936 q 271 1001 260 983 q 303 1019 282 1019 q 351 999 331 1019 q 384 950 371 979 q 403 889 397 921 q 410 835 410 857 q 408 795 410 818 q 399 751 406 772 q 378 716 392 731 q 340 701 364 701 q 294 722 313 701 q 266 769 276 742 q 251 827 256 797 q 247 876 247 857 z "},"#":{"ha":932,"x_min":13,"x_max":918,"o":"m 197 106 q 203 158 197 133 q 210 208 210 182 q 207 231 210 222 q 188 246 204 239 q 171 247 183 246 q 145 249 158 247 q 119 251 132 250 q 103 251 107 251 q 54 264 79 254 q 29 301 29 274 q 42 333 29 321 q 75 346 56 344 q 99 347 82 346 q 136 349 117 347 q 174 351 156 350 q 199 351 192 351 q 238 374 224 356 q 260 415 253 392 q 269 465 268 439 q 271 511 271 490 q 263 541 271 528 q 238 558 256 554 q 210 558 229 558 q 167 557 190 557 q 125 558 144 557 q 97 558 106 558 q 70 560 85 558 q 43 568 56 563 q 22 583 31 574 q 13 608 13 593 q 42 647 13 639 q 243 664 143 649 q 275 685 263 672 q 288 719 288 699 q 285 787 288 754 q 282 854 282 819 l 282 899 q 297 918 286 910 q 321 926 307 926 q 350 912 336 926 q 365 882 364 897 l 376 714 q 396 686 378 697 q 429 675 414 675 q 472 676 450 675 q 513 684 493 678 q 547 704 532 690 q 567 742 561 718 q 572 771 568 750 q 581 815 576 792 q 589 858 585 838 q 594 888 593 879 q 619 922 603 913 q 658 932 635 932 q 695 924 683 932 q 707 890 707 917 q 698 860 707 871 q 678 832 689 849 q 663 788 665 813 q 661 740 661 764 l 661 731 q 674 716 664 726 q 689 703 685 706 l 717 703 q 777 706 747 703 q 838 710 807 710 q 861 709 843 710 q 885 708 879 708 q 908 693 899 706 q 918 667 918 681 q 901 631 918 642 q 857 615 883 619 q 799 609 831 610 q 737 605 767 608 q 683 591 707 601 q 650 558 660 581 q 640 515 642 539 q 639 471 639 492 q 656 439 639 449 q 692 429 674 429 q 770 438 732 429 q 849 447 808 447 l 868 447 q 890 446 886 447 q 910 431 907 439 q 913 411 913 424 q 874 363 913 375 q 848 355 867 360 q 809 344 829 350 q 770 335 789 339 q 744 329 751 331 q 696 324 721 322 q 650 313 671 325 q 620 278 629 300 q 608 233 611 257 q 603 184 604 208 q 597 140 601 160 q 581 107 592 119 q 546 94 569 94 q 511 116 518 94 q 504 158 504 138 q 508 198 504 178 q 511 238 511 218 l 511 263 q 492 279 500 274 q 469 285 485 285 q 381 273 418 285 q 310 224 343 261 q 288 61 285 149 q 271 39 283 50 l 251 39 q 208 58 219 39 q 197 106 197 78 m 354 419 q 388 385 354 385 q 425 386 401 385 q 473 394 449 388 q 516 413 497 400 q 539 446 535 425 q 540 460 539 449 q 544 483 542 471 q 547 508 546 496 q 550 525 549 519 l 550 535 l 550 542 l 517 575 l 507 575 l 494 575 q 478 573 490 575 q 452 569 465 571 q 426 565 439 567 q 410 564 414 564 q 378 542 389 560 q 362 501 367 524 q 356 456 357 479 q 354 419 354 433 z "},"$":{"ha":954,"x_min":14,"x_max":942,"o":"m 457 39 q 438 33 447 39 q 419 22 429 28 q 400 10 410 15 q 379 6 390 6 q 353 16 364 6 q 332 40 342 26 q 313 67 322 53 q 293 89 304 81 q 276 98 290 92 q 260 106 263 104 q 185 151 228 124 q 105 214 143 179 q 40 290 67 249 q 14 375 14 331 q 22 394 14 386 q 42 401 31 401 q 49 400 43 401 q 58 396 56 399 q 77 382 69 392 q 91 360 85 372 q 102 335 97 347 q 114 313 107 322 q 156 267 131 292 q 211 222 182 243 q 272 186 240 200 q 331 172 303 172 q 365 195 353 172 q 382 235 376 218 q 387 251 383 240 q 394 274 390 263 q 401 294 399 285 q 404 307 404 304 q 412 343 406 314 q 426 408 418 372 q 442 478 435 443 q 454 531 450 513 q 467 599 461 563 q 472 668 472 635 q 471 683 472 679 q 460 697 469 688 q 423 734 440 718 q 391 767 406 750 q 368 803 376 783 q 360 850 360 822 q 381 911 360 890 q 430 945 401 932 q 489 972 458 958 q 539 1010 519 985 q 557 1042 549 1022 q 575 1081 565 1063 q 599 1114 585 1100 q 633 1128 613 1128 q 669 1120 650 1128 q 703 1099 688 1113 q 730 1069 719 1086 q 740 1036 740 1053 q 737 1015 740 1025 q 733 993 733 1004 q 756 960 733 972 q 803 936 778 949 q 851 905 829 924 q 874 853 874 886 q 872 833 874 842 q 857 821 871 825 q 846 820 854 821 q 835 819 838 819 q 783 831 808 819 q 736 843 757 843 q 710 826 719 843 q 695 787 700 808 q 690 744 690 765 q 689 714 689 722 q 710 667 689 683 q 750 631 731 650 q 836 547 793 590 q 901 447 879 504 q 912 418 906 436 q 924 383 918 400 q 935 351 931 365 q 940 335 940 336 q 942 292 942 301 q 935 210 942 242 q 910 159 928 179 q 863 126 892 139 q 789 100 833 113 q 773 95 786 99 q 756 89 760 92 q 744 85 753 89 q 726 76 736 81 q 706 67 715 71 q 694 61 697 63 q 654 56 676 54 q 617 44 632 57 q 597 19 603 33 q 586 -8 592 4 q 572 -30 581 -21 q 542 -39 563 -39 q 515 -27 525 -39 q 498 -1 506 -15 q 482 26 490 14 q 457 39 474 39 m 611 196 q 626 162 611 174 q 661 150 642 150 q 717 158 685 150 q 780 181 750 165 q 831 219 810 196 q 851 274 851 242 q 838 352 851 314 q 804 425 825 390 q 756 490 783 460 q 700 547 729 521 l 692 547 q 661 519 665 547 l 611 207 l 611 196 m 471 185 q 472 172 471 178 q 483 167 474 167 q 499 183 490 167 q 515 224 507 199 q 530 278 522 249 q 543 333 538 307 q 552 381 549 360 q 556 407 556 401 l 556 436 q 549 442 554 442 l 542 442 l 533 442 q 528 436 529 442 q 508 314 524 369 q 471 196 493 258 l 471 185 m 571 797 q 573 781 571 786 q 586 775 575 775 q 590 776 588 775 q 594 776 593 776 q 610 806 604 793 q 617 833 617 818 q 615 848 617 840 q 606 860 613 856 q 576 835 582 853 q 571 797 571 818 m 460 839 q 467 824 460 832 q 483 815 474 815 l 489 821 q 497 839 490 824 q 506 860 503 854 l 506 863 q 492 878 506 878 q 468 865 476 878 q 460 839 460 851 z "},"%":{"ha":758,"x_min":14,"x_max":744,"o":"m 264 119 q 282 217 264 169 q 328 309 300 265 q 390 393 357 353 q 454 468 424 433 q 468 483 457 471 q 489 503 479 496 q 503 517 496 510 q 515 524 510 524 q 532 525 518 525 l 549 525 q 626 506 592 525 q 683 457 660 488 q 720 388 707 426 q 733 310 733 349 q 728 260 733 290 q 714 198 724 229 q 691 140 704 167 q 661 100 678 113 q 628 79 651 94 q 580 47 606 64 q 531 15 554 31 q 499 -6 508 0 q 456 -22 478 -19 q 410 -24 433 -24 q 388 -23 404 -24 q 365 -22 371 -22 q 289 31 314 -8 q 264 119 264 71 m 14 72 q 18 105 14 90 q 30 135 22 119 q 49 168 38 150 q 75 211 60 186 q 106 263 89 236 q 136 313 122 290 q 159 350 150 335 q 169 368 168 365 l 471 769 q 492 802 474 774 q 533 868 510 831 q 579 944 556 906 q 617 1004 603 982 q 624 1019 618 1007 q 638 1046 631 1032 q 651 1072 644 1060 q 661 1088 658 1085 q 681 1110 668 1099 q 708 1121 693 1121 q 736 1107 728 1121 q 744 1076 744 1093 l 744 1060 q 658 891 704 972 q 554 731 613 810 q 524 692 544 718 q 478 633 504 667 q 425 564 453 600 q 372 494 397 528 q 326 435 346 461 q 299 396 307 408 q 271 356 290 385 q 230 294 251 326 q 190 232 208 261 q 164 190 171 203 q 146 139 151 168 q 132 83 140 110 q 108 39 124 57 q 63 21 93 21 q 14 72 14 21 m 360 125 q 366 108 360 115 q 381 94 372 100 q 400 86 390 89 q 417 83 410 83 q 495 103 454 83 q 571 155 536 124 q 628 226 606 186 q 650 304 650 265 q 646 340 650 322 q 633 374 642 358 q 611 399 625 389 q 576 408 597 408 q 542 405 558 408 q 510 390 525 401 q 462 340 488 374 q 413 269 436 307 q 375 192 390 231 q 360 125 360 153 m 81 867 q 107 970 81 915 q 175 1071 133 1025 q 269 1147 217 1117 q 371 1178 321 1178 q 412 1174 390 1178 q 452 1161 433 1171 q 483 1136 471 1151 q 494 1096 494 1121 q 480 1025 494 1061 q 449 960 465 989 q 428 934 443 953 q 396 895 413 915 q 364 856 379 875 q 343 831 349 838 q 310 799 326 811 q 277 778 294 786 q 239 767 260 771 q 192 764 218 764 l 153 764 q 98 803 115 776 q 81 867 81 829 m 175 899 q 187 874 175 883 q 213 864 199 864 q 249 878 225 864 q 297 911 274 892 q 337 952 319 931 q 354 990 354 974 q 344 1019 354 1006 q 317 1032 333 1032 q 274 1017 299 1032 q 228 980 250 1001 q 190 935 206 958 q 175 899 175 913 z "},"&":{"ha":853,"x_min":14,"x_max":840,"o":"m 542 101 l 533 101 q 526 100 528 101 l 293 11 q 237 -4 260 -1 q 182 -7 214 -7 q 122 2 151 -7 q 67 28 92 11 q 28 72 43 46 q 14 132 14 99 q 32 230 14 181 q 69 324 50 279 q 80 346 71 328 q 99 385 89 364 q 119 424 110 406 q 131 446 128 442 q 136 460 135 456 q 138 475 138 465 q 124 513 138 493 q 103 546 111 532 q 75 608 86 578 q 64 675 64 639 q 97 796 64 742 q 181 894 131 850 q 289 970 231 938 q 399 1026 347 1003 q 463 1051 433 1042 q 529 1060 493 1060 q 583 1049 560 1060 q 606 1003 606 1038 q 604 983 606 989 q 593 964 603 978 l 321 586 q 315 577 319 585 q 303 559 310 569 q 291 539 297 549 q 282 524 285 529 q 273 508 276 517 q 269 490 269 499 q 288 453 269 478 q 334 400 306 429 q 397 340 363 371 q 466 285 432 310 q 528 244 500 260 q 574 228 557 228 q 583 228 576 228 q 593 229 590 229 q 687 281 639 250 q 783 329 735 311 l 789 329 q 826 308 813 329 q 840 268 840 288 q 840 260 840 265 q 839 251 839 254 q 802 221 828 232 q 749 200 776 210 q 702 178 722 190 q 682 147 682 167 q 702 122 682 135 q 747 92 722 108 q 791 56 771 75 q 811 11 811 36 q 794 -30 811 -15 q 753 -44 778 -44 q 722 -35 733 -44 q 701 -14 710 -26 q 683 13 692 -1 q 661 39 675 28 q 638 56 651 46 q 608 77 624 67 q 574 94 592 88 q 542 101 557 101 m 114 156 q 123 126 114 136 q 146 109 132 115 q 176 101 160 103 q 206 100 192 100 l 238 100 l 415 150 q 438 179 438 156 q 437 188 438 183 q 432 196 436 192 l 249 363 q 235 373 239 371 q 219 375 231 375 q 201 371 208 375 q 186 351 193 367 q 164 308 176 332 q 140 258 151 283 q 122 206 129 232 q 114 156 114 179 m 153 679 q 155 653 153 668 q 162 624 157 638 q 176 600 167 610 q 201 590 186 590 q 217 594 213 590 q 232 614 221 599 l 438 892 q 443 903 439 894 q 449 914 447 911 l 449 919 q 432 936 449 936 q 415 933 425 936 q 395 924 406 929 q 376 915 385 919 q 365 908 368 910 q 351 898 361 906 q 328 883 340 890 q 307 868 317 875 q 293 858 297 861 q 271 842 286 854 q 238 816 256 831 q 206 788 221 801 q 186 769 192 775 q 153 679 153 729 z "},"'":{"ha":161,"x_min":14,"x_max":147,"o":"m 14 836 q 15 876 14 853 q 21 918 15 899 q 39 951 26 938 q 75 965 51 965 q 119 944 104 965 q 140 893 133 922 q 147 833 146 864 q 147 785 147 803 l 147 721 q 128 705 140 711 q 106 699 117 699 q 66 717 85 699 q 36 749 47 735 q 17 790 19 769 q 14 836 14 811 z "},"(":{"ha":547,"x_min":14,"x_max":533,"o":"m 14 442 q 42 635 14 543 q 120 810 71 728 q 237 963 169 892 q 382 1094 304 1035 q 405 1111 392 1101 q 433 1130 418 1121 q 463 1145 447 1139 q 490 1151 478 1151 q 514 1147 506 1151 q 533 1128 522 1142 l 533 1106 q 517 1053 533 1075 q 476 1017 500 1032 q 426 990 453 1001 q 376 967 399 978 q 358 949 371 961 q 331 922 346 936 q 304 894 317 907 q 288 876 292 882 q 260 837 269 858 q 238 793 250 815 q 177 700 207 744 q 136 597 147 656 q 122 521 129 557 q 114 444 114 485 q 133 348 114 397 q 181 253 151 299 q 248 169 211 207 q 321 106 285 131 q 358 91 338 94 q 396 83 378 88 q 426 66 414 78 q 439 25 439 54 q 423 -10 439 3 q 385 -24 407 -24 q 349 -17 363 -24 q 304 0 335 -11 q 192 69 244 21 q 99 180 139 118 q 37 310 60 242 q 14 442 14 379 z "},")":{"ha":547,"x_min":14,"x_max":533,"o":"m 14 46 q 46 93 14 75 q 121 125 78 111 q 208 153 164 139 q 276 190 253 168 q 392 356 351 258 q 433 556 433 454 q 415 684 433 622 q 365 804 397 746 q 325 844 343 825 q 291 883 307 864 q 259 923 275 903 q 226 967 243 943 q 202 988 217 979 q 174 1008 188 997 q 151 1031 161 1018 q 142 1064 142 1044 q 155 1099 142 1086 q 190 1113 168 1113 q 251 1095 225 1113 q 304 1056 278 1078 q 329 1030 311 1049 q 367 991 347 1011 q 403 953 386 971 q 428 928 421 935 q 476 854 456 897 q 508 764 496 811 q 527 669 521 717 q 533 582 533 622 l 533 542 q 531 506 533 532 q 526 452 529 481 q 521 398 524 424 q 517 363 518 372 q 499 323 511 342 q 478 285 488 304 q 464 258 474 278 q 444 218 454 239 q 424 178 433 197 q 411 151 415 158 q 350 98 392 124 q 259 51 308 72 q 162 18 210 31 q 83 6 114 6 l 47 6 q 24 19 33 8 q 14 46 14 31 z "},"*":{"ha":625,"x_min":14,"x_max":611,"o":"m 218 825 q 215 824 215 825 l 92 701 q 78 691 82 692 q 63 690 74 690 q 19 731 19 690 q 22 757 19 746 q 36 779 25 768 q 53 799 40 785 q 80 828 65 813 q 107 856 94 843 q 125 875 119 869 q 126 881 126 875 q 109 901 126 897 q 70 910 92 906 q 31 924 49 914 q 14 961 14 933 q 26 985 14 975 q 56 1001 39 994 q 89 1010 72 1007 q 114 1014 106 1013 q 125 1015 117 1014 q 142 1017 133 1015 q 159 1019 151 1018 q 171 1019 167 1019 q 188 1044 188 1029 l 188 1053 q 154 1085 174 1067 q 117 1125 135 1104 q 88 1169 100 1146 q 75 1215 75 1192 l 75 1238 q 108 1254 88 1254 q 148 1238 128 1254 q 187 1201 168 1221 q 223 1164 206 1181 q 253 1147 240 1147 q 262 1149 260 1147 q 271 1154 264 1150 q 279 1160 279 1157 l 279 1254 q 291 1268 279 1257 q 310 1282 303 1279 q 319 1283 311 1282 q 329 1283 326 1283 q 368 1268 358 1283 q 382 1235 378 1253 q 392 1201 386 1217 q 417 1186 397 1186 q 434 1192 425 1186 q 452 1206 443 1199 q 472 1220 461 1214 q 494 1226 482 1226 q 529 1209 519 1226 q 539 1171 539 1192 q 533 1144 539 1154 q 519 1125 526 1133 q 505 1108 511 1117 q 499 1089 499 1100 q 516 1077 499 1082 q 555 1064 533 1072 q 594 1042 576 1056 q 611 1006 611 1029 q 599 977 611 990 q 571 964 588 964 q 538 967 554 964 q 504 969 521 969 q 479 968 493 969 q 452 962 465 967 q 430 948 439 957 q 421 925 421 939 q 438 885 421 904 q 477 848 456 867 q 516 808 499 829 q 533 763 533 788 q 519 731 533 743 q 485 718 504 718 q 452 727 468 718 q 422 749 436 736 q 394 776 407 761 q 371 801 381 790 q 354 790 354 793 l 354 718 q 339 692 354 699 q 308 685 324 685 q 263 707 274 685 q 248 755 251 729 q 240 803 244 781 q 218 825 236 825 z "},"+":{"ha":507,"x_min":14,"x_max":494,"o":"m 14 654 q 26 682 14 672 q 56 692 39 692 q 107 685 82 692 q 158 679 132 679 l 175 679 q 192 681 190 679 q 226 708 219 688 q 234 752 232 728 q 241 800 236 776 q 271 836 246 824 l 282 836 q 325 820 311 836 q 347 783 339 804 q 363 739 356 761 q 388 703 371 717 q 418 691 400 692 q 453 688 436 690 q 483 678 471 686 q 494 643 494 669 q 474 603 494 615 q 427 582 453 590 q 381 565 401 574 q 360 535 360 556 l 360 451 q 345 431 360 438 q 319 424 331 424 q 279 440 292 424 q 259 477 267 456 q 244 522 251 499 q 219 557 236 544 q 215 560 218 558 q 208 563 211 563 q 159 569 192 565 q 94 581 126 572 q 38 608 61 590 q 14 654 14 625 z "},",":{"ha":285,"x_min":14,"x_max":271,"o":"m 58 -192 q 65 -162 58 -175 q 81 -136 72 -149 q 97 -111 90 -124 q 104 -82 104 -99 q 90 -25 104 -50 q 59 23 76 0 q 28 69 42 46 q 14 124 14 93 q 47 206 14 176 q 131 236 81 236 q 202 222 172 236 q 260 175 232 207 q 267 163 263 172 q 271 153 271 154 l 271 -32 q 257 -93 271 -57 q 221 -162 243 -129 q 171 -220 199 -196 q 117 -244 143 -244 q 76 -231 93 -244 q 58 -192 58 -218 z "},"-":{"ha":535,"x_min":13,"x_max":522,"o":"m 13 615 q 13 627 13 619 q 15 637 14 635 q 27 649 17 639 q 42 663 38 660 q 78 672 57 669 q 121 674 99 674 q 166 673 144 674 q 203 674 188 672 q 241 676 211 674 q 306 682 271 679 q 372 688 342 685 q 410 690 401 690 q 425 691 411 690 q 446 692 439 692 q 464 691 450 692 q 482 690 478 690 q 511 672 500 683 q 522 640 522 660 q 497 595 522 608 q 443 579 471 582 q 263 565 354 572 q 83 557 172 557 q 35 572 58 557 q 13 615 13 588 z "},".":{"ha":257,"x_min":14,"x_max":244,"o":"m 14 100 q 51 185 14 158 q 140 213 89 213 q 214 192 183 213 q 244 124 244 172 q 233 74 244 96 q 201 35 221 51 q 156 9 181 18 q 107 0 132 0 q 39 30 64 0 q 14 100 14 60 z "},"/":{"ha":740,"x_min":-79,"x_max":814,"o":"m -79 -33 q -62 11 -79 -10 l 624 926 q 635 943 626 931 q 652 969 643 956 q 669 995 661 983 q 681 1011 676 1007 q 717 1055 696 1032 q 767 1078 738 1078 q 802 1063 790 1078 q 814 1025 814 1047 q 799 971 814 993 q 764 926 783 949 q 744 906 758 921 q 716 876 731 892 q 688 847 701 861 q 668 826 674 832 l 106 67 q 75 26 90 50 q 43 -20 60 1 q 6 -58 26 -42 q -39 -74 -14 -74 q -69 -62 -58 -74 q -79 -33 -79 -51 z "},":":{"ha":257,"x_min":14,"x_max":243,"o":"m 14 200 q 22 246 14 221 q 45 292 31 271 q 81 326 60 313 q 125 340 101 340 q 165 326 147 340 q 196 289 183 311 q 215 242 208 267 q 221 200 221 218 l 221 172 q 165 128 197 144 q 96 111 133 111 q 35 136 56 111 q 14 200 14 161 m 25 625 l 25 664 q 31 713 25 689 q 51 756 38 738 q 86 787 65 775 q 135 799 107 799 q 214 769 185 799 q 243 689 243 739 l 243 658 q 187 592 226 621 q 106 564 147 564 q 55 581 78 564 q 25 625 32 599 z "},";":{"ha":413,"x_min":13,"x_max":399,"o":"m 13 -156 q 35 -118 13 -131 q 83 -95 57 -106 q 132 -71 110 -85 q 154 -29 154 -57 q 138 9 154 -11 q 114 46 121 29 l 114 79 q 121 126 114 101 q 142 172 128 151 q 176 206 156 193 q 222 219 196 219 q 296 185 271 219 q 321 107 321 150 q 314 54 321 75 q 299 1 307 33 q 283 -58 290 -31 q 264 -109 275 -85 q 234 -155 253 -133 q 186 -194 215 -176 q 167 -205 179 -199 q 153 -211 156 -211 l 69 -211 q 31 -192 50 -211 q 13 -156 13 -174 m 169 615 q 177 660 169 638 q 199 701 185 682 q 233 731 213 719 q 276 743 253 743 q 363 710 326 743 q 399 625 399 676 q 392 583 399 604 q 372 546 385 563 q 341 519 360 529 q 299 508 322 508 q 252 516 275 508 q 211 537 229 524 q 181 570 193 550 q 169 615 169 590 z "},"<":{"ha":742,"x_min":14,"x_max":728,"o":"m 14 479 q 22 513 14 494 q 42 540 29 532 l 650 965 q 668 975 663 974 q 685 976 674 976 q 728 936 728 976 q 718 898 728 915 q 693 867 708 881 q 659 846 678 854 q 622 836 640 838 l 164 518 q 158 485 160 492 l 158 479 q 169 457 158 465 l 644 144 q 694 126 671 142 q 717 81 717 110 q 703 48 717 57 q 668 39 690 39 q 647 40 653 39 q 628 50 642 40 l 53 429 q 26 450 38 439 q 14 479 14 461 z "},"=":{"ha":540,"x_min":14,"x_max":526,"o":"m 58 501 q 27 522 40 508 q 14 554 14 535 q 38 599 14 585 q 89 613 61 613 l 97 613 q 119 608 103 611 q 152 602 135 606 q 185 597 169 599 q 208 593 201 594 l 471 593 q 499 576 483 593 q 515 546 515 558 q 502 511 515 525 q 471 490 489 497 l 442 490 q 398 490 421 490 q 354 489 375 489 l 326 489 q 192 490 254 489 q 58 501 129 490 m 25 726 q 31 752 25 744 q 53 769 38 760 q 75 775 58 771 q 110 783 92 779 q 146 792 129 788 q 169 797 163 796 q 200 798 175 797 q 253 800 225 799 q 306 802 282 801 q 338 803 331 803 q 356 804 342 803 q 388 808 371 806 q 419 812 404 810 q 438 814 433 814 l 465 814 l 493 814 q 517 795 508 806 q 526 767 526 785 l 526 753 q 508 732 515 740 q 492 719 500 724 q 474 711 485 714 q 449 707 464 708 q 265 690 357 700 q 82 679 174 679 q 42 691 58 679 q 25 726 25 703 z "},">":{"ha":742,"x_min":14,"x_max":728,"o":"m 14 78 q 22 103 14 93 q 42 122 29 113 l 583 551 l 583 592 l 249 803 q 215 813 233 813 q 181 825 199 813 q 169 826 178 825 q 150 828 160 826 q 132 830 140 829 q 119 831 124 831 q 114 833 118 831 q 108 836 110 835 q 85 858 100 844 q 58 885 71 871 q 35 916 44 900 q 25 949 25 932 q 45 985 25 971 q 86 999 65 999 q 103 997 97 999 q 119 988 108 994 l 706 619 q 728 576 728 606 q 723 553 728 561 q 706 535 718 546 l 97 56 q 78 43 86 47 q 56 39 69 39 q 26 49 38 39 q 14 78 14 58 z "},"?":{"ha":792,"x_min":14,"x_max":778,"o":"m 208 83 q 218 133 208 108 q 245 178 228 158 q 285 211 263 199 q 335 224 308 224 q 397 197 371 224 q 422 135 422 171 q 412 94 422 111 q 385 62 401 76 q 351 35 369 47 q 315 11 332 24 q 297 5 306 4 q 276 6 289 6 q 226 28 243 6 q 208 83 208 51 m 299 407 q 298 431 299 413 q 297 454 297 449 q 301 506 297 481 q 304 557 304 532 q 301 608 304 583 q 297 660 297 633 q 326 731 297 707 q 397 767 354 756 q 490 783 440 778 q 583 800 540 789 q 655 835 626 811 q 683 906 683 858 q 667 969 683 932 q 628 1038 651 1006 q 575 1092 604 1069 q 519 1115 546 1115 q 463 1103 494 1115 q 402 1074 432 1092 q 346 1035 372 1057 q 304 993 319 1014 q 295 981 301 990 q 283 959 289 971 q 272 938 276 947 q 265 925 267 928 q 246 901 261 921 q 214 859 231 882 q 183 817 197 836 q 164 792 168 797 q 145 761 154 779 q 124 728 136 743 q 99 701 113 713 q 64 690 85 690 q 34 699 44 690 q 14 725 24 708 l 14 753 q 25 830 14 789 q 64 897 36 871 l 282 1104 q 335 1147 306 1126 q 397 1185 364 1168 q 463 1212 429 1201 q 531 1222 497 1222 q 624 1189 579 1222 q 703 1106 668 1156 q 758 1001 738 1057 q 778 900 778 946 q 754 794 778 832 q 692 735 731 756 q 605 706 654 715 q 504 686 556 697 q 473 678 489 682 q 443 666 457 674 q 420 646 429 658 q 410 614 411 633 q 409 593 410 610 q 407 558 408 576 q 405 522 406 539 q 404 501 404 506 q 402 476 404 494 q 397 438 400 458 q 392 398 394 417 q 388 374 389 379 q 372 353 381 357 q 349 350 363 350 q 313 368 325 350 q 299 407 301 386 z "},"@":{"ha":954,"x_min":13,"x_max":942,"o":"m 13 457 q 76 737 13 614 q 254 965 140 860 q 334 1026 289 999 q 428 1074 379 1054 q 528 1106 478 1094 q 628 1117 579 1117 q 748 1080 700 1117 q 825 988 796 1043 q 867 865 854 932 q 879 739 879 799 q 873 658 879 701 q 850 576 867 614 q 803 515 833 539 q 725 490 772 490 q 694 497 708 490 q 665 510 679 503 q 638 524 651 518 q 608 531 624 531 q 574 524 592 531 q 538 510 557 518 q 498 497 519 503 q 453 490 476 490 q 365 523 403 490 q 326 608 326 556 q 349 680 326 646 q 407 740 372 714 q 481 783 442 767 q 554 799 521 799 q 626 784 600 799 q 667 747 653 769 q 688 698 682 724 q 697 649 693 672 q 708 612 701 626 q 733 597 715 597 q 753 604 744 597 q 769 622 763 611 q 780 644 776 632 q 783 664 783 656 l 783 815 q 774 848 778 835 q 767 875 771 861 q 761 899 763 889 q 710 992 746 957 q 615 1028 674 1028 q 599 1027 610 1028 q 588 1026 589 1026 q 574 1022 586 1026 q 546 1013 561 1018 q 516 1001 531 1007 q 494 993 501 996 q 282 865 369 943 q 153 658 194 788 q 126 562 138 610 q 114 463 114 514 q 206 208 114 299 q 461 117 297 117 q 518 119 488 117 q 578 125 549 121 q 637 137 608 129 q 689 156 665 144 q 790 208 742 181 q 896 235 839 235 l 924 235 q 940 221 938 229 q 942 201 942 213 q 931 174 942 186 q 905 151 919 161 q 875 133 890 140 q 851 122 860 126 q 683 45 768 79 q 501 11 597 11 q 305 39 394 11 q 151 123 215 67 q 49 263 86 179 q 13 457 13 346 m 426 615 q 439 592 426 604 q 463 581 451 581 q 501 587 479 581 q 540 605 522 593 q 571 633 558 617 q 583 669 583 650 q 570 694 583 685 q 544 704 557 704 q 510 696 531 704 q 472 674 490 688 q 440 645 453 661 q 426 615 426 629 z "},"A":{"ha":636,"x_min":14,"x_max":622,"o":"m 219 274 q 181 256 194 274 q 159 213 167 239 q 146 156 151 186 q 131 100 140 126 q 106 56 122 74 q 60 39 89 39 q 25 56 36 39 q 14 96 14 74 q 19 136 14 117 q 30 176 24 156 q 42 215 36 196 q 47 256 47 235 q 44 287 47 271 q 42 319 42 303 q 49 342 42 331 q 65 365 56 354 q 83 385 74 376 q 97 401 92 394 q 112 431 107 414 q 119 467 117 449 q 122 503 121 486 q 125 536 122 521 q 128 547 126 538 q 131 558 129 556 q 153 628 144 600 q 171 697 163 657 q 176 740 172 710 q 186 803 181 769 q 197 867 192 838 q 204 910 201 897 q 220 938 210 926 q 249 949 231 949 q 280 938 268 949 q 299 910 292 926 l 471 429 q 478 401 472 421 q 490 360 483 382 q 502 318 496 338 q 511 290 508 299 q 540 230 521 256 q 576 178 558 204 q 608 123 594 153 q 622 50 622 93 q 608 10 622 26 q 569 -6 594 -6 q 522 18 542 -6 q 485 74 501 42 q 453 141 468 107 q 421 196 438 175 q 383 226 408 213 q 327 251 357 240 q 268 267 297 261 q 219 274 239 274 m 208 413 q 225 385 208 397 q 254 368 242 372 q 271 363 258 367 q 299 357 283 360 q 328 351 314 354 q 349 346 342 347 l 358 346 l 365 346 q 381 357 372 349 q 388 368 389 365 l 304 614 q 296 628 301 621 q 282 636 290 636 q 259 624 267 636 q 249 597 251 611 q 240 562 246 588 q 228 508 235 536 q 217 453 222 479 q 210 418 211 428 q 208 413 208 414 z "},"B":{"ha":1082,"x_min":14,"x_max":1068,"o":"m 142 50 q 147 86 142 68 q 164 119 153 104 q 190 142 175 133 q 225 151 206 151 q 265 108 265 151 q 260 86 265 96 q 254 64 254 76 q 271 35 254 46 q 310 16 288 24 q 354 5 332 8 q 388 0 376 1 q 461 -5 424 -4 q 535 -6 499 -6 l 583 -6 q 613 -3 588 -6 q 672 3 639 0 q 737 10 704 7 q 789 17 769 14 q 842 30 810 19 q 906 57 875 40 q 958 97 936 74 q 979 146 979 119 q 965 208 979 176 q 940 268 951 240 q 917 306 932 288 q 886 342 903 325 q 852 375 869 360 q 822 401 835 390 q 747 449 792 431 q 651 478 701 467 q 552 493 601 489 q 465 497 503 497 l 421 497 q 392 479 403 490 q 381 447 381 468 q 381 438 381 444 q 382 431 382 432 q 388 388 383 418 q 396 324 392 357 q 404 260 400 290 q 410 218 408 231 q 410 199 410 215 q 411 176 411 183 q 410 155 411 171 q 410 135 410 139 q 394 110 407 119 q 365 100 381 100 q 326 129 335 100 q 312 288 324 208 q 282 447 300 368 q 273 469 279 460 q 260 489 267 479 q 247 509 253 499 q 242 535 242 519 q 251 574 242 556 q 260 613 260 592 q 247 685 260 653 q 226 758 233 718 q 222 799 224 768 q 221 853 221 829 l 221 876 q 210 894 218 885 q 193 904 203 904 q 175 895 182 904 q 160 876 168 886 q 142 856 151 865 q 115 847 132 847 q 83 853 100 847 q 50 872 65 860 q 24 898 35 883 q 14 929 14 913 q 33 973 14 957 q 75 999 51 989 q 113 1003 86 1000 q 170 1008 140 1006 q 227 1013 200 1011 q 265 1015 254 1015 l 292 1015 l 315 1015 q 337 1013 321 1015 q 372 1008 353 1011 q 407 1003 390 1006 q 432 999 424 1000 q 544 965 490 989 q 650 921 599 942 q 719 877 688 906 q 751 806 751 849 q 726 728 751 760 q 669 675 700 697 q 613 637 639 653 q 588 606 588 621 q 611 581 588 590 q 665 565 635 571 q 724 555 694 558 q 767 547 754 551 q 824 515 794 536 q 872 475 853 493 q 947 402 911 439 q 1009 325 982 365 q 1052 238 1036 285 q 1068 136 1068 192 q 1052 51 1068 90 q 990 -11 1036 13 q 963 -25 982 -15 q 921 -45 943 -35 q 878 -65 899 -56 q 850 -78 858 -74 q 807 -87 829 -85 q 762 -90 785 -89 q 717 -93 739 -92 q 672 -100 694 -94 l 399 -100 q 328 -90 371 -100 q 243 -59 285 -79 q 172 -11 201 -39 q 142 50 142 17 m 371 686 q 377 651 368 672 q 404 631 386 631 q 444 644 422 631 q 482 664 467 657 q 528 688 507 676 q 569 712 550 699 q 606 742 588 725 q 644 781 624 758 q 648 786 646 782 q 650 793 650 790 q 622 832 646 818 q 569 855 599 846 q 508 869 539 864 q 460 882 478 875 q 435 892 444 888 q 416 899 425 896 q 397 903 407 901 q 371 904 386 904 l 338 904 q 331 899 335 903 q 326 893 328 894 l 326 890 l 326 888 q 332 874 328 885 q 338 860 336 863 l 343 843 q 349 812 344 835 q 357 764 353 789 q 365 717 361 739 q 371 686 369 694 z "},"C":{"ha":836,"x_min":14,"x_max":822,"o":"m 14 493 q 39 659 14 585 q 125 803 64 733 q 140 820 131 810 q 161 840 150 831 q 185 857 172 850 q 208 864 197 864 l 343 864 q 367 850 354 864 q 382 825 379 836 q 383 813 382 822 q 387 794 385 804 q 391 774 389 783 q 393 764 393 765 q 397 751 393 761 q 406 731 401 742 q 415 710 411 719 q 421 697 419 700 q 427 668 428 681 q 426 636 426 656 l 426 596 q 409 574 419 585 q 382 563 399 563 q 349 578 361 563 q 328 616 336 593 q 313 666 319 639 q 299 716 307 693 q 279 754 290 739 q 250 769 268 769 q 208 752 226 769 q 175 719 189 735 q 122 615 136 675 q 108 496 108 554 q 173 258 108 361 q 360 100 238 154 q 401 87 381 90 q 446 83 422 83 q 509 93 476 83 q 574 117 542 103 q 637 147 606 131 q 694 178 668 164 q 736 203 714 189 q 782 218 758 218 q 813 210 803 218 q 822 179 822 201 l 822 167 q 809 152 819 163 q 794 139 799 142 q 709 84 750 111 q 626 36 668 57 q 538 2 583 15 q 439 -11 492 -11 q 257 33 336 -11 q 124 148 178 76 q 42 310 69 219 q 14 493 14 400 z "},"D":{"ha":899,"x_min":14,"x_max":885,"o":"m 136 89 q 169 124 136 124 q 198 117 185 124 q 226 111 211 111 q 244 118 238 111 q 254 135 251 125 q 181 438 210 286 q 158 749 153 589 q 128 788 151 775 q 79 813 104 801 q 34 838 54 824 q 14 881 14 851 q 24 913 14 900 q 56 926 35 926 q 94 919 74 926 q 131 904 115 911 l 483 738 q 603 667 535 713 q 735 564 672 622 q 841 439 797 506 q 885 306 885 372 q 867 219 885 257 q 818 146 850 181 l 733 61 q 692 37 715 44 q 644 22 668 29 q 624 15 640 21 q 588 2 607 8 q 553 -10 569 -4 q 533 -17 538 -15 q 482 -24 508 -24 l 432 -24 l 415 -24 q 396 -23 406 -24 q 378 -22 386 -22 l 371 -22 q 354 -19 368 -22 q 322 -13 340 -17 q 287 -6 304 -10 q 260 0 269 -3 q 224 12 244 4 q 183 31 203 19 q 150 56 164 42 q 136 89 136 71 m 249 685 q 269 503 249 593 q 310 324 289 413 q 315 305 311 319 q 321 274 318 290 q 327 242 324 257 q 332 224 331 228 q 338 211 333 221 q 349 190 343 201 q 359 168 354 178 q 365 157 364 158 q 372 125 372 142 q 382 94 371 108 q 403 76 394 79 q 432 72 413 72 q 533 88 472 72 q 651 133 594 104 q 749 206 708 163 q 790 303 790 249 q 771 371 790 336 q 723 438 751 406 q 664 497 694 469 q 611 542 633 525 q 589 558 604 547 q 558 578 574 568 q 528 597 542 589 q 511 608 515 606 q 483 624 504 613 q 436 648 461 635 q 388 674 411 661 q 354 692 364 686 q 331 701 340 697 q 313 709 322 706 q 299 715 304 713 l 282 721 q 259 708 269 721 q 249 685 249 696 z "},"E":{"ha":686,"x_min":14,"x_max":672,"o":"m 14 196 q 26 283 14 236 q 64 363 39 329 q 98 398 74 375 q 147 444 122 421 q 191 489 172 468 q 210 519 210 510 q 180 558 210 539 q 115 601 150 576 q 49 661 79 626 q 19 747 19 696 q 38 820 19 792 q 87 865 57 849 q 153 887 117 881 q 226 893 190 893 q 292 887 250 893 q 374 867 333 881 q 443 828 414 853 q 472 769 472 804 q 465 735 472 751 q 436 719 457 719 q 401 730 417 719 q 370 753 385 740 q 340 776 356 765 q 304 786 324 786 l 169 786 q 133 774 153 786 q 114 742 114 761 q 122 720 114 731 q 136 703 131 710 q 211 646 168 667 q 299 614 254 625 q 325 608 304 613 q 371 597 346 603 q 417 587 396 592 q 443 581 438 582 q 478 563 463 576 q 494 531 494 550 q 479 497 494 508 q 443 478 464 485 q 401 469 422 472 q 365 463 379 467 q 278 426 322 449 q 197 370 233 403 q 137 297 160 338 q 114 204 114 256 q 132 151 114 172 q 176 115 150 129 q 234 95 203 101 q 290 89 265 89 l 321 89 q 339 92 325 89 q 368 100 353 96 q 397 108 383 104 q 415 111 411 111 q 433 115 421 113 q 460 119 446 117 q 487 123 474 121 q 510 128 500 125 q 543 144 528 133 q 574 165 558 154 q 606 183 590 175 q 640 190 622 190 q 672 158 672 190 q 653 121 672 139 q 606 85 635 103 q 542 53 578 68 q 474 26 507 38 q 415 8 442 15 q 376 0 389 1 q 322 -6 349 -6 l 269 -6 q 176 6 222 -6 q 94 41 131 17 q 36 103 58 65 q 14 196 14 142 z "},"F":{"ha":619,"x_min":14,"x_max":606,"o":"m 14 839 q 22 873 14 861 q 53 893 31 885 q 257 901 154 894 q 460 921 360 908 q 483 926 464 921 q 506 932 501 932 q 517 933 507 932 q 531 933 526 933 q 584 916 563 933 q 606 865 606 899 q 593 835 606 844 q 561 825 581 825 q 525 828 542 825 q 489 832 508 832 l 460 832 q 417 825 447 829 q 351 817 386 821 q 286 809 317 813 q 243 804 256 806 q 228 803 239 804 q 204 801 217 803 q 181 799 192 800 q 165 799 169 799 q 144 782 151 790 q 136 758 136 774 l 136 747 q 142 722 138 740 q 153 683 147 704 q 163 644 158 663 q 171 619 168 625 q 178 592 174 608 q 192 558 183 575 q 211 529 200 542 q 238 514 222 517 q 360 515 300 518 q 483 497 421 511 q 500 485 500 489 l 500 446 q 495 439 500 442 q 484 434 490 436 q 473 431 478 432 q 467 429 468 429 q 383 421 424 422 q 299 418 342 419 q 265 401 276 413 q 253 365 253 389 q 276 224 253 290 q 283 211 278 221 q 294 190 288 201 q 305 169 300 179 q 310 156 310 158 q 311 132 311 138 q 308 100 311 117 q 297 70 304 83 q 277 48 290 57 q 246 39 264 39 q 199 72 213 39 q 195 81 197 75 q 193 89 193 88 q 192 104 193 92 q 190 131 192 117 q 188 158 189 146 q 188 172 188 169 q 184 194 188 176 q 176 233 181 211 q 166 278 171 256 q 158 313 161 300 q 156 320 158 314 q 153 329 154 326 q 149 342 153 332 q 140 363 144 351 q 131 383 135 374 q 125 396 126 393 q 123 411 125 399 q 119 438 121 424 q 115 465 117 453 q 114 479 114 476 q 112 490 114 482 q 108 503 110 499 q 100 529 107 508 q 86 575 93 550 q 72 621 79 600 q 64 647 65 642 q 60 663 63 650 q 53 692 57 676 q 46 720 49 707 q 42 736 43 733 q 35 751 40 739 q 26 777 31 763 q 17 804 21 792 q 14 821 14 817 l 14 839 z "},"G":{"ha":764,"x_min":14,"x_max":750,"o":"m 600 39 q 599 60 599 43 l 599 81 q 610 187 599 135 q 622 293 622 239 l 622 329 q 594 356 614 346 q 552 370 575 365 q 506 377 529 375 q 468 379 483 379 q 435 374 450 379 q 401 368 421 368 l 376 368 q 352 395 361 381 q 343 429 343 410 q 367 474 343 463 q 418 486 390 486 q 542 478 481 486 q 667 463 603 471 q 717 407 706 449 l 717 390 q 717 367 717 379 q 718 342 718 354 l 718 326 l 718 304 q 717 279 718 292 q 717 257 717 267 l 717 246 q 711 217 715 238 q 703 173 707 196 q 694 129 699 150 q 689 100 690 108 q 688 92 689 99 q 688 83 688 86 q 694 47 688 64 q 700 11 700 31 q 688 -13 700 -4 q 660 -22 675 -22 q 622 -1 638 -22 q 600 39 607 21 m 14 333 q 42 520 14 425 q 123 699 71 615 q 249 846 175 782 q 415 938 324 910 l 482 938 q 561 930 515 938 q 649 904 607 922 q 721 856 692 886 q 750 781 750 825 q 729 726 750 749 q 676 703 708 703 q 653 713 664 703 q 632 735 642 722 q 613 760 622 747 q 594 781 604 774 q 581 788 590 783 q 560 796 571 792 q 538 803 549 800 q 521 808 526 807 l 508 808 q 490 809 500 808 q 472 810 481 810 l 460 810 l 421 810 q 362 803 392 810 q 315 769 332 797 q 309 758 314 767 q 299 738 304 749 q 288 719 293 728 q 282 708 283 710 q 260 680 274 694 q 231 651 246 665 q 202 625 215 638 q 181 603 189 613 q 124 476 140 549 q 108 338 108 404 q 161 162 108 218 q 335 106 214 106 q 379 111 357 106 q 423 123 401 117 q 466 135 444 129 q 511 140 488 140 q 538 131 526 140 q 550 106 550 121 q 522 64 550 81 q 458 37 494 47 q 387 22 422 26 q 336 17 351 17 q 95 93 176 17 q 14 333 14 169 z "},"H":{"ha":547,"x_min":14,"x_max":533,"o":"m 81 78 q 72 444 89 265 q 14 804 54 622 l 14 888 q 29 908 14 904 q 54 911 44 911 q 84 895 75 911 q 97 860 93 879 q 104 815 99 847 q 116 745 110 782 q 128 676 122 708 q 136 631 133 643 q 142 588 140 613 q 151 542 144 564 q 170 502 157 519 q 210 481 183 485 q 227 477 215 479 q 251 474 239 475 q 274 471 264 472 q 288 469 285 469 q 303 469 289 469 q 325 468 318 468 q 356 469 339 468 q 389 475 374 469 q 417 490 404 481 q 433 519 429 500 q 438 583 438 557 q 439 646 439 610 q 411 860 439 751 q 393 906 404 883 q 382 956 382 929 q 428 1000 382 1000 q 466 982 453 1000 q 489 943 479 964 q 522 782 510 858 q 533 618 533 706 l 533 569 l 500 224 l 500 208 q 505 183 500 194 q 516 162 510 172 q 528 140 522 151 q 533 114 533 128 q 478 61 533 61 q 428 83 447 61 q 404 133 410 106 l 404 199 q 406 274 404 242 q 417 351 407 306 q 406 376 415 367 q 382 386 396 386 q 298 381 340 386 q 215 374 256 376 q 190 359 204 371 q 176 335 176 347 l 176 144 q 181 116 181 128 q 182 89 182 104 q 170 48 182 68 q 133 28 158 28 q 99 43 111 28 q 81 78 86 58 z "},"I":{"ha":201,"x_min":13,"x_max":188,"o":"m 64 156 l 64 213 q 73 378 64 296 q 82 543 82 460 l 82 557 q 81 578 82 567 q 81 600 81 590 l 81 615 q 58 659 69 639 q 35 699 46 679 q 19 742 25 719 q 13 792 13 764 q 17 825 13 806 q 31 861 22 844 q 54 890 40 878 q 86 901 68 901 q 124 884 108 901 q 148 840 139 867 q 162 781 157 814 q 169 718 167 749 q 172 663 171 688 q 176 626 174 638 l 176 604 q 177 572 176 589 q 178 538 178 554 l 178 517 q 168 362 178 438 q 158 207 158 286 q 163 182 158 193 q 173 160 168 171 q 183 138 178 149 q 188 114 188 126 q 176 86 188 96 q 147 76 164 76 q 90 100 113 76 q 64 156 68 124 z "},"J":{"ha":669,"x_min":14,"x_max":656,"o":"m 14 169 q 15 206 14 183 q 23 251 17 229 q 40 290 29 274 q 71 307 51 307 q 103 287 94 307 q 114 246 113 267 q 115 227 114 240 q 115 199 115 214 q 115 169 115 183 q 114 150 114 156 q 186 106 142 118 q 271 94 231 94 q 347 107 306 94 q 415 128 388 119 q 476 196 463 144 q 478 215 478 199 l 478 238 l 478 260 q 476 279 478 278 q 474 299 476 285 q 469 328 472 313 q 464 358 467 344 q 460 379 461 372 q 451 417 458 386 q 433 487 443 449 q 414 563 424 525 q 399 619 404 600 q 362 702 386 667 q 310 775 338 738 q 292 805 300 789 q 271 832 285 821 q 234 853 251 846 q 200 869 217 861 q 167 889 183 878 q 131 921 150 900 q 126 930 126 926 q 125 940 125 933 q 138 968 125 958 q 167 978 150 978 q 205 972 186 978 q 241 957 224 965 q 277 941 258 949 q 315 932 296 933 l 617 915 q 646 901 636 914 q 656 872 656 889 l 656 860 q 644 844 653 853 q 633 835 636 835 l 449 835 q 431 822 442 835 q 421 804 421 810 l 421 797 q 427 790 422 796 q 432 781 432 783 q 506 599 481 692 q 556 407 532 507 q 569 324 567 364 q 572 240 572 285 l 572 168 q 529 83 561 115 q 455 31 497 50 q 364 6 413 13 q 269 0 315 0 q 179 6 225 0 q 97 29 133 11 q 37 81 60 47 q 14 169 14 114 z "},"K":{"ha":664,"x_min":14,"x_max":650,"o":"m 533 -39 l 221 386 q 209 400 213 397 q 196 403 206 403 q 175 386 179 403 q 169 358 171 369 q 166 327 168 349 q 161 283 164 306 q 156 240 158 260 q 153 213 154 219 q 152 197 153 210 q 150 168 151 183 q 148 140 149 153 q 147 124 147 126 q 133 75 144 100 q 92 50 121 50 q 67 58 76 50 q 54 76 58 65 q 49 100 50 88 q 47 124 47 113 l 47 151 q 53 199 49 165 q 61 272 57 233 q 69 344 65 310 q 75 392 74 378 l 75 399 q 76 415 75 406 q 76 435 76 425 l 76 450 q 65 622 76 538 q 36 793 54 706 q 22 842 31 818 q 14 893 14 867 q 22 928 14 913 q 53 944 29 944 q 87 934 72 944 q 112 908 101 924 q 128 873 122 892 q 136 838 133 854 q 140 800 138 826 q 147 744 143 774 q 153 689 150 715 q 158 653 157 663 q 174 638 165 644 q 193 631 182 632 q 222 660 201 639 q 265 703 242 681 q 308 747 288 726 q 338 776 329 768 q 365 803 350 789 q 398 828 381 817 q 434 848 415 840 q 471 856 453 856 q 499 848 486 856 q 511 822 511 840 q 503 794 511 807 q 482 771 494 781 q 419 720 449 743 q 364 673 390 697 q 312 621 338 649 q 260 558 286 593 q 247 522 247 539 q 248 513 247 515 q 254 503 249 510 l 594 51 q 632 -8 614 24 q 650 -75 650 -40 q 638 -110 650 -93 q 606 -128 625 -128 q 578 -117 590 -128 q 558 -92 567 -107 q 542 -62 549 -78 q 533 -39 536 -47 z "},"L":{"ha":435,"x_min":14,"x_max":421,"o":"m 31 56 q 30 77 31 61 q 29 97 29 93 q 30 122 29 106 q 31 139 31 138 q 34 171 31 146 q 42 225 38 196 q 49 280 46 254 q 53 313 53 306 q 53 331 53 315 q 54 367 54 347 l 54 407 l 54 440 l 54 467 l 54 503 q 53 535 54 521 q 53 551 53 549 l 14 936 l 14 960 q 31 1010 14 989 q 79 1032 47 1032 q 113 1021 99 1032 q 136 992 126 1010 q 137 978 136 989 q 138 964 138 967 q 134 908 138 935 q 131 851 131 881 q 133 719 131 785 q 147 590 136 654 l 147 285 q 144 259 146 278 q 139 220 142 240 q 134 181 136 200 q 131 156 132 163 l 131 147 q 147 115 131 129 q 181 100 164 100 q 224 106 203 100 q 267 117 246 111 q 309 129 288 124 q 353 135 331 135 q 399 116 376 135 q 421 72 421 97 q 412 44 421 57 q 388 28 403 32 q 327 28 357 32 q 267 17 297 24 q 206 6 236 11 q 144 0 175 0 l 97 0 q 56 19 78 6 q 31 56 35 33 z "},"M":{"ha":1093,"x_min":14,"x_max":1079,"o":"m 64 94 q 30 439 46 268 q 14 785 14 610 q 28 841 14 817 q 78 865 42 865 q 110 858 99 865 q 131 831 121 850 q 132 811 132 828 l 132 792 q 123 728 132 758 q 114 664 114 697 l 114 649 q 122 636 114 636 l 125 636 q 134 638 128 636 q 142 642 140 640 q 160 692 150 664 q 185 747 171 719 q 217 796 199 774 q 260 831 235 818 q 274 832 261 832 l 288 832 q 331 823 310 832 q 369 799 351 814 q 402 764 388 783 q 426 725 417 744 q 442 694 432 714 q 461 653 451 674 q 478 617 471 633 q 488 597 486 601 q 498 569 490 592 q 515 522 506 547 q 533 474 525 496 q 543 446 540 451 q 549 436 547 438 q 557 435 550 435 q 583 457 576 435 l 594 542 q 601 567 594 543 q 618 624 608 592 q 638 692 628 657 q 656 747 649 726 q 670 791 661 768 q 693 833 679 814 q 726 864 707 851 q 769 876 744 876 q 840 853 811 876 q 894 797 868 831 q 956 696 933 749 q 992 588 979 643 q 1009 475 1004 533 q 1018 357 1014 417 q 1042 229 1022 294 q 1079 106 1061 164 l 1079 89 q 1071 58 1079 72 q 1043 44 1063 44 q 1009 60 1022 44 q 990 94 996 75 l 951 235 q 945 286 950 249 q 935 365 940 324 q 924 444 929 407 q 918 497 919 482 q 888 625 907 564 q 822 736 868 686 q 804 758 815 744 q 778 771 793 771 q 753 754 761 771 q 739 725 744 738 q 667 440 686 586 q 650 146 647 293 q 646 120 649 135 q 638 92 643 106 q 622 70 632 79 q 599 61 613 61 q 550 100 560 61 l 454 429 q 423 506 436 467 q 394 584 410 546 q 358 657 379 622 q 304 719 338 692 q 300 720 303 719 q 296 721 297 721 q 272 710 282 721 q 256 686 263 700 q 244 658 249 672 q 238 636 240 644 q 192 438 210 536 q 175 235 175 339 l 175 185 q 185 157 179 169 q 196 133 190 144 q 206 108 201 121 q 210 79 210 96 q 205 42 210 64 q 190 0 200 21 q 165 -35 181 -21 q 131 -50 150 -50 q 98 -31 111 -50 q 81 6 85 -11 q 77 24 79 11 q 73 51 75 36 q 68 78 71 65 q 64 94 65 90 z "},"N":{"ha":786,"x_min":14,"x_max":774,"o":"m 14 779 q 15 853 14 822 q 19 931 15 885 q 34 954 22 943 q 58 965 46 965 q 95 947 82 965 q 115 903 108 928 q 126 853 122 878 q 136 814 131 828 l 326 396 q 333 381 326 394 q 351 351 340 368 q 371 316 361 333 q 388 290 381 299 q 417 247 399 271 q 457 201 435 222 q 505 165 479 179 q 557 150 531 150 q 625 179 599 150 q 665 249 651 208 q 684 335 679 290 q 689 410 689 379 l 689 474 q 685 545 688 494 q 681 653 683 596 q 676 760 678 710 q 672 831 674 811 q 665 873 669 853 q 660 914 660 893 q 660 925 660 917 q 661 936 661 933 q 674 943 668 943 l 689 943 q 712 934 703 943 q 726 912 721 925 q 735 884 732 899 q 739 858 738 869 q 749 793 743 833 q 760 713 754 753 q 769 644 765 674 q 772 614 772 615 l 772 594 q 773 557 772 578 q 774 514 774 536 l 774 479 l 774 453 q 773 413 774 433 q 772 372 772 392 l 772 346 q 756 251 768 303 q 722 155 744 200 q 662 80 699 110 q 571 50 625 50 q 499 63 535 50 q 433 99 464 76 q 376 149 401 121 q 332 206 350 176 q 303 251 321 222 q 267 310 285 281 q 235 363 249 340 q 221 390 222 386 q 206 421 217 399 q 184 468 196 443 q 162 515 172 493 q 147 546 151 538 q 142 551 147 551 q 139 553 140 553 q 122 542 125 553 q 119 519 119 531 q 134 329 119 424 q 149 139 149 235 l 149 108 q 140 58 149 82 q 100 33 131 33 q 76 42 86 33 q 58 61 65 50 q 46 92 50 71 q 40 141 42 114 q 37 197 38 168 q 36 250 36 225 l 36 307 l 36 424 q 24 600 33 513 q 14 779 14 688 z "},"O":{"ha":631,"x_min":13,"x_max":617,"o":"m 14 168 l 14 188 q 13 219 14 203 q 13 250 13 236 l 13 271 q 21 435 13 347 q 49 609 29 522 q 101 776 68 696 q 182 921 133 857 q 196 939 185 925 q 222 971 207 953 q 250 1006 236 989 q 271 1032 264 1024 q 315 1065 292 1058 q 371 1072 339 1072 q 426 1065 404 1072 q 463 1041 449 1057 q 488 1002 478 1025 q 506 949 497 979 l 594 760 q 613 688 610 726 q 617 614 617 650 q 603 476 617 539 q 567 357 590 414 q 508 246 543 300 q 432 133 474 192 q 380 81 408 107 q 319 35 351 56 q 252 1 288 14 q 179 -11 217 -11 q 117 5 146 -11 q 65 46 88 21 q 30 103 43 71 q 14 168 17 135 m 97 254 q 101 205 97 233 q 115 151 106 176 q 142 107 125 125 q 188 89 160 89 q 245 105 215 89 q 306 147 275 121 q 365 204 336 172 q 417 268 393 236 q 458 330 440 300 q 483 379 475 360 q 514 493 506 438 q 522 611 522 549 q 490 768 522 694 q 410 910 457 842 q 390 931 404 918 q 363 943 375 943 q 331 935 346 943 q 304 915 315 926 q 206 783 243 860 q 147 623 168 707 q 115 452 125 539 q 97 290 104 365 l 97 254 z "},"P":{"ha":785,"x_min":-82,"x_max":771,"o":"m 225 301 q 210 332 221 318 q 190 358 200 346 q 171 385 179 371 q 163 415 163 399 l 163 421 q 164 429 163 428 q 172 443 167 433 q 181 465 176 453 q 191 487 186 476 q 197 501 196 497 l 197 532 q 185 642 197 588 q 174 750 174 696 q 182 787 174 771 q 214 803 190 803 q 239 794 228 803 q 257 772 250 785 q 269 745 264 760 q 275 719 274 731 q 276 705 275 717 q 278 680 276 693 q 280 655 279 667 q 281 640 281 643 q 283 619 281 635 q 288 588 285 604 q 293 556 290 571 q 297 535 296 540 q 316 509 301 517 q 347 501 331 501 q 496 532 428 501 q 632 601 564 563 q 662 629 647 617 q 676 663 676 642 q 649 742 676 701 q 583 819 622 783 q 499 880 543 854 q 419 914 454 906 l 407 914 l 386 914 l 365 914 l 353 914 q 345 916 351 914 q 336 919 339 918 q 311 931 331 922 q 286 942 292 939 l 164 942 q 148 931 156 942 q 131 908 140 921 q 111 885 122 896 q 86 875 100 875 q 38 877 67 875 q -17 888 10 879 q -62 913 -43 896 q -82 958 -82 929 q -65 1002 -82 988 q -25 1022 -49 1017 q 24 1028 -1 1028 q 68 1031 50 1029 q 76 1031 69 1031 q 91 1033 83 1032 q 105 1035 99 1035 q 113 1036 111 1036 q 126 1037 114 1036 q 154 1038 139 1038 l 185 1038 l 210 1038 q 351 1028 281 1038 q 485 994 421 1018 q 605 930 549 969 q 704 831 661 890 q 753 747 736 786 q 771 654 771 707 q 768 604 771 625 q 749 557 765 583 q 710 522 738 539 q 652 491 683 506 q 590 465 621 476 q 542 446 560 453 q 524 438 536 443 q 498 429 511 433 q 474 422 485 425 q 458 418 463 419 q 422 411 446 414 q 376 402 399 408 q 336 384 353 396 q 319 351 319 372 q 328 235 319 293 q 338 119 338 178 l 338 106 q 337 85 338 96 q 336 64 336 74 l 336 50 q 322 25 329 33 q 299 17 315 17 q 265 30 274 17 q 253 67 256 43 q 247 113 251 79 q 239 183 243 146 q 231 254 235 221 q 225 301 226 288 z "},"Q":{"ha":814,"x_min":14,"x_max":801,"o":"m 524 129 l 517 129 q 510 128 511 129 q 243 28 393 28 l 197 28 q 115 76 149 40 q 58 157 81 111 q 24 253 35 203 q 14 349 14 304 q 67 582 14 475 q 215 769 119 689 q 264 802 239 789 q 315 831 289 815 q 342 861 333 842 q 360 899 351 881 q 381 930 368 917 q 421 943 393 943 q 457 936 442 943 q 488 914 472 929 q 569 842 528 879 q 642 761 610 804 q 696 669 675 718 q 717 561 717 619 q 708 447 717 503 q 678 335 699 390 q 664 307 674 322 q 645 275 654 292 q 628 243 636 258 q 621 215 621 228 q 626 195 621 204 q 639 179 632 186 q 656 158 644 172 q 678 130 667 144 q 699 103 689 115 q 711 89 708 92 q 724 75 714 86 q 747 50 735 64 q 770 25 760 36 q 783 11 781 14 q 798 -5 794 -1 q 801 -22 801 -8 q 791 -53 801 -40 q 761 -67 781 -67 q 715 -53 738 -67 q 678 -22 693 -39 q 657 1 674 -18 q 622 42 640 19 q 586 83 603 64 q 565 106 569 101 q 547 124 554 118 q 524 129 539 129 m 108 386 q 113 312 108 357 q 133 224 118 267 q 174 152 147 182 q 243 122 200 122 q 297 128 261 122 q 370 147 333 135 q 434 177 407 160 q 461 217 461 194 q 443 255 461 242 q 404 279 425 268 q 365 304 383 290 q 347 344 347 318 q 363 374 347 364 q 396 385 378 385 q 440 372 418 385 q 480 343 461 358 q 515 315 499 328 q 543 301 531 301 q 582 331 565 301 q 610 399 599 360 q 628 474 622 438 q 633 528 633 511 q 620 608 633 571 q 585 678 607 646 q 534 740 563 711 q 476 797 506 769 q 471 801 475 799 q 465 803 467 803 l 463 803 q 453 797 458 803 q 449 786 449 790 q 451 776 449 785 q 454 764 454 767 q 455 754 454 763 q 456 742 456 746 q 444 713 456 724 q 415 703 433 703 q 378 711 396 703 q 340 719 360 719 q 260 686 293 719 q 153 551 197 628 q 108 386 108 475 z "},"R":{"ha":810,"x_min":-75,"x_max":796,"o":"m 354 436 q 335 423 343 436 q 326 400 326 410 q 330 334 326 367 q 333 268 333 301 q 328 153 333 208 q 326 39 324 99 q 311 20 321 24 q 286 17 301 17 q 251 35 263 17 q 238 72 240 53 q 237 126 238 88 q 235 206 236 164 q 233 287 233 249 q 232 340 232 325 l 232 346 q 229 372 232 351 q 224 416 226 392 q 218 460 221 440 q 215 486 215 481 l 215 535 l 215 619 l 215 704 l 215 754 q 209 824 214 790 q 204 894 204 858 q 218 942 204 922 q 263 961 232 961 q 301 940 292 961 q 311 896 311 919 q 308 824 311 860 q 304 751 304 788 l 304 726 q 306 710 304 722 q 309 684 307 697 q 313 658 311 671 q 315 642 315 646 q 343 614 322 621 q 451 670 396 636 q 550 738 506 704 q 610 801 585 764 q 635 882 635 838 q 614 945 635 917 q 563 993 593 974 q 495 1023 532 1013 q 428 1033 458 1033 l 176 1033 q 115 1022 147 1033 q 58 994 82 1011 q 41 975 49 988 q 26 951 33 963 q 8 930 18 939 q -17 921 -3 921 q -40 928 -29 921 q -58 947 -50 936 q -71 972 -67 958 q -75 996 -75 985 q -54 1053 -75 1028 q -3 1094 -33 1078 q 60 1119 26 1111 q 121 1128 94 1128 l 450 1128 q 472 1124 458 1128 q 501 1117 486 1121 q 530 1108 517 1113 q 550 1100 543 1103 q 654 1041 613 1076 q 724 943 696 1006 q 727 934 725 940 q 729 926 729 928 l 729 838 q 725 826 729 836 q 718 810 721 815 q 656 713 694 758 q 572 636 618 668 q 535 615 558 626 q 488 590 511 603 q 449 562 465 576 q 432 531 432 547 q 453 499 432 521 q 503 452 475 478 q 558 401 532 426 q 594 357 585 375 q 616 318 599 349 q 653 251 633 288 q 691 185 674 215 q 713 146 708 154 q 737 109 722 126 q 765 74 751 92 q 787 35 778 56 q 796 -7 796 15 q 794 -31 796 -22 q 779 -50 792 -40 q 769 -51 776 -50 q 760 -51 763 -51 q 748 -51 756 -51 q 739 -49 740 -50 q 724 -36 738 -49 q 707 -17 711 -24 q 691 5 703 -11 q 667 38 679 21 q 643 72 654 56 q 628 94 632 88 q 579 177 603 135 q 530 259 556 219 q 474 335 504 299 q 406 403 444 372 q 386 417 401 406 q 367 431 371 428 q 360 434 364 432 q 354 436 356 436 z "},"S":{"ha":708,"x_min":13,"x_max":694,"o":"m 86 119 q 92 151 86 132 q 107 190 97 171 q 129 222 117 208 q 157 235 142 235 q 193 218 181 235 q 193 172 189 186 q 221 139 197 158 l 265 139 l 306 139 q 388 141 339 139 q 481 151 436 143 q 558 172 526 158 q 589 210 589 186 q 578 246 589 228 q 553 278 568 264 q 519 305 538 293 q 488 324 501 317 l 108 507 q 42 561 71 526 q 13 639 13 596 q 40 716 13 685 q 108 769 68 747 q 193 804 149 790 q 271 831 238 818 q 353 860 317 849 q 439 871 389 871 q 481 855 463 871 q 500 814 500 839 q 481 753 500 782 q 426 725 461 725 q 387 736 404 725 q 349 747 369 747 q 300 740 325 747 q 254 725 275 732 q 219 713 242 721 q 174 695 196 706 q 135 672 151 685 q 119 642 119 658 q 133 615 119 628 q 153 597 146 603 q 169 586 157 594 q 195 567 181 578 q 223 548 210 557 q 243 535 236 539 q 254 529 246 533 q 265 524 263 525 q 343 496 299 511 q 435 460 388 481 q 530 415 483 440 q 613 357 576 389 q 672 286 649 325 q 694 200 694 247 q 659 115 694 151 q 578 67 624 78 q 396 47 486 60 q 214 33 306 33 q 171 38 193 33 q 130 51 149 42 q 99 78 111 61 q 86 119 86 94 z "},"T":{"ha":818,"x_min":14,"x_max":901,"o":"m 310 458 q 313 483 311 464 q 315 508 315 501 q 316 540 315 514 q 318 597 317 567 q 320 653 319 626 q 321 686 321 679 q 324 708 321 690 q 326 731 326 726 l 326 740 q 313 772 326 753 q 288 790 300 790 l 92 790 q 67 796 81 790 q 41 810 53 801 q 22 832 29 819 q 14 857 14 844 q 28 891 14 876 q 60 915 42 906 q 100 928 79 924 q 135 933 121 933 q 173 926 156 933 q 206 910 190 919 q 240 894 222 901 q 278 888 257 888 q 334 899 308 888 q 389 910 360 910 q 447 899 421 910 q 503 888 472 888 q 621 897 563 888 q 739 906 679 906 l 757 906 q 784 905 769 906 q 811 904 799 904 l 829 904 q 881 880 860 899 q 901 829 901 861 q 899 805 901 814 q 885 788 896 796 q 875 787 882 788 q 865 786 868 786 q 830 792 844 786 q 796 810 815 799 l 731 810 l 667 810 q 638 808 658 810 q 594 803 617 806 q 551 797 571 800 q 522 793 531 794 q 490 781 508 789 q 456 761 472 772 q 429 735 440 750 q 418 703 418 721 l 418 446 l 410 401 l 410 150 q 420 108 418 124 q 422 68 422 92 q 414 26 422 43 q 378 10 406 10 q 343 27 357 10 q 322 69 329 44 q 313 117 315 93 q 310 156 310 142 l 310 458 z "},"U":{"ha":642,"x_min":14,"x_max":628,"o":"m 14 453 q 18 589 14 524 q 19 725 22 654 q 31 756 24 738 q 49 789 39 774 q 74 815 60 804 q 104 826 88 826 q 147 804 133 826 q 160 757 160 782 q 145 693 160 722 q 125 631 131 664 q 113 500 117 564 q 108 369 108 436 l 108 363 q 113 330 110 351 q 121 286 117 308 q 128 246 125 264 q 131 224 131 228 q 141 185 133 208 q 160 141 149 163 q 189 104 172 119 q 226 89 206 89 q 254 94 239 89 q 285 106 269 99 q 314 120 300 113 q 338 133 328 128 q 349 142 340 136 q 360 151 357 149 q 500 345 456 239 q 544 582 544 451 q 531 648 544 619 q 499 703 517 676 q 468 754 482 729 q 454 811 454 779 q 467 842 454 829 q 497 854 479 854 q 522 845 511 854 q 540 824 532 836 q 555 798 549 811 q 567 776 561 785 q 594 724 582 747 q 613 676 606 700 q 624 628 621 653 q 628 569 628 603 q 623 468 628 518 q 606 368 618 418 l 600 351 q 537 233 574 297 q 452 115 500 169 q 346 25 404 61 q 217 -11 288 -11 q 139 15 171 -11 q 84 83 107 42 q 47 177 61 125 q 26 281 33 229 q 17 378 19 332 q 14 453 14 424 z "},"V":{"ha":658,"x_min":14,"x_max":646,"o":"m 19 597 q 15 625 17 614 q 14 651 14 636 q 28 685 14 671 q 61 699 42 699 q 91 688 79 699 q 109 661 103 676 q 119 628 115 646 q 125 597 122 611 q 140 533 131 574 q 160 453 150 493 q 178 383 171 414 q 188 346 186 351 q 193 328 188 343 q 206 294 199 313 q 220 257 213 275 q 232 229 228 239 q 250 192 238 217 q 279 143 263 167 q 314 101 296 119 q 349 83 332 83 q 384 101 367 83 q 415 144 401 119 q 440 194 429 169 q 454 235 450 219 q 500 397 478 314 q 522 564 522 481 q 519 624 522 594 q 515 683 515 653 l 515 701 q 517 719 515 717 q 532 744 521 729 q 556 758 543 758 l 617 758 q 639 744 632 758 q 646 718 646 729 q 641 683 646 697 q 622 647 636 668 q 622 618 622 639 q 619 574 621 597 q 617 531 618 551 q 617 503 617 511 q 615 486 617 499 q 611 469 613 474 q 597 418 607 454 q 577 341 588 382 q 558 263 567 300 q 544 213 549 226 q 504 117 522 164 q 460 22 486 71 q 416 -21 435 -8 q 363 -33 397 -33 q 288 -10 324 -33 q 223 47 253 13 q 171 120 193 82 q 136 190 149 158 q 124 223 132 201 q 108 267 117 244 q 94 307 100 289 q 86 329 88 325 q 72 382 82 344 q 51 463 63 419 q 31 544 40 506 q 19 597 22 582 z "},"W":{"ha":1026,"x_min":14,"x_max":1013,"o":"m 407 201 l 404 201 q 360 151 376 181 q 326 97 343 122 q 285 52 310 71 q 218 33 261 33 q 145 56 174 33 q 86 111 117 79 q 46 188 58 142 q 31 274 33 233 q 19 494 25 383 q 14 714 14 604 q 22 757 14 738 q 58 776 31 776 q 84 767 72 776 q 103 744 96 757 q 115 715 111 731 q 119 686 119 699 l 119 667 l 119 636 l 119 604 l 119 586 q 120 528 119 569 q 122 440 121 486 q 124 353 124 394 q 125 296 125 313 q 133 253 126 279 q 149 203 139 228 q 176 162 160 179 q 215 144 193 144 q 259 165 238 144 q 299 215 281 186 q 330 272 317 243 q 349 318 343 301 q 354 334 350 322 q 363 360 358 346 q 371 387 367 374 q 376 407 375 400 q 381 446 381 421 q 382 484 381 464 q 389 521 383 504 q 405 548 394 538 q 435 558 415 558 q 465 548 454 558 q 482 519 475 538 q 483 414 481 467 q 497 311 485 361 q 535 217 510 261 q 606 139 560 174 q 615 133 607 138 q 631 124 622 129 q 650 116 640 119 q 667 111 660 113 l 708 111 q 827 135 783 111 q 894 201 871 160 q 923 299 917 243 q 929 421 929 356 q 909 625 929 526 q 844 819 889 724 l 844 844 q 853 883 844 868 q 889 899 863 899 q 918 878 903 899 q 946 831 933 857 q 967 778 958 804 q 979 742 976 751 q 984 718 981 736 q 992 678 988 700 q 1000 638 996 657 q 1007 608 1004 618 q 1010 587 1008 601 q 1013 569 1013 572 l 1013 307 q 996 215 1013 258 q 957 128 979 171 q 909 69 938 92 q 847 34 881 47 q 776 16 813 21 q 703 11 739 11 l 639 11 q 576 34 606 18 q 522 72 547 50 q 496 102 513 81 q 462 145 479 124 q 429 184 444 167 q 407 201 414 201 z "},"X":{"ha":653,"x_min":14,"x_max":639,"o":"m 321 413 q 308 428 317 419 q 290 436 299 436 q 280 430 286 436 q 267 416 274 424 q 256 401 261 408 q 249 390 250 393 q 206 322 228 357 q 163 251 183 288 q 124 177 142 215 q 97 100 107 139 q 81 83 89 89 q 58 78 72 78 q 24 98 33 78 q 14 140 14 118 q 24 199 14 169 q 48 255 33 228 q 78 308 63 282 q 108 357 94 333 q 131 392 114 367 q 166 447 147 418 q 202 501 185 475 q 226 536 219 526 q 234 551 231 543 q 238 569 238 560 q 226 608 238 589 l 53 865 q 44 888 46 876 q 42 910 42 899 q 86 954 42 954 q 123 943 108 954 q 149 916 138 932 q 169 881 160 900 q 188 849 178 863 q 201 829 190 844 q 225 795 211 814 q 251 758 239 776 q 271 731 264 740 q 281 720 278 722 q 294 718 283 718 q 301 719 297 718 q 404 821 304 719 l 418 821 q 449 812 443 821 q 456 779 456 803 q 448 732 456 756 q 428 687 440 708 q 404 644 417 665 q 382 603 392 622 q 377 590 378 594 q 376 578 376 585 q 378 563 376 568 q 382 547 379 558 l 517 168 q 533 127 524 144 q 561 94 543 110 q 584 85 571 86 q 610 83 597 85 q 631 76 622 82 q 639 51 639 69 q 616 1 639 24 q 564 -22 593 -22 q 506 -3 531 -22 q 461 44 481 15 q 428 104 442 72 q 404 163 414 136 l 321 413 z "},"Y":{"ha":686,"x_min":14,"x_max":672,"o":"m 338 411 q 340 469 338 440 q 343 528 343 499 q 319 558 343 542 q 263 590 294 575 q 203 617 232 604 q 164 636 174 629 q 118 674 144 649 q 69 731 92 700 q 30 794 46 763 q 14 853 14 826 q 30 892 14 874 q 67 910 46 910 q 114 887 97 910 q 145 833 131 864 q 177 769 160 801 q 226 719 194 738 q 242 711 232 717 q 263 700 251 706 q 285 690 274 694 q 307 686 297 686 q 341 692 325 686 q 376 697 357 697 q 405 694 392 697 q 433 692 418 692 q 492 728 464 692 q 542 811 521 764 q 576 906 564 858 q 589 974 589 953 q 585 1001 589 989 q 582 1029 582 1014 q 590 1060 582 1050 q 619 1071 597 1071 l 633 1071 q 656 1051 649 1060 q 667 1033 664 1042 q 672 1012 671 1024 q 672 983 672 1000 q 658 883 672 932 q 628 786 643 835 q 608 731 619 761 q 578 681 597 700 l 522 625 q 476 592 501 607 q 443 547 451 576 l 443 449 q 447 309 443 378 q 471 172 451 240 q 498 129 479 149 q 517 82 517 110 q 499 40 517 58 q 457 22 481 22 q 424 34 438 22 q 399 63 410 46 q 382 99 389 81 q 371 133 375 118 q 344 271 351 201 q 338 411 338 340 z "},"Z":{"ha":949,"x_min":14,"x_max":1181,"o":"m 631 22 q 529 17 579 22 q 428 11 479 11 l 388 11 q 363 15 383 11 q 315 22 342 18 q 263 31 289 26 q 221 39 236 36 q 160 55 192 44 q 104 82 129 65 q 63 123 79 99 q 46 182 46 147 q 55 230 46 207 q 78 274 64 253 q 109 315 92 296 q 142 351 126 335 l 365 585 q 388 610 374 593 q 415 648 401 628 q 438 686 428 668 q 449 714 449 704 l 449 719 l 426 742 l 396 742 q 277 738 342 742 q 164 731 213 735 q 151 728 161 731 q 128 722 140 725 q 105 717 115 719 q 92 714 94 714 q 84 713 90 714 q 75 713 78 713 q 35 724 57 713 q 14 758 14 736 q 31 797 14 782 q 75 819 49 811 q 132 831 101 828 q 189 833 163 833 q 222 834 208 833 q 243 836 236 835 l 521 836 q 574 808 554 836 q 594 751 594 781 q 576 698 594 719 q 538 653 557 676 q 522 632 535 649 q 496 597 510 615 q 469 561 482 578 q 454 540 457 544 q 433 515 449 533 q 398 474 417 496 q 363 434 379 453 q 338 407 346 415 l 265 335 q 254 322 263 332 q 235 300 246 313 q 213 275 224 288 q 197 257 203 263 q 177 232 190 249 q 164 203 164 215 q 175 178 164 189 q 197 161 186 167 q 265 135 235 146 q 323 117 294 124 q 383 108 351 111 q 454 106 414 106 q 584 115 521 106 q 714 124 647 124 l 735 124 q 763 123 749 124 q 786 122 776 122 l 800 122 q 835 121 810 122 q 888 118 860 119 q 940 115 915 117 q 972 111 964 113 q 992 109 978 111 q 1024 104 1007 107 q 1056 99 1040 101 q 1079 94 1072 96 q 1108 88 1090 92 q 1141 78 1125 85 q 1169 62 1157 72 q 1181 33 1181 51 q 1178 13 1181 22 q 1163 0 1176 4 l 1126 0 l 1090 0 q 862 15 971 8 q 631 22 753 22 z "},"[":{"ha":540,"x_min":13,"x_max":526,"o":"m 14 33 q 13 49 14 36 q 13 64 13 61 q 26 147 13 106 q 47 228 40 188 q 55 268 50 242 q 64 322 60 294 q 72 370 68 349 q 75 396 75 392 q 76 422 75 401 q 78 465 76 442 q 80 509 79 489 q 81 535 81 529 q 83 560 81 540 q 86 585 85 579 l 86 914 q 82 961 86 939 q 72 1005 78 983 q 63 1049 67 1026 q 58 1094 58 1071 l 58 1125 q 106 1157 78 1149 q 167 1167 135 1165 q 230 1165 199 1168 q 288 1164 261 1163 q 307 1165 293 1164 q 337 1169 321 1167 q 367 1172 353 1171 q 388 1175 381 1174 q 430 1189 411 1179 q 472 1199 449 1199 q 509 1191 497 1199 q 521 1157 521 1183 q 499 1120 521 1136 q 449 1094 478 1104 q 391 1077 419 1083 q 349 1069 363 1071 q 328 1069 344 1069 q 292 1067 311 1068 q 257 1065 274 1065 q 236 1064 240 1064 q 194 1049 213 1061 q 175 1013 175 1038 q 176 981 175 994 q 181 947 178 967 l 181 468 l 147 189 l 136 139 q 138 129 135 135 q 147 119 142 124 q 159 110 153 114 q 169 106 165 107 l 247 106 q 359 112 306 106 q 467 118 413 118 q 508 106 490 118 q 526 69 526 94 q 502 28 526 42 q 454 11 478 14 q 279 -4 360 3 q 111 -11 199 -11 l 64 -11 q 33 3 49 -11 q 14 33 17 18 z "},"\\":{"ha":749,"x_min":-86,"x_max":824,"o":"m 88 703 q 73 724 83 708 q 51 756 63 739 q 28 788 39 772 q 14 810 18 803 q -19 843 -1 829 q -51 872 -36 857 q -76 905 -67 886 q -86 951 -86 924 q -76 992 -86 974 q -40 1011 -67 1011 q -15 1004 -26 1011 q 8 987 -3 997 q 26 965 18 976 q 42 943 35 953 q 65 910 47 935 q 108 851 83 885 q 159 778 132 817 q 210 706 186 740 q 253 647 235 672 q 276 614 271 622 q 415 441 343 526 q 567 279 488 356 q 581 266 571 275 q 603 247 592 257 q 627 226 615 236 q 644 213 639 217 q 668 194 649 208 q 709 165 688 181 q 750 135 731 149 q 774 117 769 121 q 806 86 789 106 q 824 44 824 67 q 813 16 824 28 q 786 4 803 4 q 765 6 771 4 q 746 17 760 8 q 716 36 735 24 q 677 63 697 49 q 642 87 657 76 q 622 100 626 97 q 601 118 617 104 q 566 148 585 132 q 530 179 547 164 q 506 201 513 194 q 474 233 494 213 q 433 273 453 253 q 397 309 413 293 q 378 329 381 325 l 88 703 z "},"]":{"ha":575,"x_min":14,"x_max":561,"o":"m 53 67 q 78 113 53 97 q 138 136 103 129 q 206 145 172 143 q 260 150 240 147 q 278 154 265 151 q 305 160 290 157 q 332 167 319 164 q 349 174 344 171 q 369 187 363 181 q 382 207 375 193 q 392 363 385 286 q 418 519 400 440 l 418 893 q 433 967 426 931 q 439 1042 439 1003 l 439 1072 q 426 1087 436 1076 q 410 1100 415 1097 l 392 1100 q 269 1092 329 1100 q 147 1083 210 1083 q 109 1084 132 1083 q 65 1090 86 1085 q 29 1108 44 1096 q 14 1144 14 1121 q 28 1177 14 1165 q 63 1189 43 1189 q 97 1186 81 1189 q 131 1183 114 1183 q 276 1190 206 1183 q 418 1196 346 1196 l 438 1196 q 467 1195 451 1196 q 497 1194 483 1194 l 517 1194 q 551 1175 540 1194 q 561 1136 561 1156 l 561 1117 q 558 1106 561 1114 q 556 1094 556 1097 q 544 1026 551 1067 q 531 946 538 985 q 519 878 524 907 q 514 849 514 850 l 514 469 q 508 443 511 463 q 501 402 504 424 q 497 362 499 381 q 494 335 494 343 q 492 287 493 321 q 492 214 492 253 q 492 142 492 176 q 494 94 493 108 q 450 56 479 65 q 417 55 440 56 q 367 53 393 54 q 319 51 342 51 q 288 50 296 50 q 201 36 249 47 q 125 17 154 25 l 114 17 q 71 28 89 17 q 53 67 53 40 z "},"^":{"ha":775,"x_min":14,"x_max":761,"o":"m 14 701 q 25 731 14 717 q 47 751 36 744 q 60 760 51 754 q 81 774 69 767 q 101 788 92 782 q 114 796 110 793 l 393 1031 q 406 1037 400 1038 q 421 1036 413 1036 q 452 1028 438 1036 q 479 1007 467 1019 q 503 981 492 994 q 526 958 515 968 q 553 937 533 953 q 597 902 574 921 q 641 866 619 883 q 672 842 663 849 q 697 824 682 833 q 726 805 713 815 q 751 781 740 794 q 761 751 761 768 q 745 718 761 729 q 710 707 729 707 q 679 714 694 707 q 649 731 664 721 q 621 751 633 740 q 600 768 608 761 q 573 790 594 772 q 527 826 551 807 q 481 864 503 846 q 454 886 460 882 q 434 899 443 894 q 411 903 425 903 q 395 901 401 903 q 382 892 389 900 q 333 849 368 879 q 257 786 297 819 q 181 722 217 753 q 131 679 144 692 q 103 660 117 668 q 71 651 90 651 q 31 665 49 651 q 14 701 14 678 z "},"_":{"ha":536,"x_min":13,"x_max":522,"o":"m 13 -93 q 13 -81 13 -89 q 15 -72 14 -74 q 27 -59 17 -69 q 42 -46 38 -49 q 78 -37 57 -39 q 121 -35 99 -35 q 166 -35 144 -35 q 203 -35 188 -36 q 241 -32 211 -35 q 306 -26 271 -29 q 372 -21 342 -24 q 410 -18 401 -18 q 425 -17 411 -18 q 446 -17 439 -17 q 464 -17 450 -17 q 482 -18 478 -18 q 511 -37 500 -25 q 522 -68 522 -49 q 497 -113 522 -100 q 443 -129 471 -126 q 263 -144 354 -136 q 83 -151 172 -151 q 35 -136 58 -151 q 13 -93 13 -121 z "},"`":{"ha":163,"x_min":11,"x_max":144,"o":"m 11 828 q 12 867 11 844 q 18 910 13 890 q 36 943 24 929 q 72 957 49 957 q 116 935 101 957 q 137 885 131 914 q 144 825 143 856 q 144 776 144 794 l 144 713 q 126 697 138 703 q 103 690 114 690 q 63 708 82 690 q 33 740 44 726 q 14 782 17 761 q 11 828 11 803 z "},"a":{"ha":753,"x_min":14,"x_max":740,"o":"m 14 226 q 35 331 14 275 q 93 433 57 386 q 178 510 129 479 q 279 542 226 542 q 356 517 325 542 q 411 456 388 492 q 455 383 435 421 q 499 318 475 344 q 528 285 507 308 q 574 237 550 263 q 619 188 597 211 q 650 156 642 165 q 674 138 658 147 q 703 119 689 129 q 729 96 718 108 q 740 69 740 83 q 736 49 740 57 q 717 33 732 40 l 689 33 q 650 37 668 33 q 617 56 632 40 l 454 211 q 450 215 454 213 q 443 218 446 217 l 440 218 l 438 218 q 424 211 433 215 q 410 200 414 207 q 403 188 408 197 q 391 169 397 179 q 378 149 385 158 q 371 139 372 140 l 293 61 q 244 40 268 47 q 193 33 221 33 q 120 49 153 33 q 64 90 88 64 q 27 151 40 115 q 14 226 14 186 m 108 228 q 131 164 108 194 q 190 133 154 133 q 263 159 235 133 q 321 218 290 185 q 337 241 331 228 q 343 268 343 254 q 338 288 343 279 q 326 306 332 297 q 314 324 319 314 q 308 346 308 333 q 309 355 308 349 q 310 363 310 361 q 315 379 310 365 q 321 396 321 393 q 305 413 311 407 q 292 422 299 418 q 282 424 286 425 l 181 379 q 148 353 161 371 q 126 315 135 336 q 113 270 117 293 q 108 228 108 247 z "},"b":{"ha":553,"x_min":14,"x_max":540,"o":"m 100 229 l 47 660 q 26 733 39 692 q 14 803 14 774 q 15 828 14 818 q 31 849 17 839 q 40 851 33 850 q 50 851 47 851 q 62 851 54 851 q 69 849 69 850 q 88 833 75 846 q 103 815 100 821 q 150 633 136 726 q 176 447 164 540 q 185 429 178 440 q 201 418 193 418 q 204 419 203 418 q 259 469 228 447 q 329 492 290 492 q 415 459 376 492 q 482 381 454 426 q 525 283 510 335 q 540 194 540 232 q 524 122 540 157 q 481 58 508 86 q 419 12 454 29 q 346 -6 383 -6 q 310 -3 326 -6 q 279 5 294 0 q 247 16 264 10 q 210 28 231 22 q 179 33 197 31 q 143 43 161 36 q 113 62 125 50 q 100 94 100 74 l 100 229 m 236 164 q 246 135 236 147 q 269 116 256 124 q 299 104 283 108 q 329 100 315 100 q 368 108 349 100 q 403 128 388 115 q 429 158 419 140 q 439 196 439 175 q 433 249 439 217 q 413 311 426 281 q 380 364 400 342 q 331 386 360 386 q 295 374 307 386 q 276 344 283 361 q 267 307 269 326 q 260 274 264 288 q 244 219 253 246 q 236 164 236 193 z "},"c":{"ha":669,"x_min":13,"x_max":656,"o":"m 14 294 q 13 338 14 310 q 19 385 13 367 q 49 438 32 415 q 88 479 67 461 q 135 513 110 497 q 188 547 160 529 q 200 553 194 553 l 217 553 q 244 542 233 553 q 265 517 256 532 q 281 488 274 503 q 299 463 289 472 q 325 434 313 447 q 347 408 338 421 q 360 379 356 394 q 365 343 365 364 q 353 288 365 315 q 307 261 340 261 q 265 278 281 261 q 236 316 249 294 q 212 360 224 338 q 182 396 200 383 q 176 397 179 396 q 169 397 172 397 q 138 385 150 397 q 117 355 125 372 q 106 318 110 338 q 103 285 103 299 q 124 212 103 244 q 177 156 144 179 q 249 119 210 132 q 324 106 288 106 q 394 111 358 106 q 465 123 429 117 q 535 135 500 129 q 604 140 569 140 q 640 131 624 140 q 656 100 656 122 q 644 71 656 82 q 617 56 633 60 q 583 48 606 53 q 538 38 561 43 q 496 28 515 32 q 471 22 476 24 q 413 16 442 15 q 354 17 385 17 q 224 31 285 17 q 115 79 163 46 q 41 165 68 113 q 14 294 14 218 z "},"d":{"ha":529,"x_min":14,"x_max":515,"o":"m 335 39 q 280 33 307 39 q 225 26 253 26 q 133 46 172 26 q 67 99 94 65 q 27 176 40 132 q 14 268 14 219 q 68 409 14 364 q 214 457 122 454 q 235 472 226 463 q 243 496 243 482 l 243 501 q 242 507 243 506 q 228 559 238 521 q 208 640 218 597 q 188 722 197 683 q 175 775 179 760 q 157 873 167 815 q 147 975 147 931 q 149 1001 147 988 q 155 1027 150 1015 q 169 1047 160 1039 q 193 1054 178 1054 q 230 1038 219 1054 q 243 1000 240 1022 q 245 953 246 978 q 247 914 244 929 l 360 429 q 367 370 365 400 q 372 310 369 340 q 381 251 375 281 q 399 194 386 221 q 404 182 400 190 q 414 164 408 174 q 424 146 419 154 q 432 133 429 138 q 453 111 439 122 q 481 88 467 100 q 505 63 494 75 q 515 36 515 50 q 497 3 515 13 q 460 -6 479 -6 q 426 1 442 -6 q 397 17 411 8 q 367 32 382 25 q 335 39 351 39 m 108 263 q 153 151 108 192 q 265 111 197 111 q 287 124 275 111 q 299 147 299 136 q 291 201 299 175 q 271 251 283 228 q 256 281 264 263 q 236 315 247 299 q 210 344 225 332 q 178 357 196 357 q 147 348 160 357 q 125 324 133 339 q 113 293 117 310 q 108 263 108 276 z "},"e":{"ha":686,"x_min":14,"x_max":672,"o":"m 14 288 q 31 385 14 338 q 78 470 47 433 q 151 530 108 507 q 247 553 194 553 l 282 553 q 351 544 315 550 q 416 523 386 538 q 465 482 446 508 q 483 413 483 456 q 471 375 483 393 q 440 343 458 357 q 399 321 421 329 q 360 313 378 313 l 164 313 q 151 308 158 313 q 136 296 143 303 q 124 281 129 289 q 119 268 119 274 q 134 221 119 243 q 169 181 149 199 q 215 151 190 163 q 260 133 239 139 q 283 127 268 131 q 312 120 297 124 q 338 114 326 117 q 528 111 349 111 q 574 122 557 119 q 617 124 590 124 q 653 119 633 124 q 672 90 672 114 q 663 62 672 75 q 639 44 654 49 q 619 40 633 43 q 588 33 604 36 q 558 26 572 29 q 539 22 544 24 q 519 19 532 21 q 504 17 507 17 l 315 17 q 302 19 314 17 q 275 26 290 22 q 244 33 260 29 q 221 39 229 36 q 128 91 168 54 q 53 167 89 128 q 22 223 29 193 q 14 288 14 253 m 197 431 l 197 421 q 204 413 197 413 l 338 413 q 344 419 343 413 q 344 428 344 425 q 322 448 344 443 q 278 453 299 453 l 258 453 l 242 453 q 213 449 228 453 q 197 431 197 446 z "},"f":{"ha":474,"x_min":14,"x_max":461,"o":"m 265 56 q 178 172 224 113 q 97 294 133 231 q 38 425 61 357 q 14 568 14 493 q 30 684 14 632 q 78 774 46 736 q 160 832 111 811 q 276 853 210 853 q 365 838 325 853 q 438 786 404 824 q 442 778 439 785 q 449 769 446 772 l 454 758 l 454 692 l 443 679 l 399 679 q 355 730 379 707 q 296 753 331 753 q 153 709 199 753 q 108 569 108 665 q 109 529 108 550 q 115 490 110 508 q 129 455 119 471 q 158 429 139 439 l 249 429 q 298 419 263 429 q 369 394 333 410 q 433 359 406 379 q 461 318 461 339 q 459 298 461 307 q 443 285 457 289 q 432 284 440 285 q 421 283 424 283 q 380 290 400 283 q 340 303 360 296 q 299 317 319 311 q 258 324 279 324 q 236 313 247 324 q 225 290 225 301 q 226 282 225 283 q 231 274 228 281 q 249 243 238 263 q 273 205 261 224 q 294 172 285 186 q 304 156 303 157 q 327 126 315 139 q 349 103 339 114 q 365 79 358 92 q 371 49 371 67 q 360 21 371 31 q 332 11 349 11 q 294 26 311 11 q 265 56 276 42 z "},"g":{"ha":614,"x_min":13,"x_max":600,"o":"m 13 -236 q 13 -221 13 -233 q 14 -206 14 -208 q 36 -173 18 -186 q 74 -160 54 -160 q 104 -194 104 -160 q 103 -207 104 -199 q 103 -217 103 -215 q 100 -231 103 -219 q 97 -244 97 -242 q 110 -278 97 -260 q 131 -306 122 -296 q 304 -385 201 -385 q 374 -378 338 -385 q 439 -356 410 -372 q 487 -313 468 -340 q 506 -244 506 -286 l 506 -239 q 502 -221 504 -233 q 500 -206 500 -208 l 426 57 q 413 73 425 61 q 390 85 400 85 l 388 85 q 311 63 349 74 q 232 51 274 51 q 105 90 157 51 q 53 207 53 129 q 75 289 53 256 q 133 342 97 322 q 212 372 168 363 q 297 381 256 381 q 329 378 315 381 q 360 375 343 375 q 401 384 383 375 q 442 393 418 393 q 488 382 467 393 q 526 353 510 371 q 552 311 543 335 q 561 264 561 288 q 553 231 561 246 q 535 203 544 217 q 518 175 526 189 q 510 143 510 161 q 510 139 510 142 q 511 135 511 136 q 527 72 515 117 q 553 -22 539 28 q 578 -115 567 -71 q 594 -178 590 -160 q 600 -208 600 -199 l 600 -222 l 600 -242 q 560 -383 600 -322 q 443 -479 519 -444 l 360 -479 q 270 -476 310 -479 q 196 -462 231 -474 q 129 -429 161 -451 q 64 -368 97 -407 q 26 -306 40 -340 q 13 -236 13 -272 m 153 199 q 161 173 153 183 q 182 156 169 163 q 209 148 194 150 q 236 146 224 146 q 273 151 249 146 q 322 165 297 156 q 365 188 347 174 q 383 221 383 201 q 374 247 383 235 q 352 265 365 258 q 324 276 339 272 q 297 281 308 281 q 257 275 282 281 q 209 259 232 269 q 169 233 186 249 q 153 199 153 218 z "},"h":{"ha":619,"x_min":14,"x_max":606,"o":"m 290 353 q 243 335 264 353 q 215 290 222 317 q 210 264 214 283 q 204 224 207 244 q 198 183 201 203 q 193 157 194 164 q 185 128 190 144 q 172 99 181 113 q 153 76 164 85 q 125 67 142 67 q 88 85 101 67 q 69 122 75 103 q 55 433 68 282 q 14 743 42 585 l 14 826 q 31 847 14 839 q 58 854 49 854 q 90 833 79 854 q 105 783 100 811 q 111 728 110 754 q 114 692 113 701 q 120 667 115 688 q 130 624 125 647 q 138 582 135 601 q 142 558 142 563 q 144 523 144 544 q 146 481 143 501 q 157 444 149 460 q 185 429 165 429 q 229 441 207 429 q 276 453 251 453 q 368 436 325 453 q 447 391 411 419 q 507 324 482 363 q 544 240 532 285 q 553 181 551 211 q 561 122 554 151 q 572 99 564 111 q 587 76 579 88 q 600 52 594 64 q 606 28 606 40 q 594 -1 606 10 q 565 -11 583 -11 q 544 -8 551 -11 q 522 6 536 -6 q 481 54 493 28 q 463 110 468 81 q 456 171 458 139 q 443 235 453 203 q 420 277 436 256 q 383 315 404 299 q 338 342 363 332 q 290 353 314 353 z "},"i":{"ha":307,"x_min":14,"x_max":293,"o":"m 97 422 q 99 449 97 435 q 107 475 101 463 q 122 495 113 488 q 149 503 132 503 q 176 490 167 503 q 189 460 185 478 q 194 426 193 443 q 199 401 196 410 q 220 310 208 358 q 249 218 232 261 q 276 162 258 190 q 293 104 293 133 q 283 72 293 85 q 253 60 274 60 q 206 82 228 60 q 167 139 185 104 q 137 216 150 174 q 115 299 124 258 q 101 372 106 339 q 97 422 97 406 m 14 822 q 22 856 14 842 q 54 871 31 871 q 98 855 74 871 q 143 815 122 839 q 178 765 164 792 q 193 719 193 739 q 157 686 193 686 q 103 708 128 686 q 58 747 78 731 q 26 780 39 764 q 14 822 14 796 z "},"j":{"ha":518,"x_min":14,"x_max":506,"o":"m 14 -72 l 14 -28 q 24 -14 14 -17 q 42 -11 33 -11 q 73 -42 61 -11 q 97 -114 85 -72 q 124 -198 108 -156 q 169 -262 140 -240 q 240 -290 200 -285 q 315 -296 279 -296 q 367 -280 349 -296 q 396 -240 386 -264 q 408 -187 406 -215 q 410 -135 410 -160 q 397 44 410 -46 q 360 222 383 135 q 345 266 354 243 q 328 313 336 289 q 314 360 319 336 q 308 407 308 383 q 316 441 308 425 q 346 457 324 457 q 381 440 365 457 q 404 407 397 424 q 478 138 450 272 q 506 -139 506 4 l 506 -154 q 505 -179 506 -167 q 504 -203 504 -192 l 504 -218 q 479 -293 497 -258 q 433 -353 461 -328 q 368 -392 404 -378 q 290 -407 332 -407 q 169 -378 221 -407 q 83 -301 118 -349 q 31 -193 49 -253 q 14 -72 14 -133 m 225 718 q 224 726 225 721 q 224 735 224 732 q 237 767 224 754 q 269 781 250 781 q 311 769 288 781 q 356 740 335 757 q 390 701 376 722 q 404 663 404 681 q 371 629 404 629 l 360 629 q 324 644 343 635 q 287 664 306 653 q 252 688 268 675 q 225 718 236 701 z "},"k":{"ha":736,"x_min":14,"x_max":724,"o":"m 243 335 l 240 335 q 224 328 231 335 q 215 313 218 321 q 214 286 214 308 l 214 260 q 223 169 214 214 q 232 81 232 125 q 189 39 232 39 q 157 52 169 39 q 137 83 144 65 q 125 122 129 101 q 119 157 121 142 q 115 417 122 286 q 75 675 107 549 q 60 706 71 692 q 40 733 50 719 q 22 760 29 746 q 14 792 14 775 q 31 833 14 818 q 74 849 47 849 q 117 833 100 849 q 147 796 135 818 q 165 748 158 774 q 175 703 171 722 q 180 678 176 696 q 187 642 183 661 q 194 605 190 622 q 199 581 197 588 q 212 561 201 569 q 235 553 222 553 l 238 553 q 288 589 265 569 q 331 629 311 608 q 372 672 351 650 q 415 714 392 693 q 423 715 418 714 q 429 715 428 715 q 457 703 447 715 q 467 675 467 690 q 451 616 467 643 q 411 566 435 589 q 361 523 388 543 q 315 486 335 503 q 297 451 297 472 q 298 447 297 450 q 299 440 299 443 q 318 420 304 435 q 347 390 332 406 q 376 360 363 375 q 393 340 389 346 q 435 288 406 325 q 497 210 464 251 q 560 131 531 168 q 600 78 589 93 q 624 53 606 69 q 656 33 642 36 q 669 32 663 32 q 683 32 676 32 q 713 26 703 32 q 724 -7 724 19 q 714 -33 724 -22 q 691 -52 704 -44 q 662 -63 678 -60 q 633 -67 646 -67 q 563 -42 593 -67 q 510 11 533 -17 q 382 176 443 92 q 243 335 321 261 z "},"l":{"ha":150,"x_min":13,"x_max":136,"o":"m 14 56 q 13 83 14 63 q 13 111 13 104 q 18 260 13 186 q 30 408 24 335 q 42 556 36 482 q 47 706 47 631 q 35 780 47 744 q 24 853 24 815 q 34 892 24 872 q 69 911 44 911 q 94 903 82 911 q 115 884 106 896 q 131 859 125 872 q 136 833 136 846 l 136 461 q 117 298 125 381 q 108 132 108 215 q 122 88 108 108 q 136 44 136 68 q 119 10 136 21 q 81 0 101 0 q 14 56 28 0 z "},"m":{"ha":926,"x_min":14,"x_max":914,"o":"m 728 313 q 713 342 722 326 q 692 371 704 357 q 665 394 679 385 q 633 403 650 403 q 610 391 619 403 q 594 368 600 379 q 585 328 592 357 q 569 265 578 299 q 554 203 561 232 q 544 163 547 174 q 539 147 543 160 q 529 118 535 135 q 519 85 524 101 q 511 61 514 69 q 491 31 504 44 q 458 17 478 17 q 423 31 435 17 q 404 67 411 46 q 403 96 404 75 q 401 140 403 117 q 399 183 400 163 q 399 213 399 204 q 392 268 397 239 q 378 325 388 297 q 353 377 368 353 q 315 418 338 401 q 311 419 314 419 l 307 419 q 279 411 293 419 q 253 391 265 403 q 231 365 240 379 q 215 340 221 351 q 197 302 210 329 q 171 245 185 275 q 144 188 157 215 q 125 151 131 161 q 99 111 114 128 q 57 94 83 94 q 27 106 40 94 q 14 133 14 117 l 14 176 l 14 218 q 15 296 15 256 q 18 376 14 336 q 35 451 22 415 q 81 514 49 486 q 90 519 86 518 q 100 519 94 519 q 121 513 113 519 q 136 497 129 507 q 137 486 136 494 q 138 475 138 478 q 134 449 138 461 q 131 424 131 438 q 142 413 131 413 q 164 429 150 413 q 199 466 178 446 q 249 503 219 486 q 315 519 278 519 q 384 495 357 519 q 429 441 411 471 q 458 387 447 411 q 481 363 469 363 l 488 363 q 494 368 493 363 q 509 419 500 393 q 532 464 518 444 q 567 496 546 483 q 617 508 588 508 q 684 494 650 508 q 747 455 718 479 q 796 399 775 431 q 824 335 817 368 l 868 106 q 877 85 869 94 q 893 67 885 76 q 908 49 901 58 q 914 26 914 39 q 901 -6 914 4 q 868 -17 889 -17 q 824 -3 843 -17 q 790 28 806 10 q 763 87 767 56 q 760 151 760 118 q 756 196 760 172 q 752 219 756 203 q 744 255 749 236 q 734 290 739 274 q 728 313 729 306 z "},"n":{"ha":636,"x_min":14,"x_max":622,"o":"m 521 10 q 524 47 521 29 q 528 85 528 65 q 518 141 528 107 q 491 213 508 175 q 451 290 474 251 q 404 360 429 329 q 353 411 379 392 q 304 431 328 431 q 275 415 288 431 q 260 385 263 400 q 252 356 257 375 q 243 316 247 336 q 235 278 239 296 q 232 257 232 261 q 230 242 232 254 q 226 217 228 231 q 222 193 224 204 q 221 179 221 182 q 214 144 218 167 q 201 101 210 122 q 181 65 193 81 q 147 50 168 50 q 106 70 124 50 q 86 111 89 90 q 76 150 83 122 q 61 209 69 178 q 46 268 53 240 q 36 307 39 296 q 21 372 28 340 q 14 439 14 404 l 14 469 q 29 489 21 485 q 50 493 38 493 q 87 472 75 493 q 106 427 99 451 q 119 382 113 403 q 143 361 126 361 q 158 390 153 361 q 174 451 163 418 q 208 513 185 485 q 279 542 232 542 q 369 519 325 542 q 451 458 413 496 q 520 370 489 419 q 574 269 551 321 q 610 168 597 218 q 622 78 622 118 q 621 42 622 61 q 613 6 619 22 q 594 -22 607 -11 q 560 -33 582 -33 q 530 -21 539 -33 q 521 10 521 -8 z "},"o":{"ha":725,"x_min":14,"x_max":711,"o":"m 14 276 q 38 395 14 343 q 102 483 61 447 q 198 539 143 519 q 315 558 253 558 q 406 544 365 558 q 480 506 446 531 q 544 451 514 482 q 606 385 575 419 q 644 343 625 363 q 678 303 663 324 q 702 258 693 282 q 711 204 711 235 q 699 145 711 171 q 668 99 688 119 q 624 62 649 79 q 572 28 599 44 q 524 5 550 15 q 471 -6 497 -6 l 276 -6 q 175 19 222 -6 q 92 85 128 44 q 35 175 56 125 q 14 276 14 225 m 108 275 q 126 199 108 235 q 174 135 144 163 q 240 93 203 108 q 317 78 278 78 q 381 80 346 78 q 449 88 415 82 q 515 104 483 93 q 572 133 547 115 q 608 165 593 149 q 622 204 622 181 q 601 256 622 231 q 567 296 581 281 q 508 355 538 326 q 447 405 479 383 q 376 440 414 426 q 294 453 339 453 q 225 438 258 453 q 166 399 192 424 q 124 342 140 375 q 108 275 108 310 z "},"p":{"ha":764,"x_min":14,"x_max":750,"o":"m 175 -392 q 178 -278 175 -336 q 192 -167 182 -221 l 192 56 q 189 78 190 61 q 186 101 188 96 q 185 139 186 108 q 183 204 185 169 q 181 269 182 239 q 181 307 181 299 q 178 329 181 311 q 175 351 175 347 l 175 369 q 176 406 175 385 q 181 446 176 426 q 198 478 186 465 q 231 492 210 492 q 265 464 258 492 q 273 304 267 383 q 282 146 279 225 q 294 120 285 135 q 318 106 303 106 l 321 107 q 363 114 333 110 q 427 124 392 118 q 500 138 463 129 q 568 158 538 146 q 619 185 599 169 q 639 221 639 200 q 631 243 639 232 q 617 263 624 254 q 465 392 549 338 q 293 497 381 447 q 260 512 275 500 q 232 536 246 524 q 203 559 218 549 q 171 569 189 569 q 141 557 154 569 q 119 526 128 544 q 107 490 111 508 q 103 457 103 471 q 108 417 103 438 q 114 376 114 397 q 112 362 114 372 q 103 351 110 351 l 64 351 q 50 365 58 351 q 33 397 42 378 q 19 434 25 415 q 14 464 14 453 q 15 480 14 474 q 19 497 15 486 q 38 551 28 521 q 65 610 49 582 q 105 656 82 638 q 161 675 128 675 q 194 671 176 675 q 226 658 213 667 l 572 435 q 628 392 597 418 q 687 337 660 367 q 732 273 714 307 q 750 204 750 239 q 718 124 750 156 q 640 74 686 93 q 544 45 594 56 q 460 28 494 35 q 441 25 456 28 q 410 18 426 22 q 378 10 393 14 q 360 6 364 7 q 322 -3 335 1 q 299 -33 308 -7 q 294 -82 297 -47 q 289 -156 292 -117 q 284 -229 286 -194 q 282 -278 282 -264 l 282 -287 q 292 -313 282 -304 q 313 -331 301 -322 q 333 -348 324 -339 q 343 -374 343 -357 q 334 -411 343 -393 q 310 -443 325 -429 q 276 -465 294 -457 q 239 -474 257 -474 q 189 -449 203 -474 q 175 -392 175 -424 z "},"q":{"ha":564,"x_min":14,"x_max":551,"o":"m 415 -350 q 424 -260 415 -303 q 444 -167 433 -218 l 444 101 q 434 124 444 113 q 413 135 424 135 l 410 135 q 396 126 406 132 q 376 113 386 119 q 356 99 365 106 q 343 90 347 93 q 322 79 336 85 q 299 74 308 74 l 176 74 q 106 97 136 74 q 55 155 75 121 q 24 229 35 189 q 14 303 14 269 q 34 401 14 354 q 89 485 54 449 q 170 544 124 522 q 271 565 217 565 q 310 560 290 565 q 347 542 331 554 q 373 514 363 531 q 383 475 383 497 q 371 446 383 456 q 340 436 358 436 q 318 441 328 436 q 299 451 308 446 q 280 460 290 456 q 257 465 269 465 q 196 451 224 465 q 149 414 168 438 q 119 360 129 390 q 108 300 108 331 q 147 197 108 238 q 249 157 185 157 q 349 196 306 157 q 404 256 378 224 q 433 331 431 288 q 434 360 433 339 q 436 406 435 382 q 438 451 438 429 q 439 481 439 472 q 457 510 446 500 q 489 521 468 521 q 529 502 515 521 q 550 458 543 483 q 550 449 550 456 q 551 433 550 442 q 551 417 551 425 q 551 406 551 410 q 545 334 551 369 q 539 261 539 299 q 542 148 539 203 q 544 35 544 93 q 543 -75 544 -24 q 539 -189 542 -126 q 531 -238 538 -214 q 519 -286 525 -262 q 510 -334 514 -310 q 511 -385 507 -358 q 499 -408 508 -392 q 478 -424 490 -424 q 430 -401 444 -424 q 415 -350 415 -378 z "},"r":{"ha":513,"x_min":14,"x_max":499,"o":"m 14 78 l 14 144 q 18 231 14 192 q 33 318 22 271 l 33 551 q 53 579 44 567 q 83 592 63 592 q 97 591 90 592 q 108 585 103 590 q 161 531 135 557 q 217 487 188 506 q 279 457 246 468 q 354 446 313 446 q 403 451 379 446 q 451 457 426 457 q 485 448 471 457 q 499 418 499 439 q 479 376 499 390 q 433 354 460 361 q 377 346 406 347 q 332 344 349 344 q 267 351 300 344 q 203 357 235 357 q 156 337 171 357 q 131 290 142 317 l 131 253 q 133 207 131 229 q 136 161 136 185 q 124 90 136 121 q 81 33 111 60 l 67 33 q 31 46 49 33 q 14 78 14 58 z "},"s":{"ha":647,"x_min":14,"x_max":633,"o":"m 25 56 q 43 90 25 79 q 81 106 61 101 q 119 110 92 107 q 176 117 146 114 q 233 123 206 119 q 271 128 260 126 q 285 131 274 129 q 299 133 296 133 q 320 135 303 133 q 357 138 338 136 q 394 142 376 140 q 415 144 411 144 q 437 148 424 146 q 463 154 450 150 q 485 165 476 158 q 494 185 494 172 q 481 205 494 196 q 460 218 468 214 q 438 229 453 221 q 405 247 422 238 q 372 263 388 256 q 349 274 356 271 q 335 279 346 275 q 321 285 324 283 q 286 294 314 286 q 226 311 258 301 q 165 329 193 321 q 131 340 138 338 q 90 356 111 346 q 53 381 69 367 q 25 415 36 396 q 14 457 14 433 q 45 531 14 501 q 121 580 76 561 q 213 606 165 599 q 293 614 260 614 q 345 610 317 614 q 398 597 374 607 q 439 568 422 588 q 456 518 456 549 q 421 485 456 485 q 395 490 406 485 q 375 499 385 494 q 355 509 365 504 q 331 514 344 514 q 238 506 282 514 q 147 481 194 497 q 136 460 136 472 q 144 444 136 450 q 158 435 151 438 q 188 424 168 431 q 226 410 207 417 q 263 397 246 403 q 282 390 279 392 q 302 384 286 389 q 337 374 318 379 q 372 363 356 368 q 393 357 389 358 q 460 329 419 349 q 539 283 500 310 q 606 226 578 257 q 633 164 633 194 q 604 99 633 124 q 539 67 575 74 q 501 59 526 64 q 451 50 476 54 q 406 42 426 46 q 382 39 386 39 q 351 35 375 38 q 298 31 326 33 q 245 26 269 28 q 215 22 221 24 q 198 19 211 22 q 170 14 185 17 q 142 8 156 11 q 125 6 129 6 q 112 5 124 6 q 94 4 100 4 q 47 14 68 4 q 25 56 25 24 z "},"t":{"ha":681,"x_min":14,"x_max":668,"o":"m 238 379 q 219 408 233 397 q 185 426 204 419 q 147 436 167 432 q 114 446 128 440 q 81 461 99 451 q 49 484 64 471 q 24 513 33 497 q 14 547 14 529 q 28 578 14 565 q 58 592 42 592 q 94 583 78 592 q 126 563 110 574 q 158 544 142 553 q 194 535 175 535 q 228 555 218 535 q 238 597 238 575 l 238 625 q 234 671 238 649 q 231 717 231 693 q 231 735 231 721 q 232 753 232 749 q 248 781 238 768 q 275 793 258 793 q 319 766 307 793 q 332 713 332 739 q 329 666 332 689 q 326 619 326 643 q 334 553 326 583 q 376 503 342 522 q 415 502 388 503 q 472 500 442 501 q 528 498 501 499 q 567 497 556 497 q 595 495 578 496 q 628 490 613 494 q 656 477 644 486 q 668 451 668 468 q 650 420 668 425 q 611 413 632 415 q 566 410 599 413 q 497 406 533 408 q 427 400 460 403 q 382 396 394 397 q 360 383 372 393 q 349 363 349 374 l 349 139 q 363 93 360 111 q 367 50 367 75 q 354 6 367 24 q 314 -11 342 -11 q 281 2 293 -11 q 264 34 269 15 q 257 72 258 53 q 254 106 256 92 q 244 242 249 172 q 238 379 240 313 z "},"u":{"ha":658,"x_min":14,"x_max":644,"o":"m 14 406 q 15 442 14 422 q 20 478 15 461 q 37 508 25 496 q 71 519 49 519 q 117 503 97 519 q 152 464 138 488 q 174 414 167 440 q 182 365 182 388 q 175 342 182 351 q 159 324 168 332 q 143 306 150 315 q 136 283 136 297 q 153 228 136 256 q 197 178 171 201 q 252 138 224 156 q 304 111 281 119 q 339 106 317 106 l 376 106 q 428 110 400 106 q 481 125 457 114 q 522 156 506 136 q 539 206 539 175 q 537 235 539 221 q 528 263 535 250 l 438 440 q 432 458 432 450 l 432 479 q 442 508 432 497 q 471 519 453 519 q 508 503 493 519 q 533 468 524 486 q 553 428 540 454 q 581 377 567 403 q 605 331 594 351 q 617 307 615 311 q 636 253 628 283 q 644 194 644 222 q 615 108 644 143 q 543 49 586 72 q 450 16 500 26 q 358 6 400 6 q 238 33 297 6 q 65 183 117 89 q 14 406 14 276 z "},"v":{"ha":581,"x_min":13,"x_max":567,"o":"m 13 456 q 13 476 13 460 q 14 497 14 492 q 31 524 17 513 q 61 536 44 536 q 79 531 69 536 q 97 519 89 526 q 111 502 106 511 q 117 486 117 493 l 117 396 q 123 378 117 394 q 139 338 129 361 q 159 291 149 315 q 176 251 169 267 q 183 238 178 249 q 195 215 189 228 q 207 191 201 203 q 215 174 213 179 q 235 144 222 160 q 265 128 249 128 q 282 133 276 128 q 340 193 313 161 q 376 268 367 225 q 383 308 378 279 q 395 369 389 338 q 407 430 401 401 q 415 469 413 458 q 440 523 422 499 q 492 547 458 547 q 516 544 503 547 q 540 533 529 540 q 559 516 551 526 q 567 492 567 506 q 560 468 567 479 q 544 447 553 457 q 525 426 535 436 q 511 407 515 417 q 506 389 510 406 q 500 363 501 372 q 475 261 488 306 q 444 178 463 217 q 397 103 425 139 q 326 28 369 68 q 294 12 308 18 q 260 6 279 6 q 194 32 225 6 q 135 100 163 58 q 85 193 107 142 q 47 294 63 244 q 22 388 31 344 q 13 456 13 431 z "},"w":{"ha":949,"x_min":14,"x_max":935,"o":"m 14 332 q 15 394 14 369 q 25 457 15 419 q 40 478 32 471 q 64 486 49 486 q 88 478 79 486 q 103 457 96 471 q 103 370 103 419 q 113 271 104 321 q 139 176 121 221 q 193 106 157 132 l 204 106 q 268 122 238 106 q 323 163 299 138 q 362 220 347 189 q 376 283 376 251 q 374 335 376 310 q 371 386 371 360 q 372 413 371 399 q 379 440 374 428 q 394 461 385 453 q 419 469 403 469 q 466 440 453 469 q 484 372 479 411 q 490 294 489 333 q 500 235 492 254 q 558 148 521 185 q 653 111 594 111 q 797 167 749 111 q 846 318 846 222 q 840 361 846 340 q 828 403 835 382 q 817 444 822 424 q 811 486 811 465 q 818 519 811 507 q 849 531 825 531 q 894 505 876 531 q 920 442 911 479 q 932 363 929 404 q 935 293 935 322 l 935 257 q 909 156 935 201 q 842 78 883 111 q 750 28 801 46 q 647 11 699 11 q 609 10 628 11 q 572 17 590 10 q 530 43 551 25 q 489 78 508 61 q 452 110 469 96 q 421 124 435 124 q 403 117 413 124 q 388 106 394 111 q 340 65 363 85 q 295 31 318 46 q 247 8 272 17 q 189 0 221 0 q 101 37 135 0 q 47 126 67 74 q 21 235 28 179 q 14 332 14 292 z "},"x":{"ha":558,"x_min":14,"x_max":546,"o":"m 36 28 q 43 67 36 49 q 61 103 50 86 q 85 138 72 121 q 108 174 97 156 q 131 206 117 186 q 158 246 144 225 q 183 285 172 267 q 193 313 193 303 l 193 318 q 169 363 182 347 q 136 408 156 379 q 122 433 132 415 q 101 469 111 450 q 81 503 90 488 q 69 525 72 519 q 63 538 68 526 q 53 563 58 549 q 41 591 47 576 q 31 614 35 606 q 19 650 24 632 q 14 686 14 668 q 24 720 14 703 q 53 738 33 738 q 75 730 64 738 q 92 715 86 722 q 97 701 93 711 q 107 678 101 690 q 117 656 113 667 q 125 642 122 646 q 139 617 129 633 q 160 581 149 601 q 184 538 172 560 q 206 499 196 517 q 222 470 217 481 q 232 454 228 460 q 239 447 236 449 q 249 446 242 446 q 278 465 265 446 q 306 508 292 485 q 341 551 321 532 q 390 571 361 571 q 411 567 403 571 q 428 553 419 564 l 428 531 q 416 485 428 506 q 391 444 404 464 q 366 403 378 424 q 354 357 354 382 q 362 328 354 342 q 381 303 369 315 q 406 281 393 292 q 428 263 418 271 q 460 236 440 250 q 499 207 481 222 q 532 173 518 192 q 546 132 546 154 q 545 122 546 129 q 544 111 544 114 q 507 94 532 94 q 447 117 479 94 q 385 165 415 139 q 331 213 356 190 q 290 235 306 235 q 270 227 281 235 q 254 213 260 219 l 131 28 l 92 -11 q 76 -14 79 -14 q 36 28 36 -14 z "},"y":{"ha":681,"x_min":13,"x_max":668,"o":"m 25 -647 q 23 -620 25 -639 q 19 -580 21 -601 q 15 -540 17 -558 q 14 -512 14 -521 l 14 -496 q 13 -479 14 -490 q 14 -457 13 -468 q 19 -437 15 -446 q 31 -429 22 -429 l 69 -429 q 80 -459 75 -429 q 95 -528 85 -489 q 123 -605 106 -567 q 169 -658 140 -643 l 207 -658 q 310 -643 257 -658 q 409 -600 363 -628 q 492 -531 456 -572 q 544 -440 528 -490 q 563 -348 560 -392 q 567 -253 567 -304 l 567 -178 q 558 -135 564 -165 q 547 -72 553 -106 q 535 -8 540 -37 q 528 33 529 22 q 522 56 525 43 q 515 78 519 68 q 502 94 510 88 q 481 101 494 101 q 431 95 454 101 q 382 89 407 89 q 242 142 294 89 q 169 279 189 196 l 169 335 q 172 399 169 364 q 186 465 175 435 q 219 516 197 496 q 282 536 242 536 q 337 512 319 536 q 354 451 354 488 q 341 419 354 429 q 312 399 328 408 q 283 378 296 390 q 269 342 269 367 q 277 290 269 317 q 300 239 285 263 q 337 200 315 215 q 388 185 358 185 q 436 194 417 185 q 467 221 456 204 q 484 259 479 238 q 489 304 489 281 q 489 336 489 321 q 488 368 489 353 q 505 397 494 385 q 535 408 515 408 q 568 392 556 408 q 587 356 581 376 q 596 313 593 335 q 600 279 599 292 q 601 265 600 275 q 603 243 601 254 q 605 222 604 232 q 606 207 606 211 l 667 -150 l 667 -161 q 667 -184 667 -171 q 668 -211 668 -197 l 668 -233 q 666 -341 668 -292 q 650 -446 664 -390 q 588 -568 633 -511 q 483 -668 543 -625 q 355 -735 424 -711 q 222 -760 286 -760 q 158 -756 190 -760 q 99 -740 126 -751 q 53 -706 72 -728 q 25 -647 33 -683 z "},"z":{"ha":760,"x_min":14,"x_max":913,"o":"m 47 129 q 77 222 47 178 q 148 306 107 267 q 233 381 189 346 q 304 446 276 415 q 294 464 301 454 q 276 475 286 474 l 92 486 q 65 492 79 486 q 40 508 51 499 q 21 531 28 518 q 14 558 14 544 q 31 594 14 581 q 69 608 47 608 q 108 606 86 608 q 152 599 129 603 q 196 591 175 594 q 232 586 217 588 q 263 585 240 586 q 313 583 286 585 q 362 581 339 582 q 393 581 385 581 q 443 556 425 578 q 461 506 461 535 q 444 447 461 475 q 402 391 428 418 q 344 338 376 364 q 281 285 313 311 q 224 232 250 258 q 182 179 197 206 l 176 168 q 175 165 175 167 q 183 146 175 154 q 201 131 190 138 q 223 122 211 125 q 243 117 235 118 q 265 116 247 117 q 301 114 282 115 q 338 112 321 113 q 360 111 356 111 q 399 105 379 110 q 439 100 418 100 q 522 106 481 100 q 606 113 563 113 l 626 113 q 653 112 640 113 q 676 111 667 111 l 689 111 q 713 110 694 111 q 753 107 731 108 q 797 103 775 106 q 829 100 818 101 q 847 97 833 100 q 874 90 860 94 q 901 78 889 85 q 913 67 913 72 l 913 28 l 901 17 l 443 17 q 409 13 425 14 q 379 11 393 11 l 317 11 q 244 14 289 11 q 155 28 199 17 q 79 64 111 40 q 47 129 47 88 z "},"{":{"ha":697,"x_min":14,"x_max":683,"o":"m 14 206 q 33 300 14 253 q 83 390 53 347 q 147 472 113 433 q 210 542 181 510 q 215 552 214 547 q 215 564 215 557 q 199 597 215 585 q 165 619 183 608 q 130 642 146 629 q 114 678 114 654 q 135 721 114 706 q 181 748 156 736 q 228 774 207 760 q 249 813 249 788 l 249 815 q 243 826 246 818 q 194 920 213 876 q 175 1024 175 964 l 175 1076 q 238 1179 193 1139 q 340 1242 282 1219 q 460 1274 397 1265 q 579 1283 524 1283 q 651 1260 618 1283 q 683 1196 683 1238 q 665 1147 683 1167 q 615 1126 646 1126 q 584 1133 599 1126 q 556 1149 569 1140 q 528 1165 543 1158 q 496 1172 514 1172 q 431 1165 471 1172 q 355 1140 392 1157 q 291 1098 318 1124 q 264 1036 264 1072 q 276 964 264 1003 q 310 899 289 925 q 335 873 319 885 q 364 849 350 861 q 388 823 378 838 q 399 790 399 808 q 383 748 399 764 q 348 722 367 732 q 313 701 329 711 q 297 678 297 692 q 313 655 297 663 q 349 640 329 647 q 384 622 368 633 q 400 588 400 611 q 392 559 400 571 q 372 538 383 547 q 346 521 360 529 q 321 503 332 513 q 301 483 317 499 q 266 449 285 468 q 230 413 247 431 q 204 385 213 394 q 172 347 188 368 q 143 303 156 326 q 122 256 131 281 q 114 207 114 231 q 124 140 114 174 q 151 76 133 106 q 197 26 169 47 q 260 0 224 6 q 271 0 264 0 q 289 -1 279 0 q 306 -1 299 -1 q 318 -1 314 -1 q 332 -1 324 -1 q 351 -1 342 -1 q 368 0 361 0 q 376 0 375 0 q 407 6 385 1 q 454 15 429 10 q 502 26 479 21 q 533 33 525 31 q 538 34 535 33 q 544 35 542 35 q 575 22 561 35 q 589 -11 589 8 q 578 -35 589 -26 q 553 -49 568 -44 q 524 -57 539 -54 q 499 -61 508 -60 q 377 -87 436 -74 q 254 -100 318 -100 q 151 -72 196 -100 q 76 1 106 -43 q 30 100 46 46 q 14 206 14 154 z "},"|":{"ha":346,"x_min":14,"x_max":333,"o":"m 106 390 l 53 849 q 51 858 53 850 q 48 874 50 865 q 44 892 46 883 q 42 904 43 900 q 20 1028 26 967 q 14 1153 14 1090 q 47 1219 14 1200 q 122 1239 81 1239 l 153 1239 q 199 1193 185 1219 q 238 1133 214 1167 q 249 1099 246 1118 q 253 1064 250 1088 q 258 1015 256 1040 q 263 969 261 990 q 265 943 265 949 q 266 913 265 936 q 268 862 267 889 q 270 810 269 835 q 271 781 271 786 q 274 756 271 775 q 279 731 276 738 l 279 390 q 282 376 279 386 q 288 356 285 367 q 294 337 290 346 q 299 324 297 328 q 324 212 314 268 q 333 97 333 156 q 333 77 333 93 q 332 56 332 61 q 278 4 315 14 q 201 -6 242 -6 l 158 -6 q 144 1 153 -4 q 126 14 135 7 q 112 29 118 21 q 106 44 106 38 l 106 390 z "},"}":{"ha":647,"x_min":14,"x_max":633,"o":"m 64 11 q 32 32 44 18 q 19 65 19 46 q 31 95 19 82 q 58 111 43 108 q 139 117 106 115 q 215 118 172 118 q 275 106 247 118 q 335 94 303 94 q 392 108 361 94 q 451 145 424 122 q 498 197 479 168 q 517 254 517 225 q 506 292 517 274 q 481 327 496 311 q 446 356 465 343 q 410 374 426 368 q 376 382 394 379 q 342 391 358 385 q 315 408 326 397 q 304 440 304 419 q 325 485 304 467 q 372 519 346 504 q 418 547 397 535 q 439 575 439 560 q 418 604 439 596 q 372 619 397 613 q 325 639 346 626 q 304 681 304 651 q 315 710 304 697 q 342 732 326 722 q 374 749 358 742 q 399 764 390 757 q 465 839 440 796 q 489 935 489 882 q 467 1029 489 990 q 410 1092 446 1068 q 330 1130 375 1117 q 236 1150 285 1143 q 140 1158 188 1157 q 53 1161 92 1160 q 26 1176 38 1167 q 14 1203 14 1186 q 23 1230 14 1219 q 47 1246 32 1240 q 78 1253 61 1251 q 111 1256 96 1256 l 147 1256 q 298 1241 219 1256 q 441 1192 376 1226 q 547 1099 506 1157 q 589 951 589 1040 q 575 864 589 906 q 539 782 561 822 q 514 753 529 765 q 499 721 499 740 q 519 686 499 697 q 566 665 540 675 q 613 641 592 656 q 633 597 633 626 q 624 569 633 581 q 600 547 614 557 q 583 537 596 544 q 556 521 571 529 q 529 506 542 513 q 511 497 517 499 q 497 486 500 490 q 493 472 493 482 q 494 461 493 465 q 500 451 494 457 q 544 408 522 429 q 584 363 567 386 q 612 312 601 339 q 622 251 622 285 q 591 156 622 203 q 513 72 560 108 q 411 12 465 35 q 310 -11 357 -11 q 187 -1 247 -11 q 64 11 126 8 z "},"~":{"ha":950,"x_min":-53,"x_max":1001,"o":"m 324 664 q 302 658 315 664 q 282 647 289 651 l 42 479 q 17 465 24 467 q -7 463 10 463 q -53 507 -53 463 l -53 524 q -6 565 -33 551 q 47 597 21 578 q 115 651 79 621 q 190 707 151 681 q 271 751 229 733 q 357 769 313 769 q 422 750 401 769 q 450 701 442 731 q 463 638 458 672 q 478 575 467 604 q 515 526 489 546 q 593 507 540 507 q 642 509 615 507 q 696 517 669 511 q 747 532 722 522 q 789 557 771 542 q 808 575 793 561 q 840 605 822 589 q 872 635 857 621 q 890 653 886 649 q 918 673 906 665 q 950 681 931 681 q 988 671 974 681 q 1001 636 1001 661 q 997 612 1001 621 q 987 594 993 603 q 971 578 981 586 q 951 557 961 569 q 927 513 936 538 q 896 474 918 488 q 742 420 825 433 q 579 407 658 407 q 481 426 518 407 q 423 474 444 444 q 392 535 401 503 q 374 597 382 568 q 356 645 367 626 q 324 664 346 664 z "},"":{"ha":711,"x_min":13,"x_max":694,"o":"m 86 119 q 92 151 86 132 q 107 190 97 171 q 129 222 117 208 q 157 235 142 235 q 193 218 181 235 q 193 172 189 186 q 221 139 197 158 l 306 139 q 388 141 339 139 q 481 151 436 143 q 558 172 526 158 q 589 210 589 186 q 578 246 589 228 q 553 278 568 264 q 519 305 538 293 q 488 324 501 317 l 108 507 q 42 561 71 526 q 13 639 13 596 q 40 716 13 685 q 108 769 68 747 q 193 804 149 790 q 271 831 238 818 q 353 860 317 849 q 439 871 389 871 q 481 855 463 871 q 500 814 500 839 q 481 753 500 782 q 426 725 461 725 q 387 736 404 725 q 349 747 369 747 q 300 740 325 747 q 254 725 275 732 q 219 713 242 721 q 174 695 196 706 q 135 672 151 685 q 119 642 119 658 q 133 615 119 628 q 153 597 146 603 q 169 586 157 594 q 195 567 181 578 q 223 548 210 557 q 243 535 236 539 q 254 529 246 533 q 265 524 263 525 q 343 496 299 511 q 435 460 388 481 q 530 415 483 440 q 613 357 576 389 q 672 286 649 325 q 694 200 694 247 q 659 115 694 151 q 578 67 624 78 q 396 47 486 60 q 214 33 306 33 q 171 38 193 33 q 130 51 149 42 q 99 78 111 61 q 86 119 86 94 m 500 1107 q 492 1080 501 1092 q 474 1061 483 1068 q 463 1052 471 1058 q 444 1039 454 1046 q 426 1026 435 1032 q 415 1019 418 1021 l 346 946 q 334 940 339 939 q 322 940 329 942 q 292 947 306 940 q 268 964 279 954 q 246 985 257 974 q 225 1006 235 997 q 218 1012 219 1010 q 215 1016 217 1014 q 211 1021 214 1018 q 200 1029 208 1024 q 176 1044 190 1038 q 149 1060 163 1051 q 126 1079 136 1068 q 117 1106 117 1090 q 128 1134 115 1122 q 161 1147 142 1146 q 187 1143 174 1149 q 214 1129 200 1138 q 240 1112 228 1121 q 260 1097 251 1103 q 272 1085 269 1090 q 285 1072 274 1079 q 305 1062 296 1065 q 325 1060 314 1058 q 338 1061 332 1060 q 350 1071 343 1063 q 365 1087 361 1082 q 371 1095 368 1092 q 378 1103 374 1099 q 394 1119 382 1108 q 417 1138 407 1131 q 447 1146 428 1144 q 483 1137 467 1147 q 500 1107 499 1126 z "},"":{"ha":1042,"x_min":25,"x_max":1038,"o":"m 257 -28 q 247 -29 250 -28 q 183 -22 214 -33 q 126 13 151 -10 q 83 65 101 35 q 58 126 65 94 l 56 146 q 51 178 53 161 q 46 208 49 194 l 43 228 q 28 392 32 304 q 33 568 25 479 q 63 741 42 657 q 124 896 83 825 q 135 915 125 900 q 156 951 144 931 q 179 990 168 971 q 197 1018 190 1008 q 236 1056 214 1046 q 290 1071 258 1067 q 342 1071 319 1075 q 456 1081 400 1074 q 571 1089 511 1089 l 592 1089 q 619 1088 606 1089 q 643 1088 633 1088 l 657 1088 q 692 1087 667 1088 q 745 1085 717 1086 q 797 1081 774 1083 q 829 1076 821 1079 q 849 1075 835 1076 q 881 1072 864 1074 q 913 1067 897 1069 q 936 1060 929 1064 q 963 1051 946 1054 q 997 1042 981 1047 q 1026 1026 1014 1036 q 1038 999 1038 1017 q 1035 978 1038 988 q 1019 965 1033 969 l 947 965 q 830 973 894 969 q 697 979 765 976 q 559 984 628 982 q 431 988 490 986 q 435 977 433 982 q 440 967 438 972 l 554 792 q 582 723 574 760 q 596 650 590 686 q 600 615 599 632 q 601 583 601 599 q 645 582 621 585 q 692 575 669 579 q 733 566 715 571 q 758 561 751 561 q 787 559 769 560 q 820 554 804 558 q 848 541 836 550 q 860 515 860 532 q 842 484 860 489 q 803 476 824 479 q 766 475 792 476 q 709 472 740 474 q 647 467 678 469 q 596 463 617 464 q 553 306 583 381 q 478 149 522 232 q 421 75 453 111 l 460 75 q 499 69 479 74 q 539 64 518 64 q 622 70 581 64 q 706 76 663 76 l 726 76 q 753 76 740 76 q 776 75 767 75 l 789 75 q 813 74 794 75 q 853 71 831 72 q 897 67 875 69 q 929 64 918 65 q 947 61 933 64 q 974 53 960 58 q 1001 42 989 49 q 1013 31 1013 36 l 1013 -8 l 1004 -17 l 546 -19 q 510 -22 528 -19 q 479 -25 493 -25 l 257 -28 m 129 224 q 140 175 132 203 q 161 124 147 147 q 194 84 175 100 q 242 72 214 68 q 324 117 282 78 q 402 209 367 157 q 463 314 438 261 q 496 399 488 367 q 510 516 510 460 q 503 635 511 572 q 449 785 492 718 q 351 915 407 853 q 328 933 344 922 q 300 942 311 943 q 269 929 283 939 q 246 907 256 919 q 166 763 193 844 q 128 596 139 682 q 119 422 118 510 q 125 260 121 335 l 129 224 l 129 224 z "},"":{"ha":657,"x_min":14,"x_max":633,"o":"m 25 56 q 43 90 25 79 q 81 106 61 101 q 119 110 92 107 q 176 117 146 114 q 233 123 206 119 q 271 128 260 126 q 285 131 274 129 q 299 133 296 133 q 320 135 303 133 q 357 138 338 136 q 394 142 376 140 q 415 144 411 144 q 437 148 424 146 q 463 154 450 150 q 485 165 476 158 q 494 185 494 172 q 481 205 494 196 q 460 218 468 214 q 438 229 453 221 q 405 247 422 238 q 372 263 388 256 q 349 274 356 271 q 335 279 346 275 q 321 285 324 283 q 286 294 314 286 q 226 311 258 301 q 165 329 193 321 q 131 340 138 338 q 90 356 111 346 q 53 381 69 367 q 25 415 36 396 q 14 457 14 433 q 45 531 14 501 q 121 580 76 561 q 213 606 165 599 q 293 614 260 614 q 345 610 317 614 q 398 597 374 607 q 439 568 422 588 q 456 518 456 549 q 421 485 456 485 q 395 490 406 485 q 375 499 385 494 q 355 509 365 504 q 331 514 344 514 q 238 506 282 514 q 147 481 194 497 q 136 460 136 472 q 144 444 136 450 q 158 435 151 438 q 188 424 168 431 q 226 410 207 417 q 263 397 246 403 q 282 390 279 392 q 302 384 286 389 q 337 374 318 379 q 372 363 356 368 q 393 357 389 358 q 460 329 419 349 q 539 283 500 310 q 606 226 578 257 q 633 164 633 194 q 604 99 633 124 q 539 67 575 74 q 501 59 526 64 q 451 50 476 54 q 406 42 426 46 q 382 39 386 39 q 351 35 375 38 q 298 31 326 33 q 245 26 269 28 q 215 22 221 24 q 198 19 211 22 q 170 14 185 17 q 142 8 156 11 q 125 6 129 6 q 112 5 124 6 q 94 4 100 4 q 47 14 68 4 q 25 56 25 24 m 500 829 q 492 802 501 814 q 474 783 483 790 q 463 774 471 781 q 444 761 454 768 q 426 749 435 754 q 415 742 418 743 l 346 668 q 334 663 339 661 q 322 663 329 664 q 292 669 306 663 q 268 686 279 676 q 246 708 257 696 q 225 728 235 719 q 218 734 219 732 q 215 738 217 736 q 211 743 214 740 q 200 751 208 746 q 176 767 190 760 q 149 782 163 774 q 126 801 136 790 q 117 828 117 813 q 128 856 115 844 q 161 869 142 868 q 187 865 174 871 q 214 851 200 860 q 240 834 228 843 q 260 819 251 825 q 272 807 269 813 q 285 794 274 801 q 305 784 296 788 q 325 782 314 781 q 338 783 332 782 q 350 793 343 785 q 365 809 361 804 q 371 817 368 814 q 378 826 374 821 q 394 842 382 831 q 417 860 407 853 q 447 868 428 867 q 483 859 467 869 q 500 829 499 849 z "},"":{"ha":1111,"x_min":18,"x_max":1169,"o":"m 18 288 q 42 406 18 354 q 106 494 65 458 q 202 550 147 531 q 319 569 257 569 q 402 566 369 569 q 460 551 435 563 q 509 519 486 540 q 563 464 532 499 q 568 457 565 461 q 574 450 571 453 q 648 512 604 489 q 744 535 692 535 l 779 535 q 848 526 813 532 q 913 505 883 519 q 962 464 943 490 q 981 394 981 438 q 968 357 981 375 q 937 325 956 339 q 897 303 918 311 q 857 294 875 294 l 661 294 q 641 285 653 294 q 622 264 629 275 q 618 232 622 249 q 639 191 624 210 q 674 157 654 172 q 716 131 694 142 q 757 115 738 119 q 780 109 765 113 q 809 102 794 106 q 846 93 824 99 l 1025 93 q 1071 103 1054 101 q 1114 106 1088 106 q 1150 101 1131 106 q 1169 72 1169 96 q 1160 44 1169 57 q 1136 26 1151 31 q 1116 22 1131 25 q 1085 15 1101 18 q 1056 8 1069 11 q 1036 4 1042 6 q 1017 1 1029 3 q 1001 -1 1004 -1 l 813 -1 q 799 1 811 -1 q 772 8 788 4 q 742 15 757 11 q 718 21 726 18 q 640 60 674 33 q 576 119 607 88 q 540 69 560 93 q 497 29 519 46 q 449 3 474 13 q 397 -4 424 -6 l 281 6 q 179 35 226 10 q 96 100 132 61 q 39 188 60 139 q 18 288 18 236 m 511 269 q 524 354 511 313 q 511 382 519 372 q 462 429 482 413 q 420 453 442 446 q 371 463 399 461 q 299 464 343 464 q 229 449 263 464 q 170 410 196 435 q 128 353 144 386 q 113 286 113 321 q 131 210 113 246 q 178 147 149 174 q 244 104 207 119 q 321 89 282 89 q 381 90 356 89 q 427 100 406 92 q 468 127 449 108 q 513 179 488 146 q 521 194 515 183 q 513 230 514 211 q 511 269 511 249 m 694 403 q 701 394 694 394 l 835 394 q 841 401 840 394 q 842 410 842 407 q 819 430 842 425 q 775 435 796 435 l 739 435 q 710 431 725 435 q 694 413 694 428 l 694 403 z "},"":{"ha":665,"x_min":11,"x_max":656,"o":"m 275 406 q 283 463 278 435 q 290 521 288 492 q 272 553 292 535 q 224 590 251 572 q 172 624 197 608 q 139 646 147 639 q 97 691 119 658 q 56 762 75 724 q 24 838 36 800 q 14 901 11 876 q 33 940 17 922 q 71 954 50 957 q 115 923 101 951 q 138 857 128 894 q 163 782 149 819 q 207 724 176 744 q 233 700 218 717 q 267 682 247 683 q 301 684 285 679 q 338 688 318 689 q 365 683 353 686 q 393 678 378 679 q 455 703 424 675 q 511 772 486 732 q 552 851 536 811 q 569 913 568 892 q 568 940 571 928 q 567 968 565 953 q 577 999 569 989 q 607 1007 585 1010 l 621 1006 q 642 984 635 993 q 653 965 650 975 q 655 944 656 956 q 653 915 654 932 q 644 871 650 890 q 631 834 639 851 q 614 798 624 817 q 594 756 604 779 q 571 703 583 732 q 536 654 558 674 l 476 604 q 428 574 454 588 q 392 532 403 561 l 383 435 q 379 299 378 364 q 394 163 381 233 q 409 113 401 138 q 414 61 417 89 q 392 21 411 38 q 350 7 374 4 q 322 22 332 8 q 306 56 311 36 q 297 95 300 75 q 292 131 294 115 q 274 268 278 201 q 275 406 269 335 m 217 1044 q 172 1058 193 1044 q 151 1099 151 1071 q 166 1137 151 1122 q 206 1151 181 1151 l 219 1151 q 252 1124 239 1143 q 265 1085 265 1104 q 257 1060 265 1071 q 236 1044 249 1049 l 217 1044 m 443 1040 q 399 1056 422 1040 q 375 1094 375 1071 q 383 1114 375 1106 q 401 1128 390 1122 q 423 1138 411 1135 q 443 1140 435 1140 l 457 1140 q 486 1079 486 1115 q 443 1040 486 1040 z "},"":{"ha":632,"x_min":14,"x_max":618,"o":"m 219 231 q 181 213 194 231 q 159 169 167 196 q 146 113 151 143 q 131 57 140 83 q 106 13 122 31 q 60 -4 89 -4 q 25 13 36 -4 q 14 53 14 31 q 19 93 14 74 q 30 133 24 113 q 42 172 36 153 q 47 213 47 192 q 44 244 47 228 q 42 276 42 260 q 49 299 42 288 q 65 322 56 311 q 83 342 74 333 q 97 358 92 351 q 108 384 104 368 q 115 419 113 400 q 117 457 117 438 q 118 493 118 476 q 119 515 118 504 q 121 532 119 525 q 124 542 122 533 q 126 554 125 551 q 149 624 140 596 q 167 693 158 653 q 172 735 168 706 q 182 799 176 765 q 192 863 188 833 q 200 906 197 893 q 216 933 206 922 q 244 944 226 944 q 276 933 264 944 q 294 906 288 922 l 467 425 q 474 397 468 417 q 485 356 479 378 q 498 314 492 333 q 507 286 504 294 q 535 226 517 251 q 572 174 554 200 q 604 119 590 149 q 618 46 618 89 q 604 7 618 22 q 565 -8 590 -8 q 517 15 538 -8 q 481 70 497 38 q 449 137 464 103 q 417 192 433 171 q 392 212 408 204 q 354 224 375 219 q 310 229 333 228 q 267 231 288 231 l 219 231 l 219 231 m 208 369 q 213 361 208 363 q 223 360 217 360 q 236 363 229 361 q 250 364 243 365 q 267 359 254 363 q 294 353 279 356 q 324 347 310 350 q 344 342 338 343 l 354 342 l 361 342 q 376 353 368 344 q 383 364 385 361 l 300 610 q 292 624 297 617 q 278 632 286 632 q 255 619 263 632 q 244 593 247 607 q 237 551 242 583 q 226 484 232 519 q 216 417 221 449 q 210 380 211 385 q 209 373 210 375 q 208 369 208 371 m 411 1011 q 417 970 418 988 q 392 946 415 953 q 347 953 374 942 q 293 986 319 965 q 245 1032 267 1007 q 218 1079 224 1057 q 239 1126 206 1115 q 266 1127 251 1131 q 295 1116 281 1124 q 323 1099 310 1108 q 347 1083 336 1090 q 387 1055 371 1069 q 411 1011 403 1040 z "},"":{"ha":632,"x_min":14,"x_max":618,"o":"m 219 236 q 181 219 194 236 q 159 175 167 201 q 146 119 151 149 q 131 63 140 89 q 106 19 122 36 q 60 1 89 1 q 25 19 36 1 q 14 58 14 36 q 19 99 14 79 q 30 138 24 118 q 42 178 36 158 q 47 218 47 197 q 44 249 47 233 q 42 282 42 265 q 49 305 42 293 q 65 328 56 317 q 83 348 74 339 q 97 364 92 357 q 108 390 104 374 q 115 424 113 406 q 117 463 117 443 q 118 499 118 482 q 119 520 118 510 q 121 538 119 531 q 124 548 122 539 q 126 560 125 557 q 149 630 140 601 q 167 699 158 658 q 172 741 168 711 q 182 805 176 771 q 192 869 188 839 q 200 911 197 899 q 216 939 206 928 q 244 950 226 950 q 276 939 264 950 q 294 911 288 928 l 467 431 q 474 403 468 422 q 485 361 479 383 q 498 319 492 339 q 507 292 504 300 q 535 231 517 257 q 572 180 554 206 q 604 124 590 154 q 618 51 618 94 q 604 13 618 28 q 565 -3 590 -3 q 517 20 538 -3 q 481 76 497 43 q 449 142 464 108 q 417 197 433 176 q 392 217 408 210 q 354 229 375 225 q 310 235 333 233 q 267 236 288 236 l 219 236 l 219 236 m 208 375 q 213 367 208 368 q 223 366 217 365 q 236 369 229 367 q 250 369 243 371 q 267 365 254 368 q 294 358 279 361 q 324 352 310 356 q 344 347 338 349 l 354 347 l 361 347 q 376 358 368 350 q 383 369 385 367 l 300 615 q 292 630 297 622 q 278 638 286 638 q 255 625 263 638 q 244 599 247 613 q 237 557 242 589 q 226 490 232 525 q 216 422 221 454 q 210 385 211 390 q 209 378 210 381 q 208 375 208 376 m 354 1165 q 394 1158 378 1165 q 411 1128 411 1151 q 392 1088 411 1110 q 346 1045 374 1065 q 288 1012 318 1025 q 235 999 257 999 q 196 1032 196 999 q 203 1058 196 1044 q 222 1083 211 1071 q 245 1105 233 1094 q 267 1124 257 1115 q 305 1154 286 1143 q 354 1165 324 1165 z "},"":{"ha":632,"x_min":14,"x_max":618,"o":"m 219 233 q 181 216 194 233 q 159 172 167 199 q 146 116 151 146 q 131 60 140 86 q 106 16 122 33 q 60 -1 89 -1 q 25 16 36 -1 q 14 56 14 33 q 19 96 14 76 q 30 135 24 115 q 42 175 36 156 q 47 215 47 194 q 44 247 47 231 q 42 279 42 263 q 49 302 42 290 q 65 325 56 314 q 83 345 74 336 q 97 361 92 354 q 108 387 104 371 q 115 422 113 403 q 117 460 117 440 q 118 496 118 479 q 119 517 118 507 q 121 535 119 528 q 124 545 122 536 q 126 557 125 554 q 149 627 140 599 q 167 696 158 656 q 172 738 168 708 q 182 802 176 768 q 192 866 188 836 q 200 908 197 896 q 216 936 206 925 q 244 947 226 947 q 276 936 264 947 q 294 908 288 925 l 467 428 q 474 400 468 419 q 485 358 479 381 q 498 317 492 336 q 507 289 504 297 q 535 228 517 254 q 572 177 554 203 q 604 122 590 151 q 618 49 618 92 q 604 10 618 25 q 565 -6 590 -6 q 517 17 538 -6 q 481 73 497 40 q 449 140 464 106 q 417 194 433 174 q 392 215 408 207 q 354 226 375 222 q 310 232 333 231 q 267 233 288 233 l 219 233 l 219 233 m 208 372 q 213 364 208 365 q 223 363 217 363 q 236 366 229 364 q 250 367 243 368 q 267 362 254 365 q 294 356 279 358 q 324 349 310 353 q 344 344 338 346 l 354 344 l 361 344 q 376 356 368 347 q 383 367 385 364 l 300 613 q 292 627 297 619 q 278 635 286 635 q 255 622 263 635 q 244 596 247 610 q 237 554 242 586 q 226 487 232 522 q 216 419 221 451 q 210 383 211 388 q 209 376 210 378 q 208 372 208 374 m 86 1032 q 94 1059 85 1047 q 113 1078 103 1071 q 124 1087 115 1081 q 142 1100 132 1093 q 160 1113 151 1107 q 171 1119 168 1118 l 240 1193 q 252 1199 247 1200 q 264 1199 257 1197 q 294 1192 281 1199 q 318 1175 307 1185 q 340 1153 329 1165 q 361 1133 350 1142 q 368 1127 367 1129 q 370 1123 369 1125 q 374 1118 371 1121 q 386 1110 378 1115 q 410 1094 396 1101 q 437 1079 424 1088 q 460 1060 450 1071 q 469 1033 469 1049 q 458 1005 471 1017 q 425 992 444 993 q 399 996 413 990 q 372 1010 386 1001 q 347 1027 358 1018 q 326 1042 335 1036 q 315 1054 317 1049 q 301 1067 313 1060 q 281 1077 290 1074 q 261 1079 272 1081 q 249 1078 254 1079 q 236 1068 243 1076 q 222 1052 225 1057 q 215 1044 218 1047 q 208 1035 213 1040 q 192 1019 204 1031 q 169 1001 179 1008 q 139 993 158 994 q 103 1002 119 992 q 86 1032 88 1013 z "},"":{"ha":632,"x_min":14,"x_max":618,"o":"m 219 232 q 181 215 194 232 q 159 171 167 197 q 146 115 151 144 q 131 58 140 85 q 106 15 122 32 q 60 -3 89 -3 q 25 15 36 -3 q 14 54 14 32 q 19 94 14 75 q 30 134 24 114 q 42 174 36 154 q 47 214 47 193 q 44 245 47 229 q 42 278 42 261 q 49 301 42 289 q 65 324 56 313 q 83 344 74 335 q 97 360 92 353 q 108 385 104 369 q 115 420 113 401 q 117 458 117 439 q 118 494 118 478 q 119 516 118 506 q 121 533 119 526 q 124 544 122 535 q 126 556 125 553 q 149 626 140 597 q 167 694 158 654 q 172 737 168 707 q 182 801 176 767 q 192 865 188 835 q 200 907 197 894 q 216 935 206 924 q 244 946 226 946 q 276 935 264 946 q 294 907 288 924 l 467 426 q 474 399 468 418 q 485 357 479 379 q 498 315 492 335 q 507 288 504 296 q 535 227 517 253 q 572 176 554 201 q 604 120 590 150 q 618 47 618 90 q 604 8 618 24 q 565 -7 590 -7 q 517 16 538 -7 q 481 72 497 39 q 449 138 464 104 q 417 193 433 172 q 392 213 408 206 q 354 225 375 221 q 310 231 333 229 q 267 232 288 232 l 219 232 l 219 232 m 208 371 q 213 363 208 364 q 223 362 217 361 q 236 365 229 363 q 250 365 243 367 q 267 360 254 364 q 294 354 279 357 q 324 348 310 351 q 344 343 338 344 l 354 343 l 361 343 q 376 354 368 346 q 383 365 385 363 l 300 611 q 292 626 297 618 q 278 633 286 633 q 255 621 263 633 q 244 594 247 608 q 237 553 242 585 q 226 485 232 521 q 216 418 221 450 q 210 381 211 386 q 209 374 210 376 q 208 371 208 372 m 224 1104 q 215 1100 221 1103 q 207 1096 210 1097 q 149 1051 169 1065 q 117 1033 128 1038 q 101 1028 106 1028 q 94 1029 97 1029 q 74 1046 74 1029 l 72 1053 q 91 1072 81 1065 q 113 1086 101 1078 q 139 1110 125 1097 q 167 1135 153 1124 q 198 1156 182 1147 q 232 1167 214 1165 q 267 1151 260 1168 q 280 1115 275 1135 q 294 1080 285 1096 q 338 1067 304 1064 q 380 1074 357 1068 q 418 1093 403 1079 q 425 1101 419 1094 q 437 1114 431 1107 q 449 1127 443 1121 q 456 1135 454 1133 q 467 1144 463 1142 q 479 1149 471 1147 q 496 1147 490 1153 q 502 1131 501 1142 q 499 1107 503 1121 q 486 1079 494 1093 q 422 1022 458 1036 q 338 1006 386 1008 q 282 1019 300 1003 q 256 1054 264 1035 q 242 1090 247 1074 q 224 1104 238 1106 z "},"":{"ha":633,"x_min":14,"x_max":618,"o":"m 219 235 q 181 217 194 235 q 159 174 167 200 q 146 117 151 147 q 131 61 140 88 q 106 17 122 35 q 60 0 89 0 q 25 17 36 0 q 14 57 14 35 q 19 97 14 78 q 30 137 24 117 q 42 176 36 157 q 47 217 47 196 q 44 248 47 232 q 42 281 42 264 q 49 303 42 292 q 65 326 56 315 q 83 347 74 338 q 97 363 92 356 q 108 388 104 372 q 115 423 113 404 q 117 461 117 442 q 118 497 118 481 q 119 519 118 508 q 121 536 119 529 q 124 547 122 538 q 126 558 125 556 q 149 628 140 600 q 167 697 158 657 q 172 740 168 710 q 182 803 176 769 q 192 867 188 838 q 200 910 197 897 q 216 938 206 926 q 244 949 226 949 q 276 938 264 949 q 294 910 288 926 l 467 429 q 474 401 468 421 q 485 360 479 382 q 498 318 492 338 q 507 290 504 299 q 535 230 517 256 q 572 178 554 204 q 604 123 590 153 q 618 50 618 93 q 604 11 618 26 q 565 -4 590 -4 q 517 19 538 -4 q 481 74 497 42 q 449 141 464 107 q 417 196 433 175 q 392 216 408 208 q 354 228 375 224 q 310 233 333 232 q 267 235 288 235 l 219 235 l 219 235 m 208 374 q 213 365 208 367 q 223 365 217 364 q 236 367 229 365 q 250 368 243 369 q 267 363 254 367 q 294 357 279 360 q 324 351 310 354 q 344 346 338 347 l 354 346 l 361 346 q 376 357 368 349 q 383 368 385 365 l 300 614 q 292 628 297 621 q 278 636 286 636 q 255 624 263 636 q 244 597 247 611 q 237 556 242 588 q 226 488 232 524 q 216 421 221 453 q 210 384 211 389 q 209 377 210 379 q 208 374 208 375 m 401 1006 q 357 1021 381 1006 q 333 1060 333 1036 q 341 1079 333 1071 q 359 1094 349 1088 q 381 1103 369 1100 q 401 1106 393 1106 l 415 1106 q 444 1044 444 1081 q 401 1006 444 1006 m 175 1010 q 131 1023 151 1010 q 110 1064 110 1036 q 124 1102 110 1088 q 164 1117 139 1117 l 178 1117 q 210 1089 197 1108 q 224 1050 224 1069 q 215 1025 224 1036 q 194 1010 207 1014 l 175 1010 z "},"":{"ha":635,"x_min":14,"x_max":618,"o":"m 219 235 q 181 217 194 235 q 159 174 167 200 q 146 117 151 147 q 131 61 140 88 q 106 17 122 35 q 60 0 89 0 q 25 17 36 0 q 14 57 14 35 q 19 97 14 78 q 30 137 24 117 q 42 176 36 157 q 47 217 47 196 q 44 248 47 232 q 42 281 42 264 q 49 303 42 292 q 65 326 56 315 q 83 347 74 338 q 97 363 92 356 q 108 388 104 372 q 115 423 113 404 q 117 461 117 442 q 118 497 118 481 q 119 519 118 508 q 121 536 119 529 q 124 547 122 538 q 126 558 125 556 q 149 628 140 600 q 167 697 158 657 q 172 740 168 710 q 182 803 176 769 q 192 867 188 838 q 200 910 197 897 q 216 938 206 926 q 244 949 226 949 q 276 938 264 949 q 294 910 288 926 l 467 429 q 474 401 468 421 q 485 360 479 382 q 498 318 492 338 q 507 290 504 299 q 535 230 517 256 q 572 178 554 204 q 604 123 590 153 q 618 50 618 93 q 604 11 618 26 q 565 -4 590 -4 q 517 19 538 -4 q 481 74 497 42 q 449 141 464 107 q 417 196 433 175 q 392 216 408 208 q 354 228 375 224 q 310 233 333 232 q 267 235 288 235 l 219 235 l 219 235 m 151 1151 q 160 1176 160 1164 q 181 1196 160 1189 q 210 1201 196 1201 q 239 1201 224 1201 q 303 1192 274 1211 q 351 1146 333 1174 q 378 1100 375 1126 q 368 1050 381 1074 q 333 1013 356 1026 q 281 1004 310 999 q 219 1006 249 996 q 170 1039 190 1017 q 143 1091 150 1061 q 151 1151 136 1121 m 208 374 q 213 365 208 367 q 223 365 217 364 q 236 367 229 365 q 250 368 243 369 q 267 363 254 367 q 294 357 279 360 q 324 351 310 354 q 344 346 338 347 l 361 346 q 376 357 368 349 q 383 368 385 365 l 300 614 q 292 628 297 621 q 278 636 286 636 q 255 624 263 636 q 244 597 247 611 q 237 556 242 588 q 226 488 232 524 q 216 421 221 453 q 210 384 211 389 q 209 377 210 379 q 208 374 208 375 m 288 1117 q 266 1126 279 1124 q 238 1128 253 1129 q 219 1110 226 1121 q 215 1086 213 1100 q 226 1082 219 1086 q 239 1073 232 1078 q 253 1065 246 1068 q 268 1065 261 1063 q 273 1069 268 1067 q 281 1075 278 1072 q 285 1078 282 1075 q 287 1097 288 1086 q 288 1117 286 1107 z "},"":{"ha":1317,"x_min":14,"x_max":1303,"o":"m 644 396 q 625 424 640 413 q 594 436 610 436 l 589 436 q 583 435 585 436 q 454 410 521 421 q 321 401 388 400 q 299 387 310 396 q 282 368 289 378 q 213 220 250 297 q 147 67 176 143 q 119 9 136 35 q 64 -17 101 -17 q 28 -8 42 -17 q 14 26 14 1 q 19 53 14 39 q 33 81 25 67 q 50 108 42 94 q 64 129 58 121 l 421 949 q 434 984 426 965 q 452 1019 442 1003 q 478 1045 463 1035 q 514 1056 493 1056 q 546 1044 532 1056 q 572 1019 560 1032 q 598 994 585 1006 q 628 982 611 982 l 940 982 q 956 985 944 983 q 982 988 968 986 q 1008 992 996 990 q 1024 993 1019 993 l 1035 993 q 1090 970 1072 993 q 1108 914 1108 947 l 1108 901 q 1107 893 1108 893 l 1090 876 q 1068 875 1074 875 q 1031 878 1049 875 q 994 882 1014 882 q 819 876 907 882 q 644 871 732 871 q 625 858 633 868 q 617 838 617 849 l 617 832 l 694 619 q 713 588 700 606 q 744 569 726 569 l 1046 569 q 1078 566 1061 569 q 1110 556 1096 563 q 1133 536 1124 549 q 1142 506 1142 524 q 1130 478 1142 488 q 1101 464 1118 469 q 1083 463 1099 463 l 1065 463 q 1017 466 1040 463 q 968 469 993 469 q 876 465 922 469 q 783 458 829 460 q 759 439 768 453 q 750 410 750 425 l 750 396 q 760 358 753 385 q 775 301 767 331 q 790 244 783 271 q 800 207 797 217 q 807 185 803 199 q 816 157 811 171 q 824 133 821 143 q 829 124 828 124 l 863 89 l 885 89 q 968 94 926 89 q 1051 106 1010 100 q 1135 118 1093 113 q 1219 124 1176 124 l 1258 124 q 1303 67 1303 108 q 1282 22 1303 38 q 1233 6 1261 6 q 1201 8 1217 6 q 1169 11 1185 11 l 1153 11 q 1090 2 1135 8 q 996 -11 1046 -4 q 901 -24 946 -18 q 840 -33 857 -31 q 826 -36 838 -33 q 811 -39 814 -39 l 792 -39 q 747 -21 761 -39 q 728 23 733 -3 q 722 76 722 49 q 717 124 721 104 q 713 135 717 125 q 706 156 710 144 q 698 178 701 168 q 694 190 694 188 q 685 231 692 201 q 669 293 678 260 q 654 356 661 326 q 644 396 647 385 m 349 542 q 367 520 351 522 q 394 518 382 518 q 441 520 408 518 q 508 529 474 522 q 568 549 542 536 q 594 583 594 561 l 594 592 l 522 799 q 510 821 518 810 q 488 832 503 832 q 478 830 481 832 q 471 821 476 828 l 449 776 q 431 737 444 767 q 403 672 418 707 q 374 605 388 638 q 354 558 360 572 l 349 542 z "},"":{"ha":807,"x_min":8,"x_max":796,"o":"m 235 -203 q 240 -190 229 -196 q 271 -180 251 -185 q 314 -169 290 -175 q 358 -157 338 -164 q 390 -141 378 -150 q 397 -118 401 -132 q 381 -98 394 -107 q 358 -79 368 -89 l 354 -61 q 351 -8 344 -36 q 193 60 260 8 q 85 187 126 113 q 26 349 43 261 q 17 525 8 438 q 56 688 25 617 q 156 822 88 758 q 172 838 161 828 q 194 856 182 847 q 220 872 207 865 q 244 876 233 878 l 378 864 q 400 847 389 863 q 414 821 411 832 q 415 809 414 818 q 417 790 415 800 q 419 770 418 779 q 419 760 419 761 q 422 747 419 757 q 428 725 425 736 q 435 703 432 714 q 440 690 439 693 q 444 660 446 672 q 440 629 443 649 l 436 589 q 417 568 428 578 q 389 560 406 558 q 347 596 358 563 q 330 669 336 629 q 314 742 324 708 q 276 778 304 775 q 233 765 253 781 q 197 735 213 750 q 135 635 154 694 q 111 518 117 575 q 153 276 99 383 q 324 101 207 168 q 365 85 344 90 q 408 76 385 79 q 472 80 439 74 q 539 97 506 86 q 604 122 572 108 q 665 147 636 136 q 709 170 686 158 q 756 179 732 182 q 792 138 796 176 l 790 125 q 776 112 788 121 q 761 100 765 103 q 619 28 686 61 q 476 -14 553 -4 q 481 -43 481 -31 q 481 -57 481 -50 q 482 -75 481 -65 q 473 -143 481 -115 q 435 -201 465 -171 q 413 -208 433 -204 q 368 -217 392 -212 q 324 -226 344 -222 q 279 -226 304 -229 q 251 -220 265 -226 q 235 -203 238 -214 z "},"":{"ha":618,"x_min":11,"x_max":606,"o":"m 14 208 q 30 294 15 249 q 72 371 44 339 q 109 404 83 383 q 160 447 135 425 q 206 490 186 469 q 226 519 226 510 q 214 545 228 532 q 180 574 200 558 q 135 606 160 589 q 92 646 111 624 q 59 695 72 668 q 49 757 46 722 q 72 828 51 801 q 122 871 92 856 q 190 890 153 886 q 263 893 226 894 q 327 883 286 892 q 408 857 368 874 q 475 815 447 840 q 501 754 503 789 q 492 721 500 736 q 464 707 485 706 q 429 719 444 708 q 400 744 414 731 q 371 768 386 757 q 336 781 356 779 l 201 788 q 164 778 185 790 q 143 747 143 767 q 150 725 142 736 q 164 707 158 714 q 235 645 193 668 q 319 610 276 622 q 346 602 325 608 q 391 589 367 596 q 436 576 415 582 q 463 568 457 569 q 498 549 482 563 q 511 515 514 535 q 494 482 510 493 q 457 466 478 471 q 414 460 436 461 q 378 454 392 458 q 289 421 335 442 q 205 370 243 400 q 142 301 167 340 q 114 210 117 261 q 129 156 113 178 q 172 118 146 133 q 228 95 197 103 q 283 86 258 88 l 314 83 q 332 86 318 83 q 362 92 346 89 q 392 99 378 96 q 410 101 406 101 q 418 103 414 103 q 425 103 422 103 q 442 108 428 104 q 476 122 460 113 q 507 142 492 132 q 538 158 522 151 q 574 164 554 165 q 604 131 606 161 q 572 78 603 103 q 502 34 542 53 q 423 4 463 15 q 365 -7 383 -7 q 351 -9 358 -8 q 336 -10 343 -10 l 311 -10 l 258 -7 q 166 9 211 -4 q 86 49 121 22 q 31 115 51 75 q 14 208 11 154 m 414 1008 q 419 967 421 985 q 394 943 418 950 q 349 951 376 939 q 296 983 322 963 q 248 1029 269 1004 q 221 1076 226 1054 q 242 1124 208 1113 q 269 1124 254 1128 q 298 1113 283 1121 q 326 1097 313 1106 q 350 1081 339 1088 q 390 1052 374 1067 q 414 1008 406 1038 z "},"":{"ha":618,"x_min":11,"x_max":606,"o":"m 14 208 q 30 294 15 249 q 72 371 44 339 q 109 404 83 383 q 160 447 135 425 q 206 490 186 469 q 226 519 226 510 q 214 545 228 532 q 180 574 200 558 q 135 606 160 589 q 92 646 111 624 q 59 695 72 668 q 49 757 46 722 q 72 828 51 801 q 122 871 92 856 q 190 890 153 886 q 263 893 226 894 q 327 883 286 892 q 408 857 368 874 q 475 815 447 840 q 501 754 503 789 q 492 721 500 736 q 464 707 485 706 q 429 719 444 708 q 400 744 414 731 q 371 768 386 757 q 336 781 356 779 l 201 788 q 164 778 185 790 q 143 747 143 767 q 150 725 142 736 q 164 707 158 714 q 235 645 193 668 q 319 610 276 622 q 346 602 325 608 q 391 589 367 596 q 436 576 415 582 q 463 568 457 569 q 498 549 482 563 q 511 515 514 535 q 494 482 510 493 q 457 466 478 471 q 414 460 436 461 q 378 454 392 458 q 289 421 335 442 q 205 370 243 400 q 142 301 167 340 q 114 210 117 261 q 129 156 113 178 q 172 118 146 133 q 228 95 197 103 q 283 86 258 88 l 314 83 q 332 86 318 83 q 362 92 346 89 q 392 99 378 96 q 410 101 406 101 q 418 103 414 103 q 425 103 422 103 q 442 108 428 104 q 476 122 460 113 q 507 142 492 132 q 538 158 522 151 q 574 164 554 165 q 604 131 606 161 q 572 78 603 103 q 502 34 542 53 q 423 4 463 15 q 365 -7 383 -7 q 351 -9 358 -8 q 336 -10 343 -10 l 311 -10 l 258 -7 q 166 9 211 -4 q 86 49 121 22 q 31 115 51 75 q 14 208 11 154 m 371 1118 q 411 1111 394 1118 q 428 1081 428 1104 q 409 1040 428 1063 q 363 998 390 1018 q 304 965 335 978 q 251 951 274 951 q 213 985 213 951 q 220 1010 213 997 q 239 1035 228 1024 q 262 1058 250 1047 q 283 1076 274 1068 q 322 1107 303 1096 q 371 1118 340 1118 z "},"":{"ha":618,"x_min":11,"x_max":606,"o":"m 14 217 q 30 302 15 257 q 72 379 44 347 q 109 413 83 392 q 160 456 135 433 q 206 498 186 478 q 226 528 226 518 q 214 553 228 540 q 180 582 200 567 q 135 615 160 597 q 92 654 111 632 q 59 703 72 676 q 49 765 46 731 q 72 837 51 810 q 122 879 92 864 q 190 899 153 894 q 263 901 226 903 q 327 891 286 900 q 408 865 368 882 q 475 823 447 849 q 501 763 503 797 q 492 729 500 744 q 464 715 485 714 q 429 728 444 717 q 400 752 414 739 q 371 776 386 765 q 336 789 356 788 l 201 796 q 164 787 185 799 q 143 756 143 775 q 150 733 142 744 q 164 715 158 722 q 235 653 193 676 q 319 618 276 631 q 346 610 325 617 q 391 597 367 604 q 436 584 415 590 q 463 576 457 578 q 498 557 482 571 q 511 524 514 543 q 494 490 510 501 q 457 474 478 479 q 414 468 436 469 q 378 463 392 467 q 289 429 335 450 q 205 378 243 408 q 142 309 167 349 q 114 218 117 269 q 129 164 113 186 q 172 126 146 142 q 228 103 197 111 q 283 94 258 96 l 314 92 q 332 94 318 92 q 362 101 346 97 q 392 107 378 104 q 410 110 406 110 q 418 111 414 111 q 425 112 422 111 q 442 117 428 113 q 476 131 460 121 q 507 150 492 140 q 538 167 522 160 q 574 172 554 174 q 604 139 606 169 q 572 86 603 111 q 502 42 542 61 q 423 13 463 24 q 365 1 383 1 q 351 -1 358 0 q 336 -1 343 -1 l 311 -1 l 258 1 q 166 17 211 4 q 86 57 121 31 q 31 123 51 83 q 14 217 11 163 m 117 982 q 124 1009 115 997 q 143 1028 133 1021 q 154 1037 146 1031 q 172 1050 163 1043 q 190 1063 182 1057 q 201 1069 199 1068 l 271 1143 q 283 1149 278 1150 q 294 1149 288 1147 q 324 1142 311 1149 q 349 1125 338 1135 q 370 1103 360 1115 q 392 1083 381 1092 q 399 1077 397 1079 q 401 1073 400 1075 q 405 1068 401 1071 q 417 1060 408 1065 q 440 1044 426 1051 q 467 1029 454 1038 q 490 1010 481 1021 q 500 983 500 999 q 488 955 501 967 q 456 942 475 943 q 430 946 443 940 q 403 960 417 951 q 377 977 389 968 q 357 992 365 986 q 345 1004 347 999 q 332 1017 343 1010 q 312 1027 321 1024 q 292 1029 303 1031 q 279 1028 285 1029 q 267 1018 274 1026 q 252 1002 256 1007 q 246 994 249 997 q 239 985 243 990 q 222 969 235 981 q 199 951 210 958 q 169 943 189 944 q 134 952 150 942 q 117 982 118 963 z "},"":{"ha":618,"x_min":11,"x_max":606,"o":"m 14 211 q 30 297 15 251 q 72 374 44 342 q 109 407 83 386 q 160 450 135 428 q 206 492 186 472 q 226 522 226 513 q 214 548 228 535 q 180 576 200 561 q 135 609 160 592 q 92 649 111 626 q 59 698 72 671 q 49 760 46 725 q 72 831 51 804 q 122 874 92 858 q 190 893 153 889 q 263 896 226 897 q 327 885 286 894 q 408 860 368 876 q 475 817 447 843 q 501 757 503 792 q 492 724 500 739 q 464 710 485 708 q 429 722 444 711 q 400 747 414 733 q 371 771 386 760 q 336 783 356 782 l 201 790 q 164 781 185 793 q 143 750 143 769 q 150 728 142 739 q 164 710 158 717 q 235 648 193 671 q 319 613 276 625 q 346 605 325 611 q 391 592 367 599 q 436 578 415 585 q 463 571 457 572 q 498 551 482 565 q 511 518 514 538 q 494 485 510 496 q 457 469 478 474 q 414 463 436 464 q 378 457 392 461 q 289 424 335 444 q 205 373 243 403 q 142 303 167 343 q 114 213 117 264 q 129 158 113 181 q 172 121 146 136 q 228 98 197 106 q 283 89 258 90 l 314 86 q 332 89 318 86 q 362 95 346 92 q 392 101 378 99 q 410 104 406 104 q 418 106 414 106 q 425 106 422 106 q 442 111 428 107 q 476 125 460 115 q 507 144 492 135 q 538 161 522 154 q 574 167 554 168 q 604 133 606 164 q 572 81 603 106 q 502 37 542 56 q 423 7 463 18 q 365 -4 383 -4 q 351 -6 358 -6 q 336 -7 343 -7 l 311 -7 l 258 -4 q 166 12 211 -1 q 86 51 121 25 q 31 117 51 78 q 14 211 11 157 m 422 936 q 378 951 401 936 q 354 990 354 967 q 362 1010 354 1001 q 380 1024 369 1018 q 402 1033 390 1031 q 422 1036 414 1036 l 436 1036 q 465 975 465 1011 q 422 936 465 936 m 196 940 q 151 953 172 940 q 131 994 131 967 q 145 1033 131 1018 q 185 1047 160 1047 l 199 1047 q 231 1019 218 1039 q 244 981 244 1000 q 236 956 244 967 q 215 940 228 944 l 196 940 z "},"":{"ha":229,"x_min":4,"x_max":217,"o":"m 61 163 q 70 328 61 246 q 79 493 79 410 l 79 507 q 78 528 79 517 q 78 550 78 540 l 78 565 q 49 656 56 613 q 42 754 42 699 l 42 785 q 49 831 42 811 q 83 851 56 851 q 121 834 106 851 q 145 790 136 817 q 159 731 154 764 q 166 668 164 699 q 169 613 168 638 q 174 576 171 588 l 174 554 q 174 522 174 539 q 175 488 175 504 l 175 467 q 165 312 175 388 q 156 157 156 236 q 155 105 156 129 q 154 56 154 81 q 142 28 154 38 q 114 18 131 18 q 88 26 97 18 q 72 46 78 33 q 65 74 67 58 q 61 106 63 89 l 61 163 m 210 997 q 215 956 217 974 q 190 932 214 939 q 145 940 172 928 q 92 972 118 951 q 44 1018 65 993 q 17 1065 22 1043 q 38 1113 4 1101 q 65 1113 50 1117 q 94 1102 79 1110 q 122 1085 108 1094 q 146 1069 135 1076 q 185 1041 169 1056 q 210 997 201 1026 z "},"":{"ha":243,"x_min":14,"x_max":229,"o":"m 83 99 l 83 156 q 92 321 83 239 q 101 486 101 403 l 101 500 q 101 522 101 510 q 100 543 100 533 l 100 558 q 71 649 78 606 q 64 747 64 692 l 64 778 q 71 824 64 804 q 106 844 78 844 q 143 827 128 844 q 167 783 158 810 q 181 724 176 757 q 188 661 186 692 q 192 606 190 631 q 196 569 193 581 l 196 547 q 197 515 196 532 q 197 481 197 497 l 197 460 q 188 305 197 381 q 178 150 178 229 q 177 98 178 122 q 176 49 176 74 q 165 21 176 31 q 136 11 153 11 q 110 19 119 11 q 94 39 100 26 q 87 67 89 51 q 83 99 85 82 m 172 1114 q 213 1107 196 1114 q 229 1076 229 1100 q 210 1036 229 1058 q 164 994 192 1014 q 106 960 136 974 q 53 947 75 947 q 14 981 14 947 q 22 1006 14 993 q 40 1031 29 1019 q 63 1053 51 1043 q 85 1072 75 1064 q 123 1103 104 1092 q 172 1114 142 1114 z "},"":{"ha":411,"x_min":13,"x_max":399,"o":"m 150 147 q 159 313 150 231 q 168 478 168 394 l 168 492 q 167 513 168 501 q 167 535 167 525 l 167 550 q 138 640 144 597 q 131 739 131 683 l 131 769 q 138 816 131 796 q 172 836 144 836 q 210 819 194 836 q 234 775 225 801 q 248 716 243 749 q 255 653 253 683 q 258 597 257 622 q 263 561 260 572 l 263 539 q 263 506 263 524 q 264 472 264 489 l 264 451 q 254 297 264 372 q 244 142 244 221 q 244 90 244 114 q 243 40 243 65 q 231 13 243 22 q 203 3 219 3 q 176 10 186 3 q 161 31 167 18 q 153 58 156 43 q 150 90 151 74 l 150 147 m 14 911 q 22 938 13 926 q 40 957 31 950 q 51 966 43 960 q 69 979 60 972 q 88 992 79 986 q 99 999 96 997 l 168 1072 q 180 1078 175 1079 q 192 1078 185 1076 q 222 1071 208 1078 q 246 1054 235 1064 q 267 1033 257 1044 q 289 1013 278 1021 q 296 1006 294 1008 q 298 1002 297 1004 q 302 997 299 1000 q 314 989 306 994 q 338 974 324 981 q 365 958 351 967 q 388 939 378 950 q 397 913 397 928 q 385 884 399 896 q 353 871 372 872 q 327 875 340 869 q 300 889 314 881 q 274 906 286 897 q 254 921 263 915 q 242 933 244 928 q 229 946 240 939 q 209 956 218 953 q 189 958 200 960 q 176 957 182 958 q 164 947 171 956 q 149 931 153 936 q 143 923 146 926 q 136 915 140 919 q 119 899 132 910 q 97 881 107 888 q 67 872 86 874 q 31 881 47 871 q 14 911 15 892 z "},"":{"ha":363,"x_min":14,"x_max":349,"o":"m 139 165 q 148 331 139 249 q 157 496 157 413 l 157 510 q 156 531 157 519 q 156 553 156 543 l 156 568 q 126 658 133 615 q 119 757 119 701 l 119 788 q 126 834 119 814 q 161 854 133 854 q 199 837 183 854 q 223 793 214 819 q 237 734 232 767 q 244 671 242 701 q 247 615 246 640 q 251 579 249 590 l 251 557 q 252 524 251 542 q 253 490 253 507 l 253 469 q 243 315 253 390 q 233 160 233 239 q 233 108 233 132 q 232 58 232 83 q 220 31 232 40 q 192 21 208 21 q 165 28 175 21 q 150 49 156 36 q 142 76 144 61 q 139 108 140 92 l 139 165 m 306 911 q 261 926 285 911 q 238 965 238 942 q 245 985 238 976 q 263 999 253 993 q 285 1008 274 1006 q 306 1011 297 1011 l 319 1011 q 349 950 349 986 q 306 911 349 911 m 79 915 q 35 928 56 915 q 14 969 14 942 q 28 1008 14 993 q 68 1022 43 1022 l 82 1022 q 115 994 101 1014 q 128 956 128 975 q 119 931 128 942 q 99 915 111 919 l 79 915 z "},"":{"ha":921,"x_min":11,"x_max":911,"o":"m 49 440 q 22 465 33 449 q 15 500 11 481 q 47 538 21 528 q 99 542 72 549 l 106 540 q 126 531 111 538 q 159 519 142 525 q 192 507 176 513 q 211 500 207 501 l 217 499 q 226 775 208 643 q 200 817 222 801 q 153 847 178 833 q 110 876 129 860 q 94 921 92 892 q 109 953 97 940 q 140 963 121 965 q 178 951 158 960 q 214 933 199 942 l 549 733 q 663 651 599 704 q 783 535 726 599 q 875 401 839 471 q 906 264 911 331 q 881 179 901 215 q 824 111 860 143 l 732 35 q 688 15 713 19 q 639 6 664 11 q 617 1 635 4 q 581 -7 600 -3 q 546 -15 563 -11 q 525 -19 529 -18 q 474 -22 493 -24 l 424 -17 l 407 -15 q 388 -12 397 -14 q 369 -10 378 -11 l 363 -10 q 346 -6 360 -10 q 315 2 332 -3 q 280 13 297 7 q 254 21 263 18 q 221 36 242 26 q 181 58 200 46 q 150 86 163 71 q 140 121 138 101 q 176 153 143 154 q 204 143 192 150 q 232 135 217 136 q 263 156 253 133 q 225 392 240 275 q 138 411 181 401 q 49 440 94 421 m 310 703 q 306 592 303 647 q 317 479 310 538 l 469 449 q 494 427 482 447 q 504 394 507 407 q 485 365 500 375 q 451 350 471 354 l 422 356 q 378 363 400 358 q 335 369 356 367 l 332 369 q 334 353 333 361 q 336 338 335 346 q 339 319 338 333 q 342 288 340 304 q 346 256 344 271 q 349 236 347 240 q 352 223 349 233 q 360 200 356 213 q 369 178 365 188 q 375 167 374 168 q 378 134 381 150 q 385 103 375 118 q 405 82 396 86 q 433 75 414 78 q 535 81 474 71 q 656 115 597 90 q 760 178 715 139 q 811 271 804 217 q 799 340 815 303 q 758 411 783 376 q 706 476 733 446 q 657 525 678 506 q 635 544 650 532 q 606 567 621 556 q 579 589 592 579 q 564 601 567 599 q 537 619 557 606 q 492 648 517 632 q 447 678 468 664 q 420 697 425 693 q 408 703 415 700 q 393 712 401 707 q 376 722 385 717 q 363 729 367 726 l 346 736 q 322 726 333 738 q 310 703 311 714 z "},"":{"ha":788,"x_min":14,"x_max":774,"o":"m 14 753 q 15 827 14 796 q 19 904 15 858 q 34 928 22 917 q 58 939 46 939 q 95 920 82 939 q 115 876 108 901 q 126 826 122 851 q 136 788 131 801 q 333 356 326 369 q 350 324 340 342 q 370 289 360 306 q 388 264 381 272 q 417 220 399 244 q 457 174 435 196 q 505 138 479 153 q 557 124 531 124 q 625 153 599 124 q 665 223 651 182 q 684 308 679 264 q 689 383 689 353 l 689 447 q 685 519 688 468 q 681 626 683 569 q 676 734 678 683 q 672 804 674 785 q 665 847 669 826 q 660 888 660 867 q 660 899 660 890 q 661 910 661 907 q 674 917 668 917 l 689 917 q 712 908 703 917 q 726 885 721 899 q 735 858 732 872 q 739 832 738 843 q 749 767 743 807 q 760 687 754 726 q 769 618 765 647 q 772 588 772 589 l 772 568 q 773 531 772 551 q 774 488 774 510 l 774 453 l 774 426 q 773 386 774 407 q 772 346 772 365 l 772 319 q 756 225 768 276 q 722 128 744 174 q 662 53 699 83 q 571 24 625 24 q 499 37 535 24 q 433 72 464 50 q 376 122 401 94 q 332 179 350 150 q 303 225 321 196 q 267 284 285 254 q 235 337 249 314 q 221 364 222 360 q 206 394 217 372 q 184 442 196 417 q 162 489 172 467 q 147 519 151 511 q 144 525 147 525 q 141 526 142 525 q 139 526 140 526 q 122 515 125 526 q 119 493 119 504 q 134 303 119 397 q 149 113 149 208 l 149 82 q 140 31 149 56 q 100 7 131 7 q 76 15 86 7 q 58 35 65 24 q 46 66 50 44 q 40 115 42 88 q 37 171 38 142 q 36 224 36 200 l 36 281 l 36 397 q 24 574 33 486 q 14 753 14 661 m 319 1063 q 311 1058 317 1061 q 303 1054 306 1056 q 244 1010 265 1024 q 213 991 224 996 q 197 987 201 986 q 190 988 193 988 q 169 1004 169 988 l 168 1011 q 187 1030 176 1024 q 208 1044 197 1036 q 235 1069 221 1056 q 263 1094 249 1082 q 294 1115 278 1106 q 328 1125 310 1124 q 363 1110 356 1126 q 376 1074 371 1093 q 390 1038 381 1054 q 433 1025 400 1022 q 476 1032 453 1026 q 514 1051 499 1038 q 521 1059 515 1053 q 533 1072 526 1065 q 544 1085 539 1079 q 551 1093 550 1092 q 563 1103 558 1100 q 575 1107 567 1106 q 592 1106 586 1111 q 598 1090 597 1100 q 594 1065 599 1079 q 582 1038 590 1051 q 518 981 554 994 q 433 964 482 967 q 378 977 396 961 q 351 1013 360 993 q 338 1048 343 1032 q 319 1063 333 1064 z "},"":{"ha":599,"x_min":11,"x_max":588,"o":"m 54 140 l 51 160 q 45 192 49 175 q 39 221 42 208 l 36 242 q 17 388 24 318 q 15 524 11 457 q 38 658 19 590 q 94 796 57 725 q 105 813 96 800 q 124 840 114 825 q 145 871 135 856 q 161 896 156 886 q 188 918 169 910 q 225 931 206 926 q 263 936 244 935 q 288 938 281 938 q 310 930 290 938 q 352 910 329 922 q 395 883 375 897 q 421 854 415 868 l 528 707 q 559 640 550 676 q 575 567 568 603 q 585 447 588 493 q 567 362 582 400 q 528 282 553 324 q 472 176 504 240 q 429 116 453 146 q 378 61 406 86 q 317 18 350 36 q 247 -6 285 0 q 183 -1 214 -11 q 126 29 151 8 q 81 79 100 50 q 54 140 63 108 m 122 240 q 134 192 125 219 q 158 140 143 164 q 192 102 172 117 q 239 92 213 88 q 319 140 279 99 q 392 235 358 182 q 449 342 425 289 q 482 428 472 396 q 485 449 483 433 q 486 482 486 464 q 485 519 486 501 q 482 547 483 538 q 422 697 465 631 q 321 824 379 764 q 290 840 310 836 q 260 842 271 844 q 235 832 244 839 q 215 811 225 825 q 141 681 165 744 q 109 553 117 618 q 106 420 101 489 q 115 275 110 351 l 122 240 m 386 1029 q 392 988 393 1006 q 367 964 390 971 q 322 972 349 960 q 268 1004 294 983 q 220 1050 242 1025 q 193 1097 199 1075 q 214 1144 181 1133 q 241 1145 226 1149 q 270 1134 256 1142 q 298 1117 285 1126 q 322 1101 311 1108 q 362 1073 346 1088 q 386 1029 378 1058 z "},"":{"ha":601,"x_min":13,"x_max":589,"o":"m 53 146 q 47 178 50 161 q 40 207 43 194 l 38 228 q 19 374 25 304 q 17 510 13 443 q 40 644 21 576 q 96 782 58 711 q 106 799 97 786 q 126 826 115 811 q 147 857 136 842 q 163 882 157 872 q 189 904 171 896 q 226 917 207 913 q 264 922 246 921 q 289 924 282 924 q 311 916 292 924 q 353 896 331 908 q 397 869 376 883 q 422 840 417 854 l 529 693 q 560 626 551 663 q 576 553 569 589 q 586 432 589 478 q 569 348 583 386 q 530 268 554 310 q 474 163 506 226 q 431 102 454 132 q 379 47 407 72 q 319 4 351 22 q 249 -21 286 -14 q 184 -16 215 -26 q 127 15 153 -6 q 83 65 101 36 q 56 126 64 94 l 53 146 m 124 226 q 135 178 126 206 q 159 126 144 150 q 194 88 174 103 q 240 78 214 74 q 320 126 281 85 q 393 222 360 168 q 450 328 426 275 q 483 414 474 382 q 486 435 485 419 q 488 468 488 450 q 486 506 488 488 q 483 533 485 524 q 424 683 467 617 q 322 810 381 750 q 292 826 311 822 q 261 828 272 831 q 236 818 246 825 q 217 797 226 811 q 142 668 167 732 q 110 540 118 604 q 107 406 103 475 q 117 261 111 338 l 124 226 l 124 226 m 324 1122 q 364 1115 347 1122 q 381 1085 381 1108 q 362 1044 381 1067 q 315 1002 343 1022 q 257 969 288 982 q 204 956 226 956 q 165 989 165 956 q 173 1015 165 1001 q 192 1040 181 1028 q 215 1062 203 1051 q 236 1081 226 1072 q 274 1111 256 1100 q 324 1122 293 1122 z "},"":{"ha":599,"x_min":11,"x_max":588,"o":"m 51 158 q 45 190 49 174 q 39 219 42 207 l 36 240 q 17 386 24 317 q 15 522 11 456 q 38 656 19 589 q 94 794 57 724 q 105 811 96 799 q 124 839 114 824 q 145 869 135 854 q 161 894 156 885 q 188 917 169 908 q 225 929 206 925 q 263 935 244 933 q 288 936 281 936 q 310 928 290 936 q 352 908 329 921 q 395 881 375 896 q 421 853 415 867 l 528 706 q 559 638 550 675 q 575 565 568 601 q 585 444 588 490 q 567 360 582 399 q 528 281 553 322 q 472 175 504 239 q 429 115 453 144 q 378 60 406 85 q 317 17 350 35 q 247 -8 285 -1 q 183 -3 214 -14 q 126 28 151 7 q 81 78 100 49 q 54 139 63 107 l 51 158 m 122 239 q 134 190 125 218 q 158 139 143 163 q 192 101 172 115 q 239 90 213 86 q 319 139 279 97 q 392 234 358 181 q 449 341 425 288 q 482 426 472 394 q 485 447 483 432 q 486 481 486 463 q 485 518 486 500 q 482 546 483 536 q 422 696 465 629 q 321 822 379 763 q 290 839 310 835 q 260 840 271 843 q 235 831 244 838 q 215 810 225 824 q 141 681 165 744 q 109 552 117 617 q 106 419 101 488 q 115 274 110 350 l 122 239 l 122 239 m 107 986 q 115 1013 106 1001 q 133 1032 124 1025 q 144 1041 136 1035 q 163 1054 153 1047 q 181 1067 172 1061 q 192 1074 189 1072 l 261 1147 q 273 1153 268 1154 q 285 1153 278 1151 q 315 1146 301 1153 q 339 1129 328 1139 q 360 1108 350 1119 q 382 1088 371 1096 q 389 1081 388 1083 q 391 1077 390 1079 q 395 1072 392 1075 q 407 1064 399 1069 q 431 1049 417 1056 q 458 1033 444 1042 q 481 1014 471 1025 q 490 988 490 1003 q 478 959 492 971 q 446 946 465 947 q 420 950 433 944 q 393 964 407 956 q 367 981 379 972 q 347 996 356 990 q 335 1008 338 1003 q 322 1021 333 1014 q 302 1031 311 1028 q 282 1033 293 1035 q 269 1032 275 1033 q 257 1022 264 1031 q 242 1006 246 1011 q 236 998 239 1001 q 229 990 233 994 q 213 974 225 985 q 190 956 200 963 q 160 947 179 949 q 124 956 140 946 q 107 986 108 967 z "},"":{"ha":599,"x_min":11,"x_max":588,"o":"m 51 153 q 45 185 49 168 q 39 214 42 201 l 36 235 q 17 381 24 311 q 15 517 11 450 q 38 651 19 583 q 94 789 57 718 q 105 806 96 793 q 124 833 114 818 q 145 864 135 849 q 161 889 156 879 q 188 911 169 903 q 225 924 206 919 q 263 929 244 928 q 288 931 281 931 q 310 923 290 931 q 352 903 329 915 q 395 876 375 890 q 421 847 415 861 l 528 700 q 559 633 550 669 q 575 560 568 596 q 585 439 588 485 q 567 355 582 393 q 528 275 553 317 q 472 169 504 233 q 429 109 453 139 q 378 54 406 79 q 317 11 350 29 q 247 -14 285 -7 q 183 -9 214 -19 q 126 22 151 1 q 81 72 100 43 q 54 133 63 101 l 51 153 m 122 233 q 134 185 125 213 q 158 133 143 157 q 192 95 172 110 q 239 85 213 81 q 319 133 279 92 q 392 228 358 175 q 449 335 425 282 q 482 421 472 389 q 485 442 483 426 q 486 475 486 457 q 485 513 486 494 q 482 540 483 531 q 422 690 465 624 q 321 817 379 757 q 290 833 310 829 q 260 835 271 838 q 235 825 244 832 q 215 804 225 818 q 141 675 165 739 q 109 547 117 611 q 106 413 101 482 q 115 268 110 344 l 122 233 l 122 233 m 231 1063 q 222 1058 228 1061 q 214 1054 217 1056 q 156 1010 176 1024 q 124 991 135 996 q 108 987 113 986 q 101 988 104 988 q 81 1004 81 988 l 79 1011 q 98 1030 88 1024 q 119 1044 108 1036 q 146 1069 132 1056 q 174 1094 160 1082 q 205 1115 189 1106 q 239 1125 221 1124 q 274 1110 267 1126 q 287 1074 282 1093 q 301 1038 292 1054 q 344 1025 311 1022 q 387 1032 364 1026 q 425 1051 410 1038 q 432 1059 426 1053 q 444 1072 438 1065 q 456 1085 450 1079 q 463 1093 461 1092 q 474 1103 469 1100 q 486 1107 478 1106 q 503 1106 497 1111 q 509 1090 508 1100 q 506 1065 510 1079 q 493 1038 501 1051 q 429 981 465 994 q 344 964 393 967 q 289 977 307 961 q 263 1013 271 993 q 249 1048 254 1032 q 231 1063 244 1064 z "},"":{"ha":600,"x_min":13,"x_max":589,"o":"m 53 154 q 47 186 50 169 q 40 215 43 203 l 38 236 q 19 382 25 313 q 17 518 13 451 q 40 652 21 585 q 96 790 58 719 q 106 807 97 794 q 126 835 115 819 q 147 865 136 850 q 163 890 157 881 q 189 913 171 904 q 226 925 207 921 q 264 931 246 929 q 289 932 282 932 q 311 924 292 932 q 353 904 331 917 q 397 877 376 892 q 422 849 417 863 l 529 701 q 560 634 551 671 q 576 561 569 597 q 586 440 589 486 q 569 356 583 394 q 530 276 554 318 q 474 171 506 235 q 431 110 454 140 q 379 56 407 81 q 319 13 351 31 q 249 -12 286 -6 q 184 -8 215 -18 q 127 24 153 3 q 83 74 101 44 q 56 135 64 103 l 53 154 m 124 235 q 135 186 126 214 q 159 135 144 158 q 194 97 174 111 q 240 86 214 82 q 320 135 281 93 q 393 230 360 176 q 450 337 426 283 q 483 422 474 390 q 486 443 485 428 q 488 476 488 458 q 486 514 488 496 q 483 542 485 532 q 424 692 467 625 q 322 818 381 758 q 292 835 311 831 q 261 836 272 839 q 236 826 246 833 q 217 806 226 819 q 142 676 167 740 q 110 548 118 613 q 107 415 103 483 q 117 269 111 346 l 124 235 l 124 235 m 417 981 q 372 996 396 981 q 349 1035 349 1011 q 356 1054 349 1046 q 374 1069 364 1063 q 397 1078 385 1075 q 417 1081 408 1081 l 431 1081 q 460 1019 460 1056 q 417 981 460 981 m 190 985 q 146 998 167 985 q 125 1039 125 1011 q 140 1077 125 1063 q 179 1092 154 1092 l 193 1092 q 226 1064 213 1083 q 239 1025 239 1044 q 231 1000 239 1011 q 210 985 222 989 l 190 985 z "},"":{"ha":856,"x_min":14,"x_max":842,"o":"m 842 942 q 825 899 842 917 l 749 797 q 807 682 785 743 q 815 652 813 667 q 818 624 817 638 l 824 563 q 801 303 838 421 q 672 78 764 186 q 603 10 642 42 q 519 -36 564 -21 q 494 -40 514 -37 q 469 -43 475 -43 q 441 -45 460 -44 q 419 -44 422 -46 q 312 -4 367 -35 q 207 71 257 26 l 186 43 q 166 17 179 33 q 146 -4 153 1 q 110 -48 131 -25 q 60 -71 89 -71 q 25 -56 36 -71 q 14 -18 14 -40 q 15 5 14 -3 q 20 17 17 13 q 30 27 24 22 q 46 43 36 32 q 65 63 51 49 q 93 92 78 76 q 122 122 108 108 q 140 142 135 136 q 73 250 100 193 q 40 365 46 307 q 45 482 35 428 q 77 586 56 536 q 131 683 99 636 q 199 779 163 731 q 322 891 251 847 q 479 943 392 935 q 592 929 542 949 q 682 874 642 910 l 704 903 q 727 934 719 919 q 743 959 735 949 q 764 976 751 969 q 801 982 776 982 q 831 971 821 982 q 842 942 842 960 m 732 576 q 688 715 724 653 l 264 147 q 359 75 308 103 q 460 53 410 47 q 513 77 482 54 q 576 130 544 100 q 634 191 607 160 q 674 239 661 222 q 731 403 721 314 q 732 576 740 492 m 592 815 q 541 841 571 831 q 483 849 511 851 q 378 813 431 844 q 279 737 325 782 q 199 639 233 692 q 147 539 164 586 q 135 459 135 500 q 139 381 136 418 q 203 225 144 311 l 621 790 l 592 815 z "},"":{"ha":658,"x_min":14,"x_max":644,"o":"m 31 510 q 26 547 29 524 q 21 597 24 569 q 16 653 18 624 q 14 711 14 683 q 31 814 14 771 q 93 860 49 857 q 133 844 122 861 q 146 804 144 828 q 144 772 147 788 q 135 740 140 756 q 124 708 129 724 q 118 675 119 692 q 117 600 115 642 q 121 515 118 558 q 127 431 124 472 q 132 356 131 389 l 133 349 q 149 271 140 319 q 175 176 158 222 q 220 97 192 131 q 294 67 249 64 q 322 72 307 67 q 351 85 336 78 q 379 101 365 93 q 403 117 393 110 q 414 126 406 119 q 425 135 422 132 q 499 233 471 181 q 540 342 526 285 q 558 461 554 400 q 558 588 561 522 q 553 646 557 625 q 546 683 550 667 q 538 716 542 699 q 533 765 535 733 q 544 797 532 783 q 574 811 556 810 q 613 757 601 813 q 642 579 625 701 q 644 526 643 553 q 644 468 644 499 q 635 357 644 406 l 629 340 q 583 221 611 282 q 515 109 556 160 q 417 24 474 58 q 285 -14 360 -10 q 204 8 240 -17 q 141 72 168 32 q 94 163 114 113 q 62 265 75 214 q 42 360 49 315 q 35 433 36 404 l 31 510 m 431 961 q 436 920 438 938 q 411 896 435 903 q 366 903 393 892 q 313 936 339 915 q 265 982 286 957 q 238 1029 243 1007 q 258 1076 225 1065 q 285 1077 271 1081 q 315 1066 300 1074 q 342 1049 329 1058 q 367 1033 356 1040 q 406 1005 390 1019 q 431 961 422 990 z "},"":{"ha":650,"x_min":14,"x_max":636,"o":"m 22 461 l 22 538 q 19 590 22 557 q 15 662 17 624 q 15 740 14 700 q 26 811 17 779 q 53 863 35 843 q 101 883 71 883 q 141 867 131 883 q 151 825 151 850 q 137 761 151 790 q 117 699 122 732 q 112 624 113 665 q 113 538 111 582 q 115 453 114 494 q 117 378 117 411 l 117 371 q 129 292 122 342 q 151 197 136 243 q 192 116 165 150 q 265 82 219 82 q 293 87 278 82 q 324 99 308 92 q 353 113 339 106 q 376 126 367 121 q 388 135 379 129 q 399 144 396 142 q 476 239 446 188 q 524 347 507 290 q 547 464 540 403 q 553 590 553 525 q 550 649 553 628 q 544 686 547 669 q 539 720 542 703 q 536 769 536 738 q 549 800 536 788 q 579 813 561 813 q 616 757 607 813 q 636 578 625 701 q 633 467 636 526 q 618 357 631 407 l 613 340 q 561 222 592 282 q 487 114 531 163 q 385 34 443 65 q 251 3 326 3 q 172 28 206 3 q 112 95 138 54 q 69 188 86 136 q 41 290 51 239 q 26 386 31 340 q 22 461 22 432 m 428 1104 q 468 1097 451 1104 q 485 1067 485 1090 q 466 1026 485 1049 q 419 984 447 1004 q 361 951 392 964 q 308 938 331 938 q 269 971 269 938 q 277 997 269 983 q 296 1022 285 1010 q 319 1044 307 1033 q 340 1063 331 1054 q 378 1093 360 1082 q 428 1104 397 1104 z "},"":{"ha":650,"x_min":14,"x_max":636,"o":"m 22 532 q 19 585 22 551 q 15 656 17 618 q 15 734 14 694 q 26 806 17 774 q 53 858 35 838 q 101 878 71 878 q 141 861 131 878 q 151 819 151 844 q 137 756 151 785 q 117 693 122 726 q 112 618 113 660 q 113 533 111 576 q 115 447 114 489 q 117 372 117 406 l 117 365 q 129 287 122 336 q 151 191 136 238 q 192 110 165 144 q 265 76 219 76 q 293 81 278 76 q 324 93 308 86 q 353 108 339 100 q 376 121 367 115 q 388 130 379 124 q 399 139 396 136 q 476 233 446 182 q 524 341 507 285 q 547 458 540 397 q 553 585 553 519 q 550 643 553 622 q 544 681 547 664 q 539 715 542 697 q 536 764 536 732 q 549 794 536 782 q 579 807 561 807 q 616 751 607 807 q 636 572 625 696 q 633 461 636 521 q 618 351 631 401 l 613 335 q 561 217 592 276 q 487 108 531 157 q 385 28 443 60 q 251 -3 326 -3 q 172 23 207 -3 q 112 90 138 49 q 69 182 86 131 q 41 284 51 233 q 26 381 31 335 q 22 456 22 426 l 22 532 m 175 949 q 183 976 174 964 q 201 994 192 988 q 213 1003 204 997 q 231 1017 221 1010 q 249 1029 240 1024 q 260 1036 257 1035 l 329 1110 q 341 1115 336 1117 q 353 1115 346 1114 q 383 1108 369 1115 q 407 1092 396 1101 q 428 1070 418 1082 q 450 1050 439 1058 q 457 1044 456 1046 q 459 1040 458 1042 q 463 1035 460 1038 q 475 1026 467 1032 q 499 1011 485 1018 q 526 996 513 1004 q 549 976 539 988 q 558 950 558 965 q 547 922 560 933 q 514 908 533 910 q 488 913 501 907 q 461 926 475 918 q 435 944 447 935 q 415 958 424 953 q 403 971 406 965 q 390 983 401 976 q 370 994 379 990 q 350 996 361 997 q 338 994 343 996 q 325 985 332 993 q 310 969 314 974 q 304 960 307 964 q 297 952 301 957 q 281 936 293 947 q 258 918 268 925 q 228 910 247 911 q 192 919 208 908 q 175 949 176 929 z "},"":{"ha":650,"x_min":14,"x_max":636,"o":"m 22 529 q 19 582 22 549 q 15 653 17 615 q 15 731 14 692 q 26 803 17 771 q 53 855 35 835 q 101 875 71 875 q 141 858 131 875 q 151 817 151 842 q 137 753 151 782 q 117 690 122 724 q 112 615 113 657 q 113 530 111 574 q 115 444 114 486 q 117 369 117 403 l 117 363 q 129 284 122 333 q 151 188 136 235 q 192 108 165 142 q 265 74 219 74 q 293 78 278 74 q 324 90 308 83 q 353 105 339 97 q 376 118 367 113 q 388 127 379 121 q 399 136 396 133 q 476 231 446 179 q 524 338 507 282 q 547 456 540 394 q 553 582 553 517 q 550 640 553 619 q 544 678 547 661 q 539 712 542 694 q 536 761 536 729 q 549 792 536 779 q 579 804 561 804 q 616 749 607 804 q 636 569 625 693 q 633 458 636 518 q 618 349 631 399 l 613 332 q 561 214 592 274 q 487 106 531 154 q 385 26 443 57 q 251 -6 326 -6 q 172 20 207 -6 q 112 87 138 46 q 69 179 86 128 q 41 281 51 231 q 26 378 31 332 q 22 453 22 424 l 22 529 m 489 924 q 444 939 468 924 q 421 978 421 954 q 428 997 421 989 q 447 1012 436 1006 q 469 1021 457 1018 q 489 1024 481 1024 l 503 1024 q 532 963 532 999 q 489 924 532 924 m 263 928 q 218 941 239 928 q 197 982 197 954 q 212 1020 197 1006 q 251 1035 226 1035 l 265 1035 q 298 1007 285 1026 q 311 968 311 988 q 303 943 311 954 q 282 928 294 932 l 263 928 z "},"":{"ha":669,"x_min":11,"x_max":656,"o":"m 275 406 q 283 463 278 435 q 290 521 288 492 q 272 553 292 535 q 224 590 251 572 q 172 624 197 608 q 139 646 147 639 q 97 691 119 658 q 56 762 75 724 q 24 838 36 800 q 14 901 11 876 q 33 940 17 922 q 71 954 50 957 q 115 923 101 951 q 138 857 128 894 q 163 782 149 819 q 207 724 176 744 q 233 700 218 717 q 267 682 247 683 q 301 684 285 679 q 338 688 318 689 q 365 683 353 686 q 393 678 378 679 q 455 703 424 675 q 511 772 486 732 q 552 851 536 811 q 569 913 568 892 q 568 940 571 928 q 567 968 565 953 q 577 999 569 989 q 607 1007 585 1010 l 621 1006 q 642 984 635 993 q 653 965 650 975 q 655 944 656 956 q 653 915 654 932 q 644 871 650 890 q 631 834 639 851 q 614 798 624 817 q 594 756 604 779 q 571 703 583 732 q 536 654 558 674 l 476 604 q 428 574 454 588 q 392 532 403 561 l 383 435 q 379 299 378 364 q 394 163 381 233 q 409 113 401 138 q 414 61 417 89 q 392 21 411 38 q 350 7 374 4 q 322 22 332 8 q 306 56 311 36 q 297 95 300 75 q 292 131 294 115 q 274 268 278 201 q 275 406 269 335 m 411 1125 q 451 1118 435 1125 q 468 1088 468 1111 q 449 1047 468 1069 q 403 1005 431 1025 q 344 972 375 985 q 292 958 314 958 q 253 992 253 958 q 260 1017 253 1004 q 279 1042 268 1031 q 302 1065 290 1054 q 324 1083 314 1075 q 362 1114 343 1103 q 411 1125 381 1125 z "},"":{"ha":626,"x_min":10,"x_max":622,"o":"m 35 811 q 24 885 31 843 q 19 956 17 926 q 25 981 22 971 q 43 1000 28 992 l 63 1000 q 74 998 67 1000 q 82 994 82 996 q 98 976 88 990 q 111 957 108 963 q 124 883 121 911 q 127 830 128 854 q 125 778 126 806 q 124 703 124 750 q 130 684 124 696 q 144 671 136 672 l 147 671 q 179 687 161 683 q 218 691 197 690 q 260 691 239 692 q 300 694 281 690 q 420 681 360 708 q 527 606 481 654 q 598 497 574 557 q 608 385 622 438 q 560 313 603 349 q 462 251 518 278 q 347 209 406 224 q 251 199 289 194 q 191 216 215 203 q 132 244 167 229 q 131 162 132 206 q 128 79 129 118 q 125 11 126 40 q 122 -28 124 -18 q 117 -53 119 -43 q 99 -72 114 -64 l 79 -72 q 67 -70 75 -72 q 60 -67 60 -68 q 44 -49 54 -62 q 31 -29 33 -35 q 17 55 22 6 q 11 155 13 104 q 12 251 10 206 q 21 325 14 296 l 21 331 l 39 463 l 35 811 m 165 381 q 170 352 163 364 q 191 331 178 340 q 220 315 204 321 q 249 306 236 310 q 306 303 271 300 q 376 317 340 306 q 440 347 411 328 q 478 393 468 367 q 485 481 496 444 q 444 541 474 518 q 374 575 415 564 q 289 589 332 586 q 238 587 261 590 q 195 573 214 583 q 166 544 176 563 q 156 497 156 526 q 162 438 156 465 q 164 381 168 410 l 165 381 l 165 381 z "},"":{"ha":703,"x_min":14,"x_max":689,"o":"m 14 199 q 35 303 14 247 q 93 405 57 358 q 178 483 129 451 q 279 514 226 514 q 356 489 325 514 q 411 428 388 464 q 455 355 435 393 q 499 290 475 317 q 520 258 507 281 q 548 211 533 236 q 576 164 563 186 q 599 132 590 142 q 622 115 607 124 q 652 95 638 106 q 678 72 667 85 q 689 46 689 60 q 685 25 689 33 q 665 10 681 17 l 638 10 q 599 13 617 10 q 565 32 581 17 l 454 183 q 450 187 454 185 q 443 190 446 189 l 440 190 l 438 190 q 424 183 433 188 q 410 172 414 179 q 403 160 408 169 q 391 141 397 151 q 378 122 385 131 q 371 111 372 113 l 293 33 q 244 13 268 19 q 193 6 221 6 q 120 21 153 6 q 64 62 88 36 q 27 123 40 88 q 14 199 14 158 m 108 200 q 131 136 108 167 q 190 106 154 106 q 263 131 235 106 q 321 190 290 157 q 337 213 331 200 q 343 240 343 226 q 338 260 343 251 q 326 278 332 269 q 314 296 319 286 q 308 318 308 306 q 309 327 308 321 q 310 335 310 333 q 315 351 310 338 q 321 367 321 365 q 316 374 321 368 q 305 385 311 379 q 292 394 299 390 q 282 396 286 397 l 181 351 q 148 326 161 343 q 126 287 135 308 q 113 242 117 265 q 108 200 108 219 m 454 706 q 460 665 461 682 q 435 640 458 647 q 390 648 417 636 q 336 681 363 660 q 288 726 310 701 q 261 774 267 751 q 282 821 249 810 q 309 822 294 825 q 338 810 324 818 q 366 794 353 803 q 390 778 379 785 q 430 749 414 764 q 454 706 446 735 z "},"":{"ha":703,"x_min":14,"x_max":689,"o":"m 14 194 q 35 299 14 243 q 93 401 57 354 q 178 478 129 447 q 279 510 226 510 q 356 485 325 510 q 411 424 388 460 q 455 351 435 389 q 499 286 475 313 q 520 254 507 276 q 548 207 533 232 q 576 160 563 182 q 599 128 590 138 q 622 110 607 119 q 652 91 638 101 q 678 68 667 81 q 689 42 689 56 q 685 21 689 29 q 665 6 681 13 l 638 6 q 599 9 617 6 q 565 28 581 13 l 454 179 q 450 183 454 181 q 443 186 446 185 l 440 186 l 438 186 q 424 179 433 183 q 410 168 414 175 q 403 156 408 165 q 391 137 397 147 q 378 117 385 126 q 371 107 372 108 l 293 29 q 244 8 268 15 q 193 1 221 1 q 120 17 153 1 q 64 58 88 32 q 27 119 40 83 q 14 194 14 154 m 108 196 q 131 132 108 163 q 190 101 154 101 q 263 127 235 101 q 321 186 290 153 q 337 209 331 196 q 343 236 343 222 q 338 256 343 247 q 326 274 332 265 q 314 292 319 282 q 308 314 308 301 q 309 323 308 317 q 310 331 310 329 q 315 347 310 333 q 321 363 321 361 q 316 369 321 364 q 305 381 311 375 q 292 390 299 386 q 282 392 286 393 l 181 347 q 148 322 161 339 q 126 283 135 304 q 113 238 117 261 q 108 196 108 215 m 358 813 q 399 806 382 813 q 415 775 415 799 q 397 735 415 757 q 350 692 378 713 q 292 659 322 672 q 239 646 261 646 q 200 679 200 646 q 208 705 200 692 q 226 730 215 718 q 249 752 238 742 q 271 771 261 763 q 309 801 290 790 q 358 813 328 813 z "},"":{"ha":703,"x_min":14,"x_max":689,"o":"m 14 196 q 35 300 14 244 q 93 402 57 356 q 178 480 129 449 q 279 511 226 511 q 356 486 325 511 q 411 426 388 461 q 455 352 435 390 q 499 288 475 314 q 520 256 507 278 q 548 208 533 233 q 576 161 563 183 q 599 129 590 139 q 622 112 607 121 q 652 92 638 103 q 678 69 667 82 q 689 43 689 57 q 685 22 689 31 q 665 7 681 14 l 638 7 q 599 10 617 7 q 565 29 581 14 l 454 181 q 450 184 454 182 q 443 188 446 186 l 440 188 l 438 188 q 424 181 433 185 q 410 169 414 176 q 403 158 408 167 q 391 138 397 149 q 378 119 385 128 q 371 108 372 110 l 293 31 q 244 10 268 17 q 193 3 221 3 q 120 18 153 3 q 64 59 88 33 q 27 120 40 85 q 14 196 14 156 m 108 197 q 131 133 108 164 q 190 103 154 103 q 263 128 235 103 q 321 188 290 154 q 337 210 331 197 q 343 238 343 224 q 338 258 343 249 q 326 275 332 267 q 314 293 319 283 q 308 315 308 303 q 309 324 308 318 q 310 332 310 331 q 315 349 310 335 q 321 364 321 363 q 316 371 321 365 q 305 382 311 376 q 292 391 299 388 q 282 393 286 394 l 181 349 q 148 323 161 340 q 126 284 135 306 q 113 240 117 263 q 108 197 108 217 m 140 644 q 148 672 139 660 q 167 690 157 683 q 178 699 169 693 q 196 713 186 706 q 214 725 206 719 q 225 732 222 731 l 294 806 q 306 811 301 813 q 318 811 311 810 q 348 804 335 811 q 372 788 361 797 q 394 766 383 778 q 415 746 404 754 q 422 740 421 742 q 424 735 424 738 q 428 731 425 733 q 440 722 432 728 q 464 707 450 714 q 491 692 478 700 q 514 672 504 683 q 524 646 524 661 q 512 617 525 629 q 479 604 499 606 q 453 608 467 603 q 426 622 440 614 q 401 640 413 631 q 381 654 389 649 q 369 667 371 661 q 356 679 367 672 q 335 690 344 686 q 315 692 326 693 q 303 690 308 692 q 290 681 297 689 q 276 665 279 669 q 269 656 272 660 q 263 648 267 653 q 246 632 258 643 q 223 614 233 621 q 193 606 213 607 q 158 615 174 604 q 140 644 142 625 z "},"":{"ha":703,"x_min":14,"x_max":689,"o":"m 14 192 q 35 296 14 240 q 93 398 57 351 q 178 476 129 444 q 279 507 226 507 q 356 482 325 507 q 411 422 388 457 q 455 348 435 386 q 499 283 475 310 q 520 251 507 274 q 548 204 533 229 q 576 157 563 179 q 599 125 590 135 q 622 108 607 117 q 652 88 638 99 q 678 65 667 78 q 689 39 689 53 q 685 18 689 26 q 665 3 681 10 l 638 3 q 599 6 617 3 q 565 25 581 10 l 454 176 q 450 180 454 178 q 443 183 446 182 l 440 183 l 438 183 q 424 176 433 181 q 410 165 414 172 q 403 153 408 163 q 391 134 397 144 q 378 115 385 124 q 371 104 372 106 l 293 26 q 244 6 268 13 q 193 -1 221 -1 q 120 14 153 -1 q 64 55 88 29 q 27 116 40 81 q 14 192 14 151 m 108 193 q 131 129 108 160 q 190 99 154 99 q 263 124 235 99 q 321 183 290 150 q 337 206 331 193 q 343 233 343 219 q 338 253 343 244 q 326 271 332 263 q 314 289 319 279 q 308 311 308 299 q 309 320 308 314 q 310 328 310 326 q 315 344 310 331 q 321 360 321 358 q 316 367 321 361 q 305 378 311 372 q 292 387 299 383 q 282 389 286 390 l 181 344 q 148 319 161 336 q 126 280 135 301 q 113 235 117 258 q 108 193 108 213 m 260 726 q 251 722 257 725 q 243 718 246 719 q 185 674 206 688 q 153 655 164 660 q 138 651 142 650 q 131 651 133 651 q 110 668 110 651 l 108 675 q 127 694 117 688 q 149 708 138 700 q 175 733 161 719 q 203 758 189 746 q 234 778 218 769 q 268 789 250 788 q 303 774 296 790 q 316 738 311 757 q 331 702 321 718 q 374 689 340 686 q 416 696 393 690 q 454 715 439 701 q 461 723 456 717 q 473 736 467 729 q 485 749 479 743 q 492 757 490 756 q 503 767 499 764 q 515 771 507 769 q 532 769 526 775 q 538 753 538 764 q 535 729 539 743 q 522 701 531 715 q 458 644 494 658 q 374 628 422 631 q 318 641 336 625 q 292 676 300 657 q 278 712 283 696 q 260 726 274 728 z "},"":{"ha":703,"x_min":14,"x_max":689,"o":"m 14 193 q 35 297 14 242 q 93 399 57 353 q 178 477 129 446 q 279 508 226 508 q 356 483 325 508 q 411 423 388 458 q 455 349 435 388 q 499 285 475 311 q 520 253 507 275 q 548 206 533 231 q 576 158 563 181 q 599 126 590 136 q 622 109 607 118 q 652 90 638 100 q 678 67 667 79 q 689 40 689 54 q 685 19 689 28 q 665 4 681 11 l 638 4 q 599 8 617 4 q 565 26 581 11 l 454 178 q 450 181 454 179 q 443 185 446 183 l 440 185 l 438 185 q 424 178 433 182 q 410 167 414 174 q 403 155 408 164 q 391 135 397 146 q 378 116 385 125 q 371 106 372 107 l 293 28 q 244 7 268 14 q 193 0 221 0 q 120 15 153 0 q 64 56 88 31 q 27 117 40 82 q 14 193 14 153 m 108 194 q 131 131 108 161 q 190 100 154 100 q 263 126 235 100 q 321 185 290 151 q 337 208 331 194 q 343 235 343 221 q 338 255 343 246 q 326 272 332 264 q 314 290 319 281 q 308 313 308 300 q 309 322 308 315 q 310 329 310 328 q 315 346 310 332 q 321 361 321 360 q 316 368 321 363 q 305 379 311 374 q 292 388 299 385 q 282 390 286 392 l 181 346 q 148 320 161 338 q 126 281 135 303 q 113 237 117 260 q 108 194 108 214 m 481 632 q 436 647 460 632 q 413 686 413 663 q 420 706 413 697 q 438 720 428 714 q 460 729 449 726 q 481 732 472 732 l 494 732 q 524 671 524 707 q 481 632 524 632 m 254 636 q 210 649 231 636 q 189 690 189 663 q 203 728 189 714 q 243 743 218 743 l 257 743 q 290 715 276 735 q 303 676 303 696 q 294 651 303 663 q 274 636 286 640 l 254 636 z "},"":{"ha":706,"x_min":14,"x_max":689,"o":"m 14 193 q 35 297 14 242 q 93 399 57 353 q 178 477 129 446 q 279 508 226 508 q 356 483 325 508 q 411 423 388 458 q 455 349 435 388 q 499 285 475 311 q 520 253 507 275 q 548 206 533 231 q 576 158 563 181 q 599 126 590 136 q 622 109 607 118 q 652 90 638 100 q 678 67 667 79 q 689 40 689 54 q 685 19 689 28 q 665 4 681 11 l 638 4 q 599 8 617 4 q 565 26 581 11 l 454 178 q 450 181 454 179 q 443 185 446 183 l 438 185 q 424 178 433 182 q 410 167 414 174 q 403 155 408 164 q 391 135 397 146 q 378 116 385 125 q 371 106 372 107 l 293 28 q 244 7 268 14 q 193 0 221 0 q 120 15 153 0 q 64 56 88 31 q 27 117 40 82 q 14 193 14 153 m 108 194 q 131 131 108 161 q 190 100 154 100 q 263 126 235 100 q 321 185 290 151 q 337 208 331 194 q 343 235 343 221 q 338 255 343 246 q 326 272 332 264 q 314 290 319 281 q 308 313 308 300 q 309 322 308 315 q 310 329 310 328 q 315 346 310 332 q 321 361 321 360 q 316 368 321 363 q 305 379 311 374 q 292 388 299 385 q 282 390 286 392 l 181 346 q 148 320 161 338 q 126 281 135 303 q 113 237 117 260 q 108 194 108 214 m 151 711 q 160 736 160 724 q 181 756 160 749 q 210 761 196 761 q 239 761 224 761 q 303 752 274 771 q 351 706 333 733 q 378 660 375 686 q 368 610 381 633 q 333 572 356 586 q 281 564 310 558 q 219 566 249 556 q 170 599 190 576 q 143 651 150 621 q 151 711 136 681 m 288 676 q 266 686 279 683 q 238 688 253 689 q 219 670 226 681 q 215 646 213 660 q 226 642 219 646 q 239 633 232 638 q 253 625 246 628 q 268 625 261 622 q 273 629 268 626 q 281 635 278 632 q 285 638 282 635 q 287 656 288 646 q 288 676 286 667 z "},"":{"ha":892,"x_min":14,"x_max":879,"o":"m 14 200 q 26 276 14 239 q 58 346 38 313 q 121 414 86 390 q 196 450 156 438 q 281 467 236 463 q 371 479 325 472 q 383 483 372 479 q 399 490 393 488 q 469 522 436 507 q 535 547 501 536 q 603 563 568 557 q 678 569 638 569 l 690 569 q 710 569 700 569 q 731 568 721 568 l 744 568 q 806 537 779 564 q 833 474 833 510 q 806 402 833 433 q 738 348 778 371 q 656 311 699 325 q 582 290 613 297 q 565 286 578 289 q 538 281 553 283 q 511 276 524 278 q 493 274 499 274 q 488 271 492 272 q 482 268 483 269 l 449 235 l 449 224 q 463 175 449 196 q 499 140 478 154 q 547 119 521 126 q 596 111 572 111 q 708 124 649 111 q 817 150 768 136 q 822 151 818 150 q 828 151 826 151 q 864 140 849 151 q 879 104 879 128 q 847 49 879 68 q 772 22 814 31 q 688 13 729 14 q 628 11 646 11 q 490 30 549 11 q 376 111 431 49 q 356 118 367 118 q 351 117 353 118 q 249 17 349 117 q 215 -2 233 1 q 178 -6 197 -6 q 108 13 139 -6 q 57 62 78 32 q 25 128 36 92 q 14 200 14 164 m 108 207 q 113 172 108 192 q 125 135 117 153 q 147 106 133 118 q 179 94 160 94 q 235 119 208 94 q 280 180 261 144 q 310 253 299 215 q 321 315 321 290 q 313 340 321 329 q 292 356 304 350 q 267 365 281 363 q 242 368 253 368 q 192 352 215 368 q 149 312 168 336 q 119 260 131 288 q 108 207 108 232 m 493 407 q 506 383 493 389 q 532 378 519 378 q 571 385 544 378 q 625 404 597 393 q 674 428 653 415 q 694 454 694 442 q 683 471 694 468 q 660 474 671 474 l 649 474 q 631 469 644 472 q 601 463 617 465 q 570 456 585 460 q 549 451 556 453 q 513 438 533 449 q 493 407 493 428 z "},"":{"ha":671,"x_min":14,"x_max":657,"o":"m 15 289 q 15 333 15 304 q 21 379 14 361 q 51 433 33 410 q 90 474 68 456 q 136 508 111 492 q 189 542 161 524 q 201 547 194 547 l 218 547 q 246 537 235 547 q 266 512 257 526 q 283 482 275 497 q 300 457 290 467 q 326 428 314 442 q 348 402 339 415 q 362 374 357 389 q 367 338 367 358 q 354 283 367 310 q 308 256 342 256 q 266 272 282 256 q 238 310 250 289 q 213 355 225 332 q 183 390 201 378 q 177 391 181 390 q 171 392 174 392 q 139 379 151 392 q 119 349 126 367 q 108 313 111 332 q 104 279 104 293 q 125 206 104 239 q 178 150 146 174 q 250 113 211 126 q 325 100 289 100 q 395 106 360 100 q 466 117 431 111 q 536 129 501 124 q 606 135 571 135 q 641 126 625 135 q 657 94 657 117 q 646 65 657 76 q 618 50 635 54 q 585 42 607 47 q 540 32 563 38 q 497 22 517 26 q 472 17 478 18 q 439 11 456 13 q 407 10 422 10 q 409 -12 410 -1 q 410 -40 408 -24 q 401 -108 408 -81 q 363 -167 393 -136 q 340 -174 361 -169 q 296 -183 319 -178 q 252 -191 272 -187 q 207 -192 232 -194 q 179 -185 193 -192 q 163 -168 165 -179 q 168 -156 157 -161 q 199 -145 179 -150 q 242 -135 218 -140 q 285 -122 265 -129 q 317 -106 306 -115 q 325 -83 329 -97 q 309 -63 322 -72 q 286 -44 296 -54 l 282 -26 q 278 15 275 -8 q 174 41 222 22 q 91 93 126 60 q 35 175 56 126 q 15 289 15 224 z "},"":{"ha":608,"x_min":11,"x_max":596,"o":"m 14 250 q 25 349 11 300 q 67 437 39 397 q 136 501 94 476 q 231 529 178 526 l 265 532 q 334 528 299 532 q 400 510 369 524 q 451 472 431 497 q 475 404 472 447 q 465 367 476 385 q 436 333 454 349 q 397 308 418 318 q 358 297 376 299 l 163 285 q 149 279 156 285 q 135 266 142 274 q 125 251 129 258 q 121 238 121 243 q 138 191 122 213 q 176 153 154 169 q 224 126 199 138 q 269 111 249 115 q 292 106 278 108 q 322 101 307 104 q 360 96 336 99 l 449 101 q 493 115 476 113 q 536 119 510 117 q 572 117 553 121 q 594 90 592 114 q 588 61 596 75 q 564 42 579 47 q 544 34 558 39 q 514 25 529 29 q 485 17 499 21 q 465 13 471 14 q 446 8 458 11 q 431 6 433 6 l 332 -1 q 319 0 331 -1 q 292 4 307 1 q 261 10 276 7 q 238 15 246 13 q 142 61 183 26 q 61 132 100 96 q 26 185 35 156 q 14 250 17 215 m 189 394 q 196 386 189 386 l 329 396 q 335 401 335 396 l 335 411 q 310 430 333 426 q 267 432 288 433 l 247 431 l 231 429 q 201 424 217 428 q 188 404 186 419 l 189 394 m 396 722 q 401 681 403 699 q 376 657 400 664 q 331 665 358 653 q 278 697 304 676 q 230 743 251 718 q 203 790 208 768 q 224 838 190 826 q 251 838 236 842 q 280 827 265 835 q 308 810 294 819 q 332 794 321 801 q 372 766 356 781 q 396 722 388 751 z "},"":{"ha":608,"x_min":11,"x_max":596,"o":"m 14 267 q 25 365 11 317 q 67 453 39 414 q 136 518 94 493 q 231 546 178 543 l 265 549 q 334 544 299 549 q 400 527 369 540 q 451 489 431 514 q 475 421 472 464 q 465 383 476 401 q 436 350 454 365 q 397 325 418 335 q 358 314 376 315 l 163 301 q 149 296 156 301 q 135 283 142 290 q 125 267 129 275 q 121 254 121 260 q 138 208 122 229 q 176 170 154 186 q 224 143 199 154 q 269 128 249 132 q 292 123 278 125 q 322 118 307 121 q 360 113 336 115 l 449 118 q 493 131 476 129 q 536 136 510 133 q 572 134 553 138 q 594 107 592 131 q 588 78 596 92 q 564 58 579 64 q 544 51 558 56 q 514 42 529 46 q 485 34 499 38 q 465 29 471 31 q 446 25 458 28 q 431 22 433 22 l 332 15 q 319 17 331 15 q 292 21 307 18 q 261 26 276 24 q 238 32 246 29 q 142 78 183 43 q 61 149 100 113 q 26 202 35 172 q 14 267 17 232 m 189 411 q 196 403 189 403 l 329 413 q 335 418 335 413 l 335 428 q 310 447 333 443 q 267 449 288 450 l 247 447 l 231 446 q 201 440 217 444 q 188 421 186 436 l 189 411 m 357 842 q 397 835 381 842 q 414 804 414 828 q 395 764 414 786 q 349 722 376 742 q 290 688 321 701 q 238 675 260 675 q 199 708 199 675 q 206 734 199 721 q 225 759 214 747 q 248 781 236 771 q 269 800 260 792 q 308 831 289 819 q 357 842 326 842 z "},"":{"ha":608,"x_min":11,"x_max":596,"o":"m 14 250 q 25 349 11 300 q 67 437 39 397 q 136 501 94 476 q 231 529 178 526 l 265 532 q 334 528 299 532 q 400 510 369 524 q 451 472 431 497 q 475 404 472 447 q 465 367 476 385 q 436 333 454 349 q 397 308 418 318 q 358 297 376 299 l 163 285 q 149 279 156 285 q 135 266 142 274 q 125 251 129 258 q 121 238 121 243 q 138 191 122 213 q 176 153 154 169 q 224 126 199 138 q 269 111 249 115 q 292 106 278 108 q 322 101 307 104 q 360 96 336 99 l 449 101 q 493 115 476 113 q 536 119 510 117 q 572 117 553 121 q 594 90 592 114 q 588 61 596 75 q 564 42 579 47 q 544 34 558 39 q 514 25 529 29 q 485 17 499 21 q 465 13 471 14 q 446 8 458 11 q 431 6 433 6 l 332 -1 q 319 0 331 -1 q 292 4 307 1 q 261 10 276 7 q 238 15 246 13 q 142 61 183 26 q 61 132 100 96 q 26 185 35 156 q 14 250 17 215 m 189 394 q 196 386 189 386 l 329 396 q 335 401 335 396 l 335 411 q 310 430 333 426 q 267 432 288 433 l 247 431 l 231 429 q 201 424 217 428 q 188 404 186 419 l 189 394 m 111 667 q 119 694 110 682 q 138 713 128 706 q 149 722 140 715 q 167 735 157 728 q 185 747 176 742 q 196 754 193 753 l 265 828 q 277 833 272 835 q 289 833 282 832 q 319 826 306 833 q 343 810 332 819 q 365 788 354 800 q 386 768 375 776 q 393 762 392 764 q 395 758 394 760 q 399 753 396 756 q 411 744 403 750 q 435 729 421 736 q 462 714 449 722 q 485 694 475 706 q 494 668 494 683 q 483 640 496 651 q 450 626 469 628 q 424 631 438 625 q 397 644 411 636 q 372 662 383 653 q 351 676 360 671 q 340 689 342 683 q 326 701 338 694 q 306 712 315 708 q 286 714 297 715 q 274 713 279 714 q 261 703 268 711 q 247 687 250 692 q 240 678 243 682 q 233 670 238 675 q 217 654 229 665 q 194 636 204 643 q 164 628 183 629 q 128 637 144 626 q 111 667 113 647 z "},"":{"ha":608,"x_min":11,"x_max":596,"o":"m 14 256 q 25 354 11 306 q 67 442 39 403 q 136 507 94 482 q 231 535 178 532 l 265 538 q 334 533 299 538 q 400 516 369 529 q 451 478 431 503 q 475 410 472 453 q 465 372 476 390 q 436 339 454 354 q 397 314 418 324 q 358 303 376 304 l 163 290 q 149 285 156 290 q 135 272 142 279 q 125 256 129 264 q 121 243 121 249 q 138 197 122 218 q 176 159 154 175 q 224 132 199 143 q 269 117 249 121 q 292 112 278 114 q 322 107 307 110 q 360 101 336 104 l 449 107 q 493 120 476 118 q 536 125 510 122 q 572 123 553 126 q 594 96 592 119 q 588 67 596 81 q 564 47 579 53 q 544 40 558 44 q 514 31 529 35 q 485 23 499 26 q 465 18 471 19 q 446 14 458 17 q 431 11 433 11 l 332 4 q 319 6 331 4 q 292 10 307 7 q 261 15 276 13 q 238 21 246 18 q 142 67 183 32 q 61 138 100 101 q 26 191 35 161 q 14 256 17 221 m 189 400 q 196 392 189 392 l 329 401 q 335 407 335 401 l 335 417 q 310 435 333 432 q 267 438 288 439 l 247 436 l 231 435 q 201 429 217 433 q 188 410 186 425 l 189 400 m 454 642 q 410 657 433 642 q 386 696 386 672 q 394 715 386 707 q 412 730 401 724 q 434 739 422 736 q 454 742 446 742 l 468 742 q 497 681 497 717 q 454 642 497 642 m 228 646 q 183 659 204 646 q 163 700 163 672 q 177 738 163 724 q 217 753 192 753 l 231 753 q 263 725 250 744 q 276 686 276 706 q 268 661 276 672 q 247 646 260 650 l 228 646 z "},"":{"ha":229,"x_min":4,"x_max":217,"o":"m 90 468 q 101 493 94 481 q 117 515 107 506 q 139 529 126 525 q 167 528 151 533 q 188 506 183 521 q 190 475 192 492 q 183 442 188 458 q 179 415 179 425 q 173 363 176 394 q 166 299 169 332 q 160 233 163 265 q 157 179 157 201 q 165 117 157 149 q 161 57 172 85 q 142 29 156 38 q 110 28 129 21 q 74 68 86 36 q 58 144 63 100 q 57 238 54 188 q 65 335 60 289 q 78 417 71 381 q 90 468 85 453 m 210 678 q 215 637 217 654 q 190 613 214 619 q 145 620 172 608 q 92 653 118 632 q 44 699 65 674 q 17 746 22 724 q 38 793 4 782 q 65 794 50 797 q 94 783 79 790 q 122 766 108 775 q 146 750 135 757 q 185 722 169 736 q 210 678 201 707 z "},"":{"ha":243,"x_min":14,"x_max":229,"o":"m 92 438 q 102 463 96 450 q 118 485 108 475 q 140 499 128 494 q 168 497 153 503 q 189 476 185 490 q 191 444 193 461 q 185 410 189 426 q 181 385 181 394 q 171 292 175 342 q 168 196 167 242 q 176 133 168 165 q 172 74 183 101 q 153 46 167 54 q 121 44 140 38 q 85 81 97 53 q 67 147 72 108 q 63 231 63 186 q 69 316 64 275 q 80 390 74 357 q 92 438 86 422 m 172 794 q 213 788 196 794 q 229 757 229 781 q 210 717 229 739 q 164 674 192 694 q 106 641 136 654 q 53 628 75 628 q 14 661 14 628 q 22 687 14 674 q 40 712 29 700 q 63 734 51 724 q 85 753 75 744 q 123 783 104 772 q 172 794 142 794 z "},"":{"ha":411,"x_min":13,"x_max":399,"o":"m 132 425 q 142 450 136 438 q 158 472 149 463 q 181 486 168 482 q 208 485 193 490 q 229 463 225 478 q 231 432 233 449 q 225 399 229 415 q 221 372 221 382 q 211 279 215 329 q 208 183 207 229 q 216 121 208 153 q 213 61 224 89 q 194 33 207 42 q 161 32 181 25 q 125 68 138 40 q 108 135 113 96 q 103 218 103 174 q 109 303 104 263 q 120 377 114 344 q 132 425 126 410 m 14 633 q 22 660 13 649 q 40 679 31 672 q 51 688 43 682 q 69 701 60 694 q 88 714 79 708 q 99 721 96 719 l 168 794 q 180 800 175 801 q 192 800 185 799 q 222 793 208 800 q 246 776 235 786 q 267 755 257 767 q 289 735 278 743 q 296 728 294 731 q 298 724 297 726 q 302 719 299 722 q 314 711 306 717 q 338 696 324 703 q 365 681 351 689 q 388 661 378 672 q 397 635 397 650 q 385 606 399 618 q 353 593 372 594 q 327 597 340 592 q 300 611 314 603 q 274 628 286 619 q 254 643 263 638 q 242 656 244 650 q 229 668 240 661 q 209 678 218 675 q 189 681 200 682 q 176 679 182 681 q 164 669 171 678 q 149 653 153 658 q 143 645 146 649 q 136 637 140 642 q 119 621 132 632 q 97 603 107 610 q 67 594 86 596 q 31 603 47 593 q 14 633 15 614 z "},"":{"ha":363,"x_min":14,"x_max":349,"o":"m 122 439 q 133 464 126 451 q 149 486 139 476 q 171 500 158 496 q 199 499 183 504 q 219 477 215 492 q 222 446 224 463 q 215 413 219 429 q 211 386 211 396 q 201 293 206 343 q 199 197 197 243 q 206 135 199 167 q 203 75 214 103 q 184 47 197 56 q 151 46 171 39 q 115 82 128 54 q 98 149 103 110 q 94 232 93 188 q 99 317 94 276 q 110 391 104 358 q 122 439 117 424 m 306 592 q 261 607 285 592 q 238 646 238 622 q 245 665 238 657 q 263 680 253 674 q 285 689 274 686 q 306 692 297 692 l 319 692 q 349 631 349 667 q 306 592 349 592 m 79 596 q 35 609 56 596 q 14 650 14 622 q 28 688 14 674 q 68 703 43 703 l 82 703 q 115 675 101 694 q 128 636 128 656 q 119 611 128 622 q 99 596 111 600 l 79 596 z "},"":{"ha":676,"x_min":14,"x_max":663,"o":"m 479 876 q 510 880 494 881 q 536 865 525 879 q 544 824 551 846 q 518 788 536 803 l 514 783 q 492 766 507 781 q 463 740 476 751 q 542 649 507 700 q 601 540 576 597 q 641 424 626 483 q 660 311 656 365 q 662 290 661 300 q 663 268 663 279 q 643 173 663 219 q 591 90 624 126 q 514 30 558 53 q 419 7 469 7 l 238 7 q 188 16 214 7 q 143 36 163 25 q 94 69 118 53 q 53 103 71 85 q 25 146 36 122 q 14 201 14 169 q 36 309 14 257 q 94 401 58 361 q 221 499 153 468 q 382 531 289 531 q 513 504 456 531 q 501 533 506 521 q 496 547 497 544 q 451 617 479 583 q 386 678 422 651 l 278 589 q 251 585 269 582 q 225 597 232 589 q 215 626 214 610 q 224 654 215 642 l 243 671 q 271 694 257 682 q 299 717 285 706 l 306 722 q 208 736 257 740 q 181 731 194 735 q 153 725 168 726 q 126 729 139 722 q 114 751 114 736 q 120 784 111 769 q 144 808 129 799 q 176 824 158 818 q 207 831 193 829 q 299 825 256 835 q 383 796 343 815 q 426 838 404 818 q 479 876 449 858 m 575 267 q 560 330 575 300 q 522 383 546 360 q 466 419 497 406 q 401 432 435 432 q 264 406 318 432 q 156 322 210 379 q 124 267 136 300 q 111 206 111 233 q 124 168 111 182 q 157 139 138 154 q 264 93 204 104 q 382 82 324 82 q 453 97 418 82 q 515 136 488 111 q 558 195 542 161 q 575 267 575 229 z "},"":{"ha":593,"x_min":13,"x_max":582,"o":"m 471 28 q 478 65 474 47 q 485 101 482 82 q 473 187 488 135 q 432 289 458 239 q 372 377 406 339 q 303 419 338 415 q 273 408 286 422 q 254 378 260 393 q 244 351 250 369 q 231 312 238 332 q 219 275 224 292 q 214 254 214 258 q 211 240 214 251 q 205 215 208 228 q 199 192 201 203 q 196 178 196 181 q 184 138 192 165 q 165 81 176 110 q 139 31 154 51 q 103 13 124 10 q 83 27 92 14 q 67 58 74 40 q 58 94 61 76 q 54 124 54 113 q 49 163 53 135 q 39 224 44 192 q 29 284 33 256 q 24 324 25 313 q 16 390 19 357 q 15 457 13 422 l 18 488 q 36 506 28 503 q 57 507 44 508 q 92 483 82 504 q 106 436 101 461 q 115 390 110 411 q 136 367 119 368 q 153 393 146 365 q 176 453 161 421 q 216 512 190 486 q 289 532 242 538 q 376 504 335 528 q 450 444 417 481 q 509 362 483 407 q 551 268 535 317 q 575 172 568 219 q 578 85 582 125 q 573 49 576 68 q 562 15 569 31 q 540 -11 554 -1 q 504 -18 526 -21 q 476 -2 485 -15 q 471 28 468 11 m 217 749 q 208 744 214 747 q 200 740 203 742 q 142 696 163 710 q 110 677 121 682 q 94 673 99 672 q 88 674 90 674 q 67 690 67 674 l 65 697 q 84 716 74 710 q 106 731 94 722 q 132 755 118 742 q 160 780 146 768 q 191 801 175 792 q 225 811 207 810 q 260 796 253 813 q 273 760 268 779 q 288 724 278 740 q 331 711 297 708 q 373 718 350 713 q 411 738 396 724 q 418 745 413 739 q 430 758 424 751 q 442 772 436 765 q 449 779 447 778 q 460 789 456 786 q 472 793 464 792 q 489 792 483 797 q 495 776 494 786 q 492 751 496 765 q 479 724 488 738 q 415 667 451 681 q 331 650 379 653 q 275 663 293 647 q 249 699 257 679 q 235 734 240 718 q 217 749 231 750 z "},"":{"ha":704,"x_min":14,"x_max":690,"o":"m 690 282 q 669 179 690 229 q 613 90 649 129 q 528 25 576 50 q 426 -1 481 0 l 299 -4 q 264 -1 288 -4 q 213 7 240 1 q 162 18 186 13 q 128 31 138 24 q 44 122 75 67 q 14 246 14 178 q 24 299 14 275 q 49 344 33 324 q 83 385 64 365 q 121 428 101 406 q 178 488 151 463 q 234 531 204 514 q 300 557 264 549 q 386 565 336 565 q 504 546 449 565 q 601 490 560 526 q 667 401 643 453 q 690 282 690 349 m 596 281 q 580 348 596 315 q 538 405 564 381 q 477 444 511 429 q 408 458 443 458 q 313 447 354 458 q 240 416 272 436 q 183 367 208 396 q 133 301 157 338 q 116 280 119 286 q 108 267 113 274 q 103 239 104 257 q 103 201 101 221 q 111 163 106 181 q 128 138 117 146 q 185 108 153 118 q 251 91 217 97 q 321 83 286 85 q 385 82 356 82 q 462 97 424 82 q 530 140 500 113 q 578 203 560 167 q 596 281 596 239 m 453 742 q 458 701 460 718 q 433 676 457 683 q 388 684 415 672 q 335 717 361 696 q 287 763 308 738 q 260 810 265 788 q 281 857 247 846 q 308 858 293 861 q 337 847 322 854 q 365 830 351 839 q 389 814 378 821 q 428 785 413 800 q 453 742 444 771 z "},"":{"ha":704,"x_min":14,"x_max":690,"o":"m 690 281 q 669 178 690 228 q 613 88 649 128 q 528 24 576 49 q 426 -3 481 -1 l 299 -6 q 264 -3 288 -6 q 213 6 240 0 q 162 17 186 11 q 128 29 138 22 q 44 121 75 65 q 14 244 14 176 q 24 298 14 274 q 49 343 33 322 q 83 384 64 364 q 121 426 101 404 q 178 487 151 461 q 234 530 204 513 q 300 556 264 547 q 386 564 336 564 q 504 544 449 564 q 601 488 560 525 q 667 399 643 451 q 690 281 690 347 m 596 279 q 580 347 596 314 q 538 403 564 379 q 477 442 511 428 q 408 457 443 457 q 313 446 354 457 q 240 415 272 435 q 183 365 208 394 q 133 300 157 336 q 116 278 119 285 q 108 265 113 272 q 103 238 104 256 q 103 199 101 219 q 111 162 106 179 q 128 136 117 144 q 185 106 153 117 q 251 90 217 96 q 321 82 286 83 q 385 81 356 81 q 462 96 424 81 q 530 138 500 111 q 578 201 560 165 q 596 279 596 238 m 410 821 q 450 814 433 821 q 467 783 467 807 q 448 743 467 765 q 401 701 429 721 q 343 667 374 681 q 290 654 313 654 q 251 688 251 654 q 259 713 251 700 q 278 738 267 726 q 301 760 289 750 q 322 779 313 771 q 360 810 342 799 q 410 821 379 821 z "},"":{"ha":704,"x_min":14,"x_max":690,"o":"m 690 285 q 669 182 690 232 q 613 92 649 132 q 528 28 576 53 q 426 1 481 3 l 299 -1 q 264 1 288 -1 q 213 10 240 4 q 162 21 186 15 q 128 33 138 26 q 44 125 75 69 q 14 249 14 181 q 24 302 14 278 q 49 347 33 326 q 83 388 64 368 q 121 431 101 408 q 178 491 151 465 q 234 534 204 517 q 300 560 264 551 q 386 568 336 568 q 504 549 449 568 q 601 492 560 529 q 667 403 643 456 q 690 285 690 351 m 596 283 q 580 351 596 318 q 538 408 564 383 q 477 447 511 432 q 408 461 443 461 q 313 450 354 461 q 240 419 272 439 q 183 369 208 399 q 133 304 157 340 q 116 283 119 289 q 108 269 113 276 q 103 242 104 260 q 103 203 101 224 q 111 166 106 183 q 128 140 117 149 q 185 110 153 121 q 251 94 217 100 q 321 86 286 88 q 385 85 356 85 q 462 100 424 85 q 530 142 500 115 q 578 206 560 169 q 596 283 596 242 m 181 707 q 188 734 179 722 q 207 753 197 746 q 218 762 210 756 q 236 775 226 768 q 254 788 246 782 q 265 794 263 793 l 335 868 q 347 874 342 875 q 358 874 351 872 q 388 867 375 874 q 413 850 401 860 q 434 828 424 840 q 456 808 444 817 q 463 802 461 804 q 465 798 464 800 q 469 793 465 796 q 481 785 472 790 q 504 769 490 776 q 531 754 518 763 q 554 735 544 746 q 564 708 564 724 q 552 680 565 692 q 519 667 539 668 q 494 671 507 665 q 467 685 481 676 q 441 702 453 693 q 421 717 429 711 q 409 729 411 724 q 396 742 407 735 q 376 752 385 749 q 356 754 367 756 q 343 753 349 754 q 331 743 338 751 q 316 727 319 732 q 310 719 313 722 q 303 710 307 715 q 286 694 299 706 q 263 676 274 683 q 233 668 253 669 q 198 677 214 667 q 181 707 182 688 z "},"":{"ha":704,"x_min":14,"x_max":690,"o":"m 690 288 q 669 185 690 235 q 613 95 649 135 q 528 31 576 56 q 426 4 481 6 l 299 1 q 264 4 288 1 q 213 13 240 7 q 162 24 186 18 q 128 36 138 29 q 44 128 75 72 q 14 251 14 183 q 24 305 14 281 q 49 350 33 329 q 83 391 64 371 q 121 433 101 411 q 178 494 151 468 q 234 537 204 519 q 300 563 264 554 q 386 571 336 571 q 504 551 449 571 q 601 495 560 532 q 667 406 643 458 q 690 288 690 354 m 596 286 q 580 353 596 321 q 538 410 564 386 q 477 449 511 435 q 408 464 443 464 q 313 453 354 464 q 240 422 272 442 q 183 372 208 401 q 133 307 157 343 q 116 285 119 292 q 108 272 113 279 q 103 244 104 263 q 103 206 101 226 q 111 169 106 186 q 128 143 117 151 q 185 113 153 124 q 251 97 217 103 q 321 89 286 90 q 385 88 356 88 q 462 103 424 88 q 530 145 500 118 q 578 208 560 172 q 596 286 596 244 m 290 753 q 282 749 288 751 q 274 744 276 746 q 215 700 236 714 q 183 681 194 686 q 168 677 172 676 q 161 678 164 678 q 140 694 140 678 l 139 701 q 158 720 147 714 q 179 735 168 726 q 206 759 192 746 q 234 784 219 772 q 265 805 249 796 q 299 815 281 814 q 334 800 326 817 q 347 764 342 783 q 361 728 351 744 q 404 715 371 713 q 447 722 424 717 q 485 742 469 728 q 492 749 486 743 q 503 763 497 756 q 515 776 510 769 q 522 783 521 782 q 533 793 529 790 q 546 797 538 796 q 563 796 557 801 q 569 780 568 790 q 565 756 569 769 q 553 728 561 742 q 489 671 525 685 q 404 654 453 657 q 349 667 367 651 q 322 703 331 683 q 309 738 314 722 q 290 753 304 754 z "},"":{"ha":704,"x_min":14,"x_max":690,"o":"m 690 282 q 669 179 690 229 q 613 90 649 129 q 528 25 576 50 q 426 -1 481 0 l 299 -4 q 264 -1 288 -4 q 213 7 240 1 q 162 18 186 13 q 128 31 138 24 q 44 122 75 67 q 14 246 14 178 q 24 299 14 275 q 49 344 33 324 q 83 385 64 365 q 121 428 101 406 q 178 488 151 463 q 234 531 204 514 q 300 557 264 549 q 386 565 336 565 q 504 546 449 565 q 601 490 560 526 q 667 401 643 453 q 690 282 690 349 m 596 281 q 580 348 596 315 q 538 405 564 381 q 477 444 511 429 q 408 458 443 458 q 313 447 354 458 q 240 416 272 436 q 183 367 208 396 q 133 301 157 338 q 116 280 119 286 q 108 267 113 274 q 103 239 104 257 q 103 201 101 221 q 111 163 106 181 q 128 138 117 146 q 185 108 153 118 q 251 91 217 97 q 321 83 286 85 q 385 82 356 82 q 462 97 424 82 q 530 140 500 113 q 578 203 560 167 q 596 281 596 239 m 494 660 q 450 675 474 660 q 426 714 426 690 q 434 733 426 725 q 452 748 442 742 q 474 757 463 754 q 494 760 486 760 l 508 760 q 538 699 538 735 q 494 660 538 660 m 268 664 q 224 677 244 664 q 203 718 203 690 q 217 756 203 742 q 257 771 232 771 l 271 771 q 303 743 290 763 q 317 704 317 724 q 308 679 317 690 q 288 664 300 668 l 268 664 z "},"":{"ha":708,"x_min":14,"x_max":694,"o":"m 24 -21 q 40 21 24 1 l 101 86 q 38 180 61 126 q 14 289 14 233 q 38 408 14 356 q 102 496 61 460 q 198 551 143 532 q 315 571 253 571 q 419 559 371 571 q 511 525 468 547 q 528 547 518 536 q 544 564 539 558 q 578 605 560 585 q 625 625 596 625 q 660 610 649 625 q 672 572 672 594 q 672 549 672 556 q 667 538 671 542 q 658 528 664 533 q 643 513 653 524 q 624 492 636 506 q 596 464 611 479 q 632 428 615 447 q 683 332 671 383 q 694 218 694 281 q 660 113 694 151 q 572 40 625 74 q 524 18 550 28 q 471 8 497 8 l 276 8 q 175 32 226 8 q 152 -1 164 15 q 126 -31 140 -17 q 97 -53 113 -44 q 64 -61 82 -61 q 34 -50 44 -61 q 24 -21 24 -39 m 238 107 q 317 90 275 90 q 441 101 376 90 q 556 147 506 111 q 591 178 576 163 q 606 218 606 194 q 601 254 606 232 q 591 299 597 276 q 577 342 585 322 q 563 371 569 363 q 548 385 556 378 q 533 399 540 392 l 238 107 m 108 288 q 167 154 108 213 l 443 449 q 375 463 411 460 q 294 465 339 465 q 225 451 258 465 q 166 412 192 436 q 124 355 140 388 q 108 288 108 322 z "},"":{"ha":643,"x_min":6,"x_max":631,"o":"m 17 438 q 20 474 18 454 q 29 510 22 493 q 49 537 36 526 q 83 546 61 547 q 145 526 125 542 q 171 488 165 510 q 171 439 176 465 q 156 387 165 413 q 138 340 147 361 q 128 306 129 318 q 140 249 125 278 q 179 195 156 221 q 231 149 203 169 q 281 119 258 129 q 314 111 290 113 l 351 107 q 403 106 375 104 q 458 117 432 108 q 501 144 483 126 q 522 193 519 163 q 523 223 524 208 q 515 250 522 238 l 478 439 q 474 449 475 444 q 474 457 474 454 l 475 478 q 489 506 478 496 q 518 514 500 517 q 554 494 540 511 q 575 458 568 476 q 603 385 592 418 q 622 320 615 353 q 629 253 628 288 q 626 172 631 218 q 590 89 622 122 q 512 37 557 56 q 416 12 467 18 q 325 10 365 6 q 207 47 264 15 q 48 211 90 114 q 17 438 6 308 m 407 694 q 413 653 414 671 q 388 629 411 636 q 342 637 369 625 q 289 669 315 649 q 241 715 263 690 q 214 763 219 740 q 235 810 201 799 q 262 810 247 814 q 291 799 276 807 q 319 783 306 792 q 343 767 332 774 q 383 738 367 753 q 407 694 399 724 z "},"":{"ha":644,"x_min":6,"x_max":631,"o":"m 17 454 q 20 490 18 471 q 29 526 22 510 q 49 553 36 543 q 83 563 61 564 q 145 542 125 558 q 171 504 165 526 q 171 456 176 482 q 156 403 165 429 q 138 356 147 378 q 128 322 129 335 q 140 266 125 294 q 179 212 156 238 q 231 166 203 186 q 281 136 258 146 q 314 128 290 129 l 351 124 q 403 123 375 121 q 458 134 432 125 q 501 161 483 143 q 522 210 519 179 q 523 240 524 225 q 515 267 522 254 l 478 456 q 474 466 475 461 q 474 474 474 471 l 475 494 q 489 523 478 513 q 518 531 500 533 q 554 510 540 528 q 575 475 568 493 q 603 402 592 435 q 622 337 615 369 q 629 269 628 304 q 626 189 631 235 q 590 106 622 139 q 512 53 557 72 q 416 28 467 35 q 325 26 365 22 q 207 64 263 33 q 48 228 90 131 q 17 454 6 325 m 408 801 q 449 794 432 801 q 465 764 465 788 q 447 724 465 746 q 400 681 428 701 q 342 648 372 661 q 289 635 311 635 q 250 668 250 635 q 258 694 250 681 q 276 719 265 707 q 299 741 288 731 q 321 760 311 751 q 359 790 340 779 q 408 801 378 801 z "},"":{"ha":643,"x_min":6,"x_max":631,"o":"m 17 435 q 20 471 18 451 q 29 507 22 490 q 49 534 36 524 q 83 543 61 544 q 145 523 125 539 q 171 485 165 507 q 171 436 176 463 q 156 384 165 410 q 138 337 147 358 q 128 303 129 315 q 140 247 125 275 q 179 192 156 218 q 231 147 203 167 q 281 117 258 126 q 314 108 290 110 l 351 104 q 403 103 375 101 q 458 115 432 106 q 501 142 483 124 q 522 190 519 160 q 523 220 524 206 q 515 247 522 235 l 478 436 q 474 447 475 442 q 474 454 474 451 l 475 475 q 489 503 478 493 q 518 511 500 514 q 554 491 540 508 q 575 456 568 474 q 603 383 592 415 q 622 317 615 350 q 629 250 628 285 q 626 169 631 215 q 590 86 622 119 q 512 34 557 53 q 416 9 467 15 q 325 7 365 3 q 207 44 264 13 q 48 208 90 111 q 17 435 6 306 m 126 689 q 134 716 125 704 q 153 735 143 728 q 164 744 156 738 q 182 757 172 750 q 200 769 192 764 q 211 776 208 775 l 281 850 q 292 856 288 857 q 304 856 297 854 q 334 849 321 856 q 358 832 347 842 q 380 810 369 822 q 401 790 390 799 q 408 784 407 786 q 410 780 410 782 q 415 775 411 778 q 426 767 418 772 q 450 751 436 758 q 477 736 464 744 q 500 717 490 728 q 510 690 510 706 q 498 662 511 674 q 465 649 485 650 q 440 653 453 647 q 413 667 426 658 q 387 684 399 675 q 367 699 375 693 q 355 711 357 706 q 342 724 353 717 q 322 734 331 731 q 301 736 313 738 q 289 735 294 736 q 276 725 283 733 q 262 709 265 714 q 256 701 258 704 q 249 692 253 697 q 232 676 244 688 q 209 658 219 665 q 179 650 199 651 q 144 659 160 649 q 126 689 128 669 z "},"":{"ha":644,"x_min":6,"x_max":631,"o":"m 17 442 q 20 478 18 458 q 29 514 22 497 q 49 541 36 531 q 83 550 61 551 q 145 530 125 546 q 171 492 165 514 q 171 443 176 469 q 156 391 165 417 q 138 344 147 365 q 128 310 129 322 q 140 253 125 282 q 179 199 156 225 q 231 153 203 174 q 281 124 258 133 q 314 115 290 117 l 351 111 q 403 110 375 108 q 458 122 432 113 q 501 149 483 131 q 522 197 519 167 q 523 227 524 213 q 515 254 522 242 l 478 443 q 474 453 475 449 q 474 461 474 458 l 475 482 q 489 510 478 500 q 518 518 500 521 q 554 498 540 515 q 575 463 568 481 q 603 390 592 422 q 622 324 615 357 q 629 257 628 292 q 626 176 631 222 q 590 93 622 126 q 512 41 557 60 q 416 16 467 22 q 325 14 365 10 q 207 51 264 19 q 48 215 90 118 q 17 442 6 313 m 457 657 q 413 672 436 657 q 389 711 389 688 q 397 731 389 722 q 415 745 404 739 q 437 754 425 751 q 457 757 449 757 l 471 757 q 500 696 500 732 q 457 657 500 657 m 231 661 q 186 674 207 661 q 165 715 165 688 q 180 753 165 739 q 219 768 194 768 l 233 768 q 266 740 253 760 q 279 701 279 721 q 271 676 279 688 q 250 661 263 665 l 231 661 z "},"":{"ha":619,"x_min":14,"x_max":606,"o":"m 19 -519 q 17 -496 19 -504 q 15 -472 15 -487 l 15 -456 q 15 -439 15 -450 q 15 -417 14 -428 q 20 -397 17 -406 q 32 -389 24 -389 l 71 -389 q 81 -405 76 -389 q 93 -444 85 -421 q 118 -491 101 -467 q 164 -531 135 -515 l 201 -531 q 295 -528 251 -531 q 375 -514 339 -526 q 438 -474 411 -501 q 482 -397 465 -447 q 501 -305 497 -349 q 504 -210 504 -261 l 504 -135 q 498 -104 501 -122 q 491 -67 494 -86 q 484 -31 488 -49 q 479 -3 481 -14 q 474 18 476 7 q 466 40 471 29 q 453 57 461 50 q 432 64 444 64 q 382 58 406 64 q 333 51 358 51 q 247 67 289 51 q 172 109 206 82 q 113 172 138 136 q 78 250 88 208 l 78 306 q 72 372 78 335 q 68 442 67 410 q 83 496 69 474 q 138 518 97 518 q 192 494 175 518 q 210 433 210 469 q 205 399 210 411 q 194 376 200 388 q 183 351 188 365 q 178 313 178 338 q 192 259 178 288 q 230 206 207 231 q 281 164 253 181 q 339 147 310 147 q 385 169 368 147 q 412 223 403 192 q 424 288 421 254 q 426 344 426 321 q 428 365 426 353 q 431 391 429 378 q 433 416 432 404 q 435 436 435 428 q 460 475 442 453 q 499 497 479 497 q 528 474 519 497 q 538 420 536 450 q 538 361 539 390 q 538 319 536 332 q 538 305 538 315 q 540 283 539 294 q 542 262 542 272 q 543 247 543 251 l 604 -107 l 604 -118 q 605 -141 604 -128 q 606 -168 606 -154 l 606 -190 q 603 -298 606 -249 q 588 -403 601 -347 q 535 -512 571 -468 q 449 -583 499 -556 q 340 -621 400 -610 q 217 -632 281 -632 q 153 -628 185 -632 q 94 -612 121 -624 q 47 -578 67 -600 q 19 -519 28 -556 m 385 801 q 425 794 408 801 q 442 764 442 788 q 423 724 442 746 q 376 681 404 701 q 318 648 349 661 q 265 635 288 635 q 226 668 226 635 q 234 694 226 681 q 253 719 242 707 q 276 741 264 731 q 297 760 288 751 q 335 790 317 779 q 385 801 354 801 z "}}}
